<?xml version="1.0" encoding="UTF-8" standalone="no"?>
<!DOCTYPE svg PUBLIC "-//W3C//DTD SVG 1.1//EN" "http://www.w3.org/Graphics/SVG/1.1/DTD/svg11.dtd">
<svg width="100%" height="100%" viewBox="0 0 503 684" version="1.1" xmlns="http://www.w3.org/2000/svg" xmlns:xlink="http://www.w3.org/1999/xlink" xml:space="preserve" xmlns:serif="http://www.serif.com/" style="fill-rule:evenodd;clip-rule:evenodd;stroke-linejoin:round;stroke-miterlimit:2;">
    <g transform="matrix(1,0,0,1,-232.634,-98.3263)">
        <g id="cg-text" transform="matrix(0.75,0,0,0.75,-86.083,-111.519)">
            <g id="dev" transform="matrix(1.33333,0,0,1.33333,291.514,576.06)">
                <g transform="matrix(125,0,0,125,205.18,445.232)">
                    <path d="M0.123,-0.12L0.136,-0.12C0.156,-0.12 0.176,-0.107 0.195,-0.08L0.195,-0.075C0.16,-0.025 0.139,-0 0.134,-0L0.132,-0C0.122,-0.003 0.118,-0.007 0.118,-0.012L0.115,-0.009L0.113,-0.009C0.093,-0.009 0.077,-0.018 0.063,-0.035L0.063,-0.042C0.063,-0.058 0.078,-0.083 0.106,-0.118L0.123,-0.12Z" style="fill:rgb(248,249,250);fill-rule:nonzero;"/>
                </g>
                <g transform="matrix(125,0,0,125,239.177,445.232)">
                    <path d="M0.413,-0.706L0.435,-0.706C0.546,-0.706 0.65,-0.672 0.747,-0.604C0.786,-0.566 0.806,-0.529 0.806,-0.494C0.806,-0.415 0.723,-0.294 0.557,-0.131C0.47,-0.067 0.382,-0.016 0.295,0.021C0.195,0.051 0.133,0.075 0.109,0.093L0.063,0.089C0.01,0.114 -0.022,0.127 -0.035,0.127L-0.039,0.123L-0.026,0.102L-0.03,0.102L-0.056,0.11L-0.06,0.084L-0.052,0.068L-0.056,0.068L-0.077,0.076L-0.081,0.072L-0.081,0.068L-0.077,0.055L-0.081,0.055L-0.098,0.06C-0.107,0.06 -0.111,0.054 -0.111,0.042C-0.125,0.041 -0.132,0.036 -0.132,0.03C-0.119,0.016 -0.101,0.005 -0.077,-0.004C-0.028,-0.041 0.038,-0.156 0.122,-0.351C0.172,-0.467 0.198,-0.534 0.198,-0.549C0.147,-0.549 0.107,-0.583 0.08,-0.65C0.08,-0.674 0.191,-0.693 0.413,-0.706ZM0.228,-0.139C0.467,-0.251 0.586,-0.356 0.586,-0.456C0.586,-0.521 0.534,-0.562 0.43,-0.579C0.409,-0.579 0.394,-0.553 0.384,-0.503L0.228,-0.139Z" style="fill:rgb(248,249,250);fill-rule:nonzero;"/>
                </g>
                <g transform="matrix(125,0,0,125,331.828,445.232)">
                    <path d="M0.579,-0.714C0.579,-0.703 0.584,-0.697 0.595,-0.697L0.595,-0.689L0.583,-0.689L0.583,-0.685C0.597,-0.685 0.604,-0.682 0.604,-0.676L0.604,-0.672L0.587,-0.672C0.587,-0.663 0.595,-0.659 0.612,-0.659L0.612,-0.651L0.599,-0.651L0.599,-0.647L0.649,-0.647L0.688,-0.626L0.683,-0.622L0.683,-0.618C0.697,-0.618 0.704,-0.615 0.704,-0.609C0.704,-0.599 0.652,-0.588 0.549,-0.576C0.514,-0.576 0.447,-0.556 0.348,-0.517L0.302,-0.425L0.306,-0.425C0.321,-0.43 0.364,-0.435 0.436,-0.438L0.444,-0.425L0.432,-0.42L0.432,-0.417C0.454,-0.417 0.465,-0.414 0.465,-0.408L0.444,-0.399L0.444,-0.396L0.453,-0.396L0.449,-0.383C0.449,-0.369 0.46,-0.358 0.482,-0.349L0.482,-0.345L0.478,-0.341L0.478,-0.337C0.492,-0.337 0.499,-0.334 0.499,-0.328L0.499,-0.324C0.499,-0.316 0.411,-0.293 0.235,-0.257C0.213,-0.257 0.185,-0.215 0.151,-0.131L0.453,-0.182L0.453,-0.173L0.457,-0.173L0.478,-0.178C0.482,-0.164 0.489,-0.157 0.499,-0.157L0.499,-0.144C0.492,-0.144 0.485,-0.14 0.478,-0.131L0.469,-0.131L0.469,-0.127L0.495,-0.127L0.495,-0.119L0.474,-0.119L0.478,-0.115L0.478,-0.11L0.474,-0.106C0.515,-0.106 0.537,-0.099 0.541,-0.085L0.537,-0.081C0.551,-0.079 0.558,-0.075 0.558,-0.068C0.533,-0.052 0.449,-0.032 0.306,-0.006C0.139,0.022 0.055,0.048 0.055,0.07C0.051,0.084 0.038,0.097 0.017,0.107L0.013,0.107L-0.012,0.086L-0.021,0.086L-0.042,0.091C-0.042,0.084 -0.056,0.077 -0.083,0.07L-0.096,0.074L-0.101,0.07L-0.101,0.065L-0.096,0.053L-0.104,0.053L-0.109,0.057L-0.113,0.057L-0.117,0.053L-0.117,0.049C-0.094,-0.034 0.009,-0.269 0.193,-0.655C0.193,-0.683 0.212,-0.7 0.251,-0.706L0.415,-0.701L0.579,-0.714Z" style="fill:rgb(248,249,250);fill-rule:nonzero;"/>
                </g>
                <g transform="matrix(125,0,0,125,402.079,445.232)">
                    <path d="M0.815,-0.736L0.825,-0.712L0.83,-0.712L0.834,-0.717L0.839,-0.717L0.843,-0.712L0.839,-0.708L0.839,-0.703L0.848,-0.694C0.848,-0.682 0.786,-0.603 0.662,-0.457C0.489,-0.235 0.376,-0.075 0.322,0.023C0.308,0.072 0.287,0.097 0.257,0.097L0.238,0.097C0.186,0.097 0.14,0.077 0.103,0.037L0.112,-0.005L0.015,-0.517L-0.022,-0.689L-0.022,-0.694C-0.007,-0.719 0.012,-0.731 0.033,-0.731C0.075,-0.731 0.115,-0.715 0.154,-0.685C0.186,-0.662 0.201,-0.622 0.201,-0.563C0.205,-0.563 0.224,-0.451 0.257,-0.229L0.262,-0.229L0.373,-0.373C0.404,-0.398 0.421,-0.42 0.424,-0.438L0.429,-0.438L0.434,-0.433L0.438,-0.433L0.48,-0.475L0.485,-0.471L0.485,-0.475L0.48,-0.489L0.494,-0.499L0.499,-0.499L0.503,-0.475L0.513,-0.484L0.508,-0.503L0.513,-0.503L0.508,-0.517C0.517,-0.538 0.526,-0.55 0.536,-0.554L0.541,-0.554L0.545,-0.55L0.55,-0.55L0.56,-0.559L0.56,-0.55L0.555,-0.545L0.555,-0.541L0.56,-0.541L0.611,-0.605L0.615,-0.605L0.615,-0.601L0.583,-0.559L0.583,-0.531L0.634,-0.587L0.639,-0.582L0.643,-0.582L0.643,-0.591L0.648,-0.591L0.639,-0.615L0.643,-0.62L0.648,-0.62L0.652,-0.615L0.657,-0.615L0.704,-0.652L0.708,-0.647L0.708,-0.643L0.685,-0.62L0.685,-0.615L0.694,-0.615C0.763,-0.694 0.803,-0.735 0.815,-0.736Z" style="fill:rgb(248,249,250);fill-rule:nonzero;"/>
                </g>
            </g>
            <g id="crossinguard" transform="matrix(1.33333,0,0,1.33333,291.514,493.43)">
                <g transform="matrix(63,0,0,63,105.465,397.581)">
                    <path d="M0.58,-0.701L0.612,-0.701C0.691,-0.701 0.747,-0.678 0.781,-0.633L0.781,-0.592C0.781,-0.534 0.759,-0.505 0.717,-0.505C0.686,-0.514 0.653,-0.519 0.617,-0.519C0.393,-0.519 0.24,-0.412 0.156,-0.2L0.147,-0.154L0.147,-0.14C0.147,-0.094 0.177,-0.065 0.238,-0.054C0.276,-0.045 0.326,-0.04 0.389,-0.04L0.471,-0.04L0.471,-0.031L0.452,-0.031L0.452,-0.026C0.459,-0.026 0.467,-0.02 0.475,-0.008L0.479,-0.008L0.479,0.005L0.43,0.01L0.43,0.015L0.438,0.015L0.43,0.042L0.438,0.042L0.438,0.051L0.43,0.051L0.43,0.056C0.442,0.056 0.448,0.062 0.448,0.074L0.457,0.074L0.452,0.069L0.452,0.065L0.457,0.06L0.484,0.06L0.484,0.069L0.489,0.074L0.484,0.079L0.471,0.079L0.471,0.083L0.479,0.092L0.493,0.092L0.489,0.087L0.489,0.083L0.502,0.079L0.516,0.083C0.516,0.11 0.41,0.124 0.197,0.124C0.063,0.124 -0.031,0.059 -0.085,-0.072L-0.085,-0.131C-0.085,-0.272 0.01,-0.423 0.202,-0.583C0.315,-0.662 0.441,-0.701 0.58,-0.701ZM0.479,-0.022L0.507,-0.022L0.507,-0.013L0.479,-0.013L0.479,-0.022Z" style="fill:rgb(56,217,169);fill-rule:nonzero;"/>
                </g>
                <g transform="matrix(63,0,0,63,147.871,397.581)">
                    <path d="M0.398,-0.744L0.436,-0.744C0.626,-0.744 0.738,-0.681 0.772,-0.557L0.776,-0.531L0.776,-0.518C0.776,-0.481 0.691,-0.418 0.521,-0.331C0.564,-0.15 0.585,-0.024 0.585,0.047L0.589,0.052L0.589,0.056L0.585,0.069L0.589,0.107L0.585,0.111L0.577,0.111C0.577,0.1 0.574,0.094 0.568,0.094C0.568,0.103 0.565,0.107 0.56,0.107L0.551,0.107L0.547,0.103L0.542,0.103C0.538,0.114 0.534,0.12 0.53,0.12L0.508,0.115L0.5,0.124C0.498,0.11 0.491,0.103 0.479,0.103C0.433,-0.003 0.394,-0.125 0.36,-0.263L0.168,-0.199C0.151,-0.159 0.137,-0.137 0.126,-0.131L0.122,-0.11L0.109,-0.11L0.126,-0.157L0.126,-0.161L0.122,-0.161L0.1,-0.114L0.109,-0.105C0.098,-0.105 0.077,-0.076 0.045,-0.017C0.041,-0.016 0.033,0.002 0.02,0.039C0.014,0.039 -0,0.067 -0.023,0.124L-0.027,0.124C-0.027,0.111 -0.042,0.1 -0.07,0.09L-0.078,0.099C-0.078,0.093 -0.083,0.09 -0.091,0.09L-0.104,0.094C-0.11,0.079 -0.119,0.07 -0.129,0.069L-0.129,0.056C-0.129,-0.013 -0.051,-0.203 0.104,-0.514C0.045,-0.555 0.015,-0.587 0.015,-0.612L0.015,-0.633C0.017,-0.648 0.07,-0.673 0.172,-0.709C0.187,-0.732 0.262,-0.744 0.398,-0.744ZM0.262,-0.408L0.271,-0.408C0.441,-0.481 0.544,-0.539 0.581,-0.582L0.581,-0.586L0.496,-0.59L0.487,-0.59C0.38,-0.59 0.326,-0.578 0.326,-0.552C0.292,-0.467 0.271,-0.418 0.262,-0.408Z" style="fill:rgb(56,217,169);fill-rule:nonzero;"/>
                </g>
                <g transform="matrix(63,0,0,63,186.708,397.581)">
                    <path d="M0.638,-0.73L0.643,-0.73C0.674,-0.73 0.705,-0.701 0.737,-0.641L0.742,-0.636L0.742,-0.614C0.742,-0.6 0.718,-0.588 0.671,-0.578L0.671,-0.574C0.743,-0.485 0.779,-0.401 0.779,-0.323L0.779,-0.301C0.779,-0.108 0.696,0.016 0.53,0.071C0.474,0.086 0.427,0.093 0.39,0.093L0.338,0.093C0.192,0.093 0.087,0.019 0.023,-0.13C0.014,-0.132 0.008,-0.159 0.004,-0.211L0.004,-0.243C0.004,-0.387 0.109,-0.518 0.319,-0.636C0.451,-0.699 0.558,-0.73 0.638,-0.73ZM0.178,-0.202L0.178,-0.198C0.178,-0.146 0.211,-0.116 0.277,-0.108L0.314,-0.108C0.416,-0.108 0.51,-0.167 0.596,-0.283C0.61,-0.313 0.619,-0.354 0.624,-0.404C0.621,-0.445 0.617,-0.471 0.61,-0.48L0.615,-0.493C0.606,-0.538 0.6,-0.561 0.596,-0.561C0.504,-0.548 0.398,-0.488 0.277,-0.381C0.211,-0.318 0.178,-0.258 0.178,-0.202Z" style="fill:rgb(56,217,169);fill-rule:nonzero;"/>
                </g>
                <g transform="matrix(63,0,0,63,235.728,397.581)">
                    <path d="M0.61,-0.751L0.62,-0.751C0.633,-0.751 0.652,-0.74 0.674,-0.719L0.679,-0.715L0.683,-0.715L0.679,-0.697L0.683,-0.642C0.678,-0.594 0.662,-0.569 0.633,-0.569L0.606,-0.569C0.487,-0.569 0.339,-0.528 0.161,-0.447L0.161,-0.438L0.166,-0.438C0.386,-0.42 0.507,-0.389 0.529,-0.347C0.55,-0.335 0.561,-0.313 0.561,-0.283C0.552,-0.184 0.54,-0.134 0.524,-0.134C0.456,-0.083 0.38,-0.042 0.297,-0.011C0.173,0.031 0.002,0.08 -0.216,0.134L-0.22,0.13L-0.22,0.125L-0.188,0.112L-0.188,0.103L-0.238,0.112L-0.238,0.107C-0.238,0.1 -0.231,0.096 -0.216,0.093L-0.216,0.084L-0.229,0.084L-0.229,0.075L-0.22,0.075L-0.22,0.071L-0.248,0.062L-0.243,0.057L-0.243,0.043C-0.255,0.043 -0.261,0.039 -0.261,0.03L-0.266,0.034L-0.275,0.034L-0.275,0.03L-0.271,0.025L-0.271,0.021L-0.279,0.021C-0.279,0.015 -0.284,0.012 -0.293,0.012L-0.293,0.007C-0.293,-0.008 -0.17,-0.05 0.075,-0.12C0.237,-0.176 0.331,-0.214 0.356,-0.233C0.099,-0.25 -0.03,-0.278 -0.03,-0.315C-0.06,-0.335 -0.075,-0.364 -0.075,-0.401C-0.075,-0.436 -0.057,-0.477 -0.021,-0.524C0.201,-0.675 0.411,-0.751 0.61,-0.751ZM-0.202,0.057L-0.202,0.062L-0.193,0.062L-0.193,0.057L-0.202,0.057Z" style="fill:rgb(56,217,169);fill-rule:nonzero;"/>
                </g>
                <g transform="matrix(63,0,0,63,268.474,397.581)">
                    <path d="M0.61,-0.751L0.62,-0.751C0.633,-0.751 0.652,-0.74 0.674,-0.719L0.679,-0.715L0.683,-0.715L0.679,-0.697L0.683,-0.642C0.678,-0.594 0.662,-0.569 0.633,-0.569L0.606,-0.569C0.487,-0.569 0.339,-0.528 0.161,-0.447L0.161,-0.438L0.166,-0.438C0.386,-0.42 0.507,-0.389 0.529,-0.347C0.55,-0.335 0.561,-0.313 0.561,-0.283C0.552,-0.184 0.54,-0.134 0.524,-0.134C0.456,-0.083 0.38,-0.042 0.297,-0.011C0.173,0.031 0.002,0.08 -0.216,0.134L-0.22,0.13L-0.22,0.125L-0.188,0.112L-0.188,0.103L-0.238,0.112L-0.238,0.107C-0.238,0.1 -0.231,0.096 -0.216,0.093L-0.216,0.084L-0.229,0.084L-0.229,0.075L-0.22,0.075L-0.22,0.071L-0.248,0.062L-0.243,0.057L-0.243,0.043C-0.255,0.043 -0.261,0.039 -0.261,0.03L-0.266,0.034L-0.275,0.034L-0.275,0.03L-0.271,0.025L-0.271,0.021L-0.279,0.021C-0.279,0.015 -0.284,0.012 -0.293,0.012L-0.293,0.007C-0.293,-0.008 -0.17,-0.05 0.075,-0.12C0.237,-0.176 0.331,-0.214 0.356,-0.233C0.099,-0.25 -0.03,-0.278 -0.03,-0.315C-0.06,-0.335 -0.075,-0.364 -0.075,-0.401C-0.075,-0.436 -0.057,-0.477 -0.021,-0.524C0.201,-0.675 0.411,-0.751 0.61,-0.751ZM-0.202,0.057L-0.202,0.062L-0.193,0.062L-0.193,0.057L-0.202,0.057Z" style="fill:rgb(56,217,169);fill-rule:nonzero;"/>
                </g>
                <g transform="matrix(63,0,0,63,301.221,397.581)">
                    <path d="M0.25,-0.704L0.277,-0.704C0.331,-0.704 0.373,-0.68 0.403,-0.632L0.403,-0.614C0.403,-0.606 0.374,-0.555 0.317,-0.461L0.12,-0.052C0.094,-0.005 0.076,0.022 0.065,0.029L0.061,0.024L0.057,0.024L0.047,0.046L0.039,0.046L0.047,0.015L-0.002,0.096L-0.006,0.096L-0.011,0.092L-0.011,0.087L-0.006,0.083L-0.006,0.074L-0.011,0.074L-0.029,0.114L-0.038,0.114L-0.038,0.109L-0.029,0.087L-0.101,0.146L-0.114,0.137L-0.11,0.132L-0.11,0.119L-0.124,0.127L-0.132,0.119C-0.132,0.079 -0.024,-0.177 0.191,-0.65C0.204,-0.686 0.224,-0.704 0.25,-0.704ZM0.164,-0.119L0.164,-0.112L0.167,-0.112L0.167,-0.119L0.164,-0.119Z" style="fill:rgb(56,217,169);fill-rule:nonzero;"/>
                </g>
                <g transform="matrix(63,0,0,63,320.801,397.581)">
                    <path d="M0.733,-0.732L0.764,-0.732C0.803,-0.732 0.835,-0.715 0.86,-0.68L0.86,-0.667L0.693,-0.236C0.652,-0.16 0.611,-0.054 0.57,0.084L0.557,0.098L0.544,0.098L0.526,0.084L0.522,0.089L0.5,0.089L0.478,0.076L0.434,0.08L0.399,0.041L0.399,0.01C0.399,-0.003 0.409,-0.034 0.43,-0.083L0.316,-0.354L0.281,-0.46L0.276,-0.46L0.101,-0.091C0.08,-0.049 0.065,-0.001 0.057,0.054L0.061,0.058L0.061,0.063C0.056,0.086 0.05,0.098 0.043,0.098L0.03,0.098L-0.014,0.071L-0.022,0.071L-0.04,0.076L-0.053,0.071L-0.062,0.08L-0.066,0.076L-0.071,0.076L-0.075,0.08L-0.115,0.027L-0.115,0.01C-0.115,-0.043 -0.046,-0.204 0.092,-0.473L0.197,-0.697C0.213,-0.71 0.263,-0.719 0.346,-0.724C0.366,-0.724 0.387,-0.709 0.408,-0.68L0.408,-0.675C0.408,-0.592 0.446,-0.469 0.522,-0.307C0.563,-0.377 0.608,-0.497 0.658,-0.667C0.668,-0.705 0.686,-0.724 0.711,-0.724C0.711,-0.729 0.718,-0.732 0.733,-0.732Z" style="fill:rgb(56,217,169);fill-rule:nonzero;"/>
                </g>
                <g transform="matrix(63,0,0,63,367.975,397.581)">
                    <path d="M0.612,-0.705L0.626,-0.705C0.708,-0.705 0.765,-0.67 0.797,-0.599C0.79,-0.534 0.779,-0.501 0.765,-0.501L0.76,-0.501C0.741,-0.501 0.709,-0.511 0.663,-0.529L0.571,-0.539C0.403,-0.539 0.261,-0.469 0.146,-0.331C0.096,-0.264 0.071,-0.191 0.071,-0.113C0.071,-0.07 0.104,-0.048 0.168,-0.048C0.208,-0.048 0.263,-0.061 0.335,-0.085L0.335,-0.09L0.33,-0.09L0.196,-0.081C0.196,-0.089 0.184,-0.1 0.159,-0.113L0.164,-0.118L0.164,-0.123L0.136,-0.123L0.136,-0.132L0.164,-0.136L0.164,-0.141L0.127,-0.146L0.127,-0.155L0.141,-0.155L0.141,-0.159L0.118,-0.159L0.118,-0.164L0.127,-0.178C0.105,-0.178 0.094,-0.181 0.094,-0.187C0.094,-0.208 0.284,-0.251 0.663,-0.316C0.699,-0.316 0.725,-0.295 0.742,-0.252L0.747,-0.238C0.747,-0.206 0.725,-0.172 0.682,-0.136C0.682,-0.106 0.605,-0.044 0.451,0.049C0.378,0.089 0.307,0.109 0.238,0.109L0.196,0.109C0.058,0.109 -0.035,0.038 -0.082,-0.104L-0.086,-0.146L-0.086,-0.173C-0.086,-0.285 0,-0.419 0.173,-0.576C0.3,-0.662 0.447,-0.705 0.612,-0.705Z" style="fill:rgb(56,217,169);fill-rule:nonzero;"/>
                </g>
                <g transform="matrix(63,0,0,63,412.841,397.581)">
                    <path d="M0.247,-0.729L0.268,-0.729C0.313,-0.729 0.35,-0.705 0.379,-0.657L0.383,-0.64C0.383,-0.616 0.352,-0.545 0.289,-0.427C0.224,-0.298 0.191,-0.18 0.191,-0.073L0.191,-0.061C0.264,-0.108 0.324,-0.167 0.37,-0.235C0.478,-0.373 0.542,-0.472 0.562,-0.534L0.587,-0.589C0.596,-0.589 0.6,-0.593 0.6,-0.602L0.604,-0.606L0.613,-0.606L0.613,-0.589L0.617,-0.589C0.625,-0.637 0.632,-0.661 0.639,-0.661L0.643,-0.661L0.643,-0.644L0.647,-0.644L0.647,-0.678L0.656,-0.678L0.656,-0.666C0.666,-0.671 0.679,-0.692 0.694,-0.729L0.698,-0.729C0.727,-0.703 0.741,-0.662 0.741,-0.606C0.741,-0.418 0.62,-0.205 0.379,0.033C0.333,0.062 0.28,0.076 0.221,0.076C0.112,0.076 0.04,0.036 0.003,-0.043L-0.005,-0.095L-0.005,-0.116C-0.005,-0.228 0.018,-0.327 0.063,-0.414L0.174,-0.674C0.198,-0.711 0.222,-0.729 0.247,-0.729Z" style="fill:rgb(56,217,169);fill-rule:nonzero;"/>
                </g>
                <g transform="matrix(63,0,0,63,458.385,397.581)">
                    <path d="M0.439,-0.71C0.517,-0.71 0.565,-0.687 0.583,-0.64C0.593,-0.599 0.605,-0.517 0.62,-0.394L0.624,-0.39C0.626,-0.37 0.63,-0.361 0.636,-0.361L0.768,-0.377L0.768,-0.369L0.772,-0.369L0.837,-0.373L0.837,-0.365L0.809,-0.357L0.809,-0.353L0.837,-0.353L0.866,-0.357L0.866,-0.349C0.838,-0.338 0.816,-0.332 0.801,-0.332L0.801,-0.324L0.821,-0.328C0.84,-0.323 0.85,-0.317 0.85,-0.312L0.871,-0.316C0.925,-0.314 0.953,-0.309 0.953,-0.299L0.948,-0.295L0.977,-0.287L0.977,-0.279C0.94,-0.26 0.863,-0.243 0.747,-0.229L0.673,-0.217C0.709,-0.078 0.727,0.017 0.727,0.066L0.727,0.083L0.714,0.095L0.71,0.095C0.701,0.095 0.691,0.091 0.682,0.083L0.682,0.095L0.673,0.095L0.673,0.087L0.661,0.095L0.645,0.083L0.604,0.099L0.57,0.066C0.557,0.044 0.536,-0.037 0.509,-0.176L0.505,-0.176C0.332,-0.129 0.246,-0.092 0.246,-0.065C0.235,-0.058 0.202,-0.016 0.147,0.062C0.129,0.084 0.113,0.095 0.102,0.095L0.094,0.075L0.09,0.079L0.086,0.079C0.069,0.069 0.061,0.058 0.061,0.046L0.057,0.05L0.049,0.05L0.049,0.042C0.037,0.042 0.027,0.033 0.016,0.017C0.005,0.017 -0,0.014 -0,0.009L-0,-0.02C-0,-0.051 0.032,-0.101 0.098,-0.172C0.126,-0.218 0.171,-0.283 0.234,-0.365L0.374,-0.611L0.402,-0.694C0.417,-0.705 0.429,-0.71 0.439,-0.71ZM0.406,-0.312L0.406,-0.308C0.453,-0.32 0.476,-0.328 0.476,-0.332L0.464,-0.398C0.456,-0.395 0.437,-0.366 0.406,-0.312ZM0.788,-0.381L0.796,-0.381L0.796,-0.373L0.788,-0.373L0.788,-0.381ZM0.792,-0.353L0.792,-0.349L0.801,-0.349L0.801,-0.353L0.792,-0.353Z" style="fill:rgb(56,217,169);fill-rule:nonzero;"/>
                </g>
                <g transform="matrix(63,0,0,63,505.128,397.581)">
                    <path d="M0.398,-0.744L0.436,-0.744C0.626,-0.744 0.738,-0.681 0.772,-0.557L0.776,-0.531L0.776,-0.518C0.776,-0.481 0.691,-0.418 0.521,-0.331C0.564,-0.15 0.585,-0.024 0.585,0.047L0.589,0.052L0.589,0.056L0.585,0.069L0.589,0.107L0.585,0.111L0.577,0.111C0.577,0.1 0.574,0.094 0.568,0.094C0.568,0.103 0.565,0.107 0.56,0.107L0.551,0.107L0.547,0.103L0.542,0.103C0.538,0.114 0.534,0.12 0.53,0.12L0.508,0.115L0.5,0.124C0.498,0.11 0.491,0.103 0.479,0.103C0.433,-0.003 0.394,-0.125 0.36,-0.263L0.168,-0.199C0.151,-0.159 0.137,-0.137 0.126,-0.131L0.122,-0.11L0.109,-0.11L0.126,-0.157L0.126,-0.161L0.122,-0.161L0.1,-0.114L0.109,-0.105C0.098,-0.105 0.077,-0.076 0.045,-0.017C0.041,-0.016 0.033,0.002 0.02,0.039C0.014,0.039 -0,0.067 -0.023,0.124L-0.027,0.124C-0.027,0.111 -0.042,0.1 -0.07,0.09L-0.078,0.099C-0.078,0.093 -0.083,0.09 -0.091,0.09L-0.104,0.094C-0.11,0.079 -0.119,0.07 -0.129,0.069L-0.129,0.056C-0.129,-0.013 -0.051,-0.203 0.104,-0.514C0.045,-0.555 0.015,-0.587 0.015,-0.612L0.015,-0.633C0.017,-0.648 0.07,-0.673 0.172,-0.709C0.187,-0.732 0.262,-0.744 0.398,-0.744ZM0.262,-0.408L0.271,-0.408C0.441,-0.481 0.544,-0.539 0.581,-0.582L0.581,-0.586L0.496,-0.59L0.487,-0.59C0.38,-0.59 0.326,-0.578 0.326,-0.552C0.292,-0.467 0.271,-0.418 0.262,-0.408Z" style="fill:rgb(56,217,169);fill-rule:nonzero;"/>
                </g>
                <g transform="matrix(63,0,0,63,543.965,397.581)">
                    <path d="M0.413,-0.706L0.435,-0.706C0.546,-0.706 0.65,-0.672 0.747,-0.604C0.786,-0.566 0.806,-0.529 0.806,-0.494C0.806,-0.415 0.723,-0.294 0.557,-0.131C0.47,-0.067 0.382,-0.016 0.295,0.021C0.195,0.051 0.133,0.075 0.109,0.093L0.063,0.089C0.01,0.114 -0.022,0.127 -0.035,0.127L-0.039,0.123L-0.026,0.102L-0.03,0.102L-0.056,0.11L-0.06,0.084L-0.052,0.068L-0.056,0.068L-0.077,0.076L-0.081,0.072L-0.081,0.068L-0.077,0.055L-0.081,0.055L-0.098,0.06C-0.107,0.06 -0.111,0.054 -0.111,0.042C-0.125,0.041 -0.132,0.036 -0.132,0.03C-0.119,0.016 -0.101,0.005 -0.077,-0.004C-0.028,-0.041 0.038,-0.156 0.122,-0.351C0.172,-0.467 0.198,-0.534 0.198,-0.549C0.147,-0.549 0.107,-0.583 0.08,-0.65C0.08,-0.674 0.191,-0.693 0.413,-0.706ZM0.228,-0.139C0.467,-0.251 0.586,-0.356 0.586,-0.456C0.586,-0.521 0.534,-0.562 0.43,-0.579C0.409,-0.579 0.394,-0.553 0.384,-0.503L0.228,-0.139Z" style="fill:rgb(56,217,169);fill-rule:nonzero;"/>
                </g>
            </g>
        </g>
        <g id="cg-logo" transform="matrix(0.489085,0,0,0.489085,111.349,-26.9539)">
            <g id="background" transform="matrix(1.02232,0,0,1.02232,-28.4624,-29.7204)">
                <g id="background1" serif:id="background" transform="matrix(1,0,0,1,275.4,279.632)">
                    <path d="M1000,500C1000,224.042 775.958,0 500,0C224.042,0 0,224.042 0,500C0,775.958 224.042,1000 500,1000C775.958,1000 1000,775.958 1000,500Z" style="fill:rgb(33,37,41);"/>
                </g>
                <g id="sun" transform="matrix(4.40785,0,0,4.40785,-1591.01,-1476.86)">
                    <path d="M524.324,406.709C473.626,413.61 430.99,456.101 430.99,508.685C430.99,520.435 431.546,531.748 435.224,543.032C436.191,546.003 437.003,551.543 439.688,553.464C442.671,555.599 449.856,554.232 453.39,554.232L584.804,554.232C599.763,554.232 617.043,556.664 631.765,554.122C636.91,553.233 638.708,541.351 639.777,537.059C644.497,518.09 643.485,497.329 637.319,478.819C621.796,432.213 573.78,399.977 524.324,406.709M440.697,556.472C441.612,559.648 443.175,564.343 446.169,566.158C448.819,567.765 453.399,566.925 456.377,566.925L595.257,566.925C608.553,566.925 628.082,572.123 632.59,556.472L440.697,556.472M448.91,571.405C455.933,583.731 472.228,579.619 484.75,579.619L586.297,579.619C599.161,579.619 617.173,584.048 624.377,571.405L448.91,571.405M461.604,586.339C468.175,595.635 482.749,592.312 492.964,592.312L578.83,592.312C589.284,592.312 604.97,595.837 611.684,586.339L461.604,586.339M480.27,601.272L480.27,602.019C488.112,606.747 498.266,605.005 507.15,605.005L565.39,605.005C574.274,605.005 585.315,607.03 593.017,602.019C584.286,598.355 568.921,601.272 559.417,601.272L480.27,601.272M516.857,615.459L516.857,616.205C529.932,618.642 543.355,618.642 556.43,616.205L543.737,615.459L516.857,615.459" style="fill:rgb(248,249,250);fill-rule:nonzero;"/>
                </g>
            </g>
            <g id="crystal" transform="matrix(0.180125,0,0,0.180125,1106.36,592.91)">
                <g id="backer" transform="matrix(2.04463,0,0,2.04463,-4761.41,-1746.15)">
                    <path d="M1093.98,316.794C1104.03,296.622 1120.42,298.389 1150.96,280.411C1223.91,237.476 1351.16,167.288 1449.72,113.641C1476.98,98.809 1499.94,70.496 1523.15,73.864C1546.36,77.231 1561.99,100.626 1588.96,133.846C1726.23,315.882 1867.73,478.157 2027.61,697.589C2047.24,724.542 2080.6,753.008 2087.38,781.177C2094.15,809.345 2074.61,838.685 2068.26,866.598C2005.87,1140.94 1945.68,1362.18 1886.36,1562.77C2008.36,1505.05 2117.74,1458.27 2192.85,1441.19C2225.89,1433.68 2260.76,1427.51 2270.23,1437.5C2279.71,1447.49 2256.49,1479.88 2249.69,1501.11C2184.81,1703.75 2121.77,1912.97 1981.78,2237.48C1918.28,2384.69 1925.49,2479.79 1883.87,2542.99C1803.11,2665.61 1569.98,2692.88 1430.42,2685.3C1261.89,2676.15 963.31,2629.43 884.383,2540.64C724.262,2360.49 704.635,2089.17 559.44,1637.05C559.44,1637.05 512.834,1530.69 530.064,1479.59C568.057,1366.93 681.866,1023.98 738.105,875.563C750.796,842.071 750.668,813.436 765.85,809.684C781.033,805.932 805.566,833.437 829.2,853.051C895.779,908.306 984.193,1002.98 1110.11,1124.26C1102.7,892.926 1085.46,568.837 1087.06,408.689C1087.53,362.011 1083.33,338.174 1093.98,316.794Z" style="fill:rgb(33,37,41);"/>
                </g>
                <g id="right" transform="matrix(2.04463,0,0,2.04463,-4761.41,-1746.15)">
                    <g transform="matrix(1,0,0,1,23,0)">
                        <path d="M1584.25,2629.7C1624.98,2623.17 1634.72,2587.05 1651.45,2553.65L1752.88,2350.85C1855.27,2146.09 1959.79,1942.21 2062.23,1737.38C2105.23,1651.32 2155.8,1567.75 2192.82,1478.81L1944.32,1570.07L1857.35,1608.85L1832.75,1686.68L1777.58,1894.55L1645.72,2391.41L1584.25,2629.7Z" style="fill:rgb(56,217,169);"/>
                    </g>
                    <g transform="matrix(1,0,0,1,36,0)">
                        <path d="M2137.03,1615.7L1775.7,2335.64L1640.04,2614.49C1677.57,2608.95 1756.73,2591.65 1781.68,2561.26C1825.14,2508.16 1844.46,2405.11 1868.51,2340.71C1927.28,2183.15 1988.54,2026.53 2047.88,1869.2C2069.58,1811.67 2091.03,1753.97 2113.7,1696.82C2122.99,1673.42 2142.2,1640.78 2137.03,1615.7Z" style="fill:rgb(56,217,169);"/>
                    </g>
                </g>
                <g id="center" transform="matrix(2.04463,0,0,2.04463,-4761.41,-1746.15)">
                    <g transform="matrix(1,0,0,1,11,0)">
                        <path d="M2015.32,921.117L1249.55,2624.63C1249.55,2624.63 1420.9,2648.78 1472.69,2649.97C1502.5,2650.66 1560.27,2631.78 1560.27,2631.78L1594.4,2523.23L1672.34,2229.16L1919.73,1291.22L1990.73,1032.65L2015.32,921.117Z" style="fill:rgb(56,217,169);"/>
                    </g>
                    <g transform="matrix(1,0,0,1,0,-27)">
                        <path d="M1132.9,353.285L1132.9,358.353L1487.9,524.552L2030.53,779.163L1883.46,586.503L1657.28,297.515L1566,180.905L1523.2,139.473L1416.9,191.805L1132.9,353.285Z" style="fill:rgb(56,217,169);"/>
                    </g>
                    <g transform="matrix(1,0,0,1,0,-22)">
                        <path d="M1122.76,373.564L1143.04,1174.62L1401.68,1069.62L2045.75,804.516L1847.96,708.888L1498.04,544.631L1244.47,424.971L1122.76,373.564Z" style="fill:rgb(56,217,169);"/>
                    </g>
                    <path d="M1239.4,2619.56L1425.47,2203.83L1816.83,1331.79L1956.03,1022.52L2045.75,814.653L1787.1,918.967L1366.18,1092.13L1203.9,1159.46L1146.1,1191.83L1147.66,1301.37L1152.99,1529.52L1168.4,2305.22L1173.47,2513.1L1178.69,2597.11L1239.4,2619.56Z" style="fill:rgb(56,217,169);"/>
                </g>
                <g id="left" transform="matrix(2.04463,0,0,2.04463,-4761.41,-1746.15)">
                    <g transform="matrix(1,0,0,1,-5,0)">
                        <path d="M808.333,885.629C864.343,1319.22 978.838,1747.41 1052.17,2178.47C1070.03,2283.45 1090.72,2388.39 1111.6,2492.81C1119.37,2531.68 1116.79,2582.48 1158.26,2599.28L1133.1,1575.15L1127.83,1306.44L1122.62,1184.78L1036.54,1098.57L808.333,885.629Z" style="fill:rgb(56,217,169);"/>
                    </g>
                    <g transform="matrix(1,0,0,1,-21,0)">
                        <path d="M788.048,895.763C743.444,1032.8 698.4,1169.69 652.809,1306.43C635.208,1359.23 594.281,1433.08 596.749,1488.95C599.754,1557 658.271,1644.58 685.195,1706.96C752.228,1862.28 818.43,2017.96 885.165,2173.4C926.511,2269.71 967.909,2366 1009.05,2462.39C1033.21,2518.99 1045.14,2567.39 1112.62,2579L1038.52,2193.68L883.405,1377.41L820.506,1042.8L788.048,895.763Z" style="fill:rgb(56,217,169);"/>
                    </g>
                    <g transform="matrix(1,0,0,1,-42,0)">
                        <path d="M640.983,1651.19C689.612,1861.33 765.887,2067.73 826.474,2274.8C862.07,2396.46 888.609,2503.83 1026.41,2543.51C956.605,2338.51 855.03,2139.07 769.192,1940.18C731.016,1851.73 701.383,1725.93 640.983,1651.19Z" style="fill:rgb(56,217,169);"/>
                    </g>
                </g>
            </g>
        </g>
    </g>
</svg>
