<svg viewBox="0 0 501 501" xmlns="http://www.w3.org/2000/svg" xml:space="preserve" style="fill-rule:evenodd;clip-rule:evenodd;stroke-linejoin:round;stroke-miterlimit:2">
  <path d="M1000 500C1000 224.042 775.958 0 500 0 224.042 0 0 224.042 0 500c0 275.958 224.042 500 500 500 275.958 0 500-224.042 500-500Z" style="fill:#212529" transform="matrix(.5 0 0 .5 0 0)"/>
  <path d="M524.324 406.709c-50.698 6.901-93.334 49.392-93.334 101.976 0 11.75.556 23.063 4.234 34.347.967 2.971 1.779 8.511 4.464 10.432 2.983 2.135 10.168.768 13.702.768h131.414c14.959 0 32.239 2.432 46.961-.11 5.145-.889 6.943-12.771 8.012-17.063 4.72-18.969 3.708-39.73-2.458-58.24-15.523-46.606-63.539-78.842-112.995-72.11m-83.627 149.763c.915 3.176 2.478 7.871 5.472 9.686 2.65 1.607 7.23.767 10.208.767h138.88c13.296 0 32.825 5.198 37.333-10.453H440.697m8.213 14.933c7.023 12.326 23.318 8.214 35.84 8.214h101.547c12.864 0 30.876 4.429 38.08-8.214H448.91m12.694 14.934c6.571 9.296 21.145 5.973 31.36 5.973h85.866c10.454 0 26.14 3.525 32.854-5.973h-150.08m18.666 14.933v.747c7.842 4.728 17.996 2.986 26.88 2.986h58.24c8.884 0 19.925 2.025 27.627-2.986-8.731-3.664-24.096-.747-33.6-.747H480.27m36.587 14.187v.746a108.014 108.014 0 0 0 39.573 0l-12.693-.746h-26.88" style="fill:#f8f9fa;fill-rule:nonzero" transform="translate(-933.208 -878.248) scale(2.20393)"/>
  <path d="M1093.98 316.794c10.05-20.172 26.44-18.405 56.98-36.383 72.95-42.935 200.2-113.123 298.76-166.77 27.26-14.832 50.22-43.145 73.43-39.777 23.21 3.367 38.84 26.762 65.81 59.982 137.27 182.036 278.77 344.311 438.65 563.743 19.63 26.953 52.99 55.419 59.77 83.588 6.77 28.168-12.77 57.508-19.12 85.421-62.39 274.342-122.58 495.582-181.9 696.172 122-57.72 231.38-104.5 306.49-121.58 33.04-7.51 67.91-13.68 77.38-3.69 9.48 9.99-13.74 42.38-20.54 63.61-64.88 202.64-127.92 411.86-267.91 736.37-63.5 147.21-56.29 242.31-97.91 305.51-80.76 122.62-313.89 149.89-453.45 142.31-168.53-9.15-467.11-55.87-546.037-144.66-160.121-180.15-179.748-451.47-324.943-903.59 0 0-46.606-106.36-29.376-157.46 37.993-112.66 151.802-455.61 208.041-604.027 12.691-33.492 12.563-62.127 27.745-65.879 15.183-3.752 39.716 23.753 63.35 43.367 66.579 55.255 154.993 149.929 280.91 271.209-7.41-231.334-24.65-555.423-23.05-715.571.47-46.678-3.73-70.515 6.92-91.895Z" style="fill:#212529" transform="matrix(.18012 0 0 .18012 -2.139 10.873)"/>
  <path d="M1584.25 2629.7c40.73-6.53 50.47-42.65 67.2-76.05l101.43-202.8c102.39-204.76 206.91-408.64 309.35-613.47 43-86.06 93.57-169.63 130.59-258.57l-248.5 91.26-86.97 38.78-24.6 77.83-55.17 207.87-131.86 496.86-61.47 238.29Z" style="fill:#38d9a9" transform="matrix(.18012 0 0 .18012 2.004 10.873)"/>
  <path d="m2137.03 1615.7-361.33 719.94-135.66 278.85c37.53-5.54 116.69-22.84 141.64-53.23 43.46-53.1 62.78-156.15 86.83-220.55 58.77-157.56 120.03-314.18 179.37-471.51 21.7-57.53 43.15-115.23 65.82-172.38 9.29-23.4 28.5-56.04 23.33-81.12Z" style="fill:#38d9a9" transform="matrix(.18012 0 0 .18012 4.345 10.873)"/>
  <path d="M2015.32 921.117 1249.55 2624.63s171.35 24.15 223.14 25.34c29.81.69 87.58-18.19 87.58-18.19l34.13-108.55 77.94-294.07 247.39-937.94 71-258.57 24.59-111.533Z" style="fill:#38d9a9" transform="matrix(.18012 0 0 .18012 -.158 10.873)"/>
  <path d="M1132.9 353.285v5.068l355 166.199 542.63 254.611-147.07-192.66-226.18-288.988-91.28-116.61-42.8-41.432-106.3 52.332-284 161.48Z" style="fill:#38d9a9" transform="matrix(.18012 0 0 .18012 -2.139 6.01)"/>
  <path d="m1122.76 373.564 20.28 801.056 258.64-105 644.07-265.104-197.79-95.628-349.92-164.257-253.57-119.66-121.71-51.407Z" style="fill:#38d9a9" transform="matrix(.18012 0 0 .18012 -2.139 6.91)"/>
  <path d="m1239.4 2619.56 186.07-415.73 391.36-872.04 139.2-309.27 89.72-207.867-258.65 104.314-420.92 173.163-162.28 67.33-57.8 32.37 1.56 109.54 5.33 228.15 15.41 775.7 5.07 207.88 5.22 84.01 60.71 22.45Z" style="fill:#38d9a9" transform="matrix(.18012 0 0 .18012 -2.139 10.873)"/>
  <path d="M808.333 885.629c56.01 433.591 170.505 861.781 243.837 1292.841 17.86 104.98 38.55 209.92 59.43 314.34 7.77 38.87 5.19 89.67 46.66 106.47l-25.16-1024.13-5.27-268.71-5.21-121.66-86.08-86.21-228.207-212.941Z" style="fill:#38d9a9" transform="matrix(.18012 0 0 .18012 -3.04 10.873)"/>
  <path d="M788.048 895.763C743.444 1032.8 698.4 1169.69 652.809 1306.43c-17.601 52.8-58.528 126.65-56.06 182.52 3.005 68.05 61.522 155.63 88.446 218.01 67.033 155.32 133.235 311 199.97 466.44 41.346 96.31 82.744 192.6 123.885 288.99 24.16 56.6 36.09 105 103.57 116.61l-74.1-385.32-155.115-816.27-62.899-334.61-32.458-147.037Z" style="fill:#38d9a9" transform="matrix(.18012 0 0 .18012 -5.922 10.873)"/>
  <path d="M640.983 1651.19c48.629 210.14 124.904 416.54 185.491 623.61 35.596 121.66 62.135 229.03 199.936 268.71-69.805-205-171.38-404.44-257.218-603.33-38.176-88.45-67.809-214.25-128.209-288.99Z" style="fill:#38d9a9" transform="matrix(.18012 0 0 .18012 -9.704 10.873)"/>
</svg>
