<svg viewBox="0 0 503 684" xmlns="http://www.w3.org/2000/svg" xml:space="preserve" style="fill-rule:evenodd;clip-rule:evenodd;stroke-linejoin:round;stroke-miterlimit:2">
  <path d="M.123-.12h.013c.02 0 .04.013.059.04v.005A.303.303 0 0 1 .134 0H.132C.122-.003.118-.007.118-.012l-.003.003H.113c-.02 0-.036-.009-.05-.026v-.007c0-.016.015-.041.043-.076L.123-.12Z" style="fill:#f8f9fa;fill-rule:nonzero" transform="matrix(124.99969 0 0 124.99969 105.098 667.43)"/>
  <path d="M.413-.706h.022c.111 0 .215.034.312.102.039.038.059.075.059.11 0 .079-.083.2-.249.363a1.312 1.312 0 0 1-.262.152.755.755 0 0 0-.186.072L.063.089a.373.373 0 0 1-.098.038L-.039.123l.013-.021H-.03L-.056.11-.06.084l.008-.016h-.004l-.021.008-.004-.004V.068l.004-.013h-.004L-.098.06C-.107.06-.111.054-.111.042-.125.041-.132.036-.132.03a.14.14 0 0 1 .055-.034c.049-.037.115-.152.199-.347.05-.116.076-.183.076-.198C.147-.549.107-.583.08-.65c0-.024.111-.043.333-.056Zm-.185.567c.239-.112.358-.217.358-.317 0-.065-.052-.106-.156-.123-.021 0-.036.026-.046.076l-.156.364Z" style="fill:#f8f9fa;fill-rule:nonzero" transform="matrix(124.99969 0 0 124.99969 139.095 667.43)"/>
  <path d="M.579-.714c0 .011.005.017.016.017v.008H.583v.004c.014 0 .021.003.021.009v.004H.587c0 .009.008.013.025.013v.008H.599v.004h.05l.039.021-.005.004v.004c.014 0 .021.003.021.009 0 .01-.052.021-.155.033a.708.708 0 0 0-.201.059l-.046.092h.004a.666.666 0 0 1 .13-.013l.008.013-.012.005v.003c.022 0 .033.003.033.009l-.021.009v.003h.009l-.004.013c0 .014.011.025.033.034v.004l-.004.004v.004c.014 0 .021.003.021.009v.004c0 .008-.088.031-.264.067-.022 0-.05.042-.084.126l.302-.051v.009h.004l.021-.005c.004.014.011.021.021.021v.013c-.007 0-.014.004-.021.013H.469v.004h.026v.008H.474l.004.004v.005l-.004.004c.041 0 .063.007.067.021l-.004.004c.014.002.021.006.021.013a1.08 1.08 0 0 1-.252.062C.139.022.055.048.055.07.051.084.038.097.017.107H.013L-.012.086h-.009l-.021.005c0-.007-.014-.014-.041-.021l-.013.004L-.101.07V.065l.005-.012h-.008l-.005.004h-.004L-.117.053V.049c.023-.083.126-.318.31-.704 0-.028.019-.045.058-.051l.164.005.164-.013Z" style="fill:#f8f9fa;fill-rule:nonzero" transform="matrix(124.99969 0 0 124.99969 231.746 667.43)"/>
  <path d="m.815-.736.01.024H.83l.004-.005h.005l.004.005-.004.004v.005l.009.009c0 .012-.062.091-.186.237a4.327 4.327 0 0 0-.34.48C.308.072.287.097.257.097H.238a.179.179 0 0 1-.135-.06l.009-.042-.097-.512-.037-.172v-.005c.015-.025.034-.037.055-.037.042 0 .082.016.121.046.032.023.047.063.047.122.004 0 .023.112.056.334h.005l.111-.144C.404-.398.421-.42.424-.438h.005l.005.005h.004L.48-.475l.005.004v-.004L.48-.489l.014-.01h.005l.004.024.01-.009-.005-.019h.005L.508-.517C.517-.538.526-.55.536-.554h.005l.004.004H.55l.01-.009v.009l-.005.005v.004H.56l.051-.064h.004v.004l-.032.042v.028l.051-.056.005.005h.004v-.009h.005L.639-.615.643-.62h.005l.004.005h.005l.047-.037.004.005v.004L.685-.62v.005h.009a.546.546 0 0 1 .121-.121Z" style="fill:#f8f9fa;fill-rule:nonzero" transform="matrix(124.99969 0 0 124.99969 301.996 667.43)"/>
  <path d="M.58-.701h.032c.079 0 .135.023.169.068v.041c0 .058-.022.087-.064.087a.355.355 0 0 0-.1-.014C.393-.519.24-.412.156-.2l-.009.046v.014c0 .046.03.075.091.086a.673.673 0 0 0 .151.014h.082v.009H.452v.005c.007 0 .015.006.023.018h.004v.013L.43.01v.005h.008L.43.042h.008v.009H.43v.005c.012 0 .018.006.018.018h.009L.452.069V.065L.457.06h.027v.009l.005.005-.005.005H.471v.004l.008.009h.014L.489.087V.083L.502.079l.014.004C.516.11.41.124.197.124c-.134 0-.228-.065-.282-.196v-.059c0-.141.095-.292.287-.452A.644.644 0 0 1 .58-.701Zm-.101.679h.028v.009H.479v-.009Z" style="fill:#38d9a9;fill-rule:nonzero" transform="matrix(62.99984 0 0 62.99984 5.383 557.807)"/>
  <path d="M.398-.744h.038c.19 0 .302.063.336.187l.004.026v.013c0 .037-.085.1-.255.187.043.181.064.307.064.378l.004.005v.004L.585.069l.004.038-.004.004H.577C.577.1.574.094.568.094.568.103.565.107.56.107H.551L.547.103H.542C.538.114.534.12.53.12L.508.115.5.124C.498.11.491.103.479.103A2.315 2.315 0 0 1 .36-.263l-.192.064c-.017.04-.031.062-.042.068L.122-.11H.109l.017-.047v-.004H.122L.1-.114l.009.009c-.011 0-.032.029-.064.088C.041-.016.033.002.02.039c-.006 0-.02.028-.043.085h-.004C-.027.111-.042.1-.07.09l-.008.009C-.078.093-.083.09-.091.09l-.013.004C-.11.079-.119.07-.129.069V.056c0-.069.078-.259.233-.57C.045-.555.015-.587.015-.612v-.021c.002-.015.055-.04.157-.076.015-.023.09-.035.226-.035Zm-.136.336h.009c.17-.073.273-.131.31-.174v-.004L.496-.59H.487c-.107 0-.161.012-.161.038a.936.936 0 0 1-.064.144Z" style="fill:#38d9a9;fill-rule:nonzero" transform="matrix(62.99984 0 0 62.99984 47.79 557.807)"/>
  <path d="M.638-.73h.005c.031 0 .062.029.094.089l.005.005v.022c0 .014-.024.026-.071.036v.004a.41.41 0 0 1 .108.251v.022c0 .193-.083.317-.249.372a.56.56 0 0 1-.14.022H.338C.192.093.087.019.023-.13.014-.132.008-.159.004-.211v-.032c0-.144.105-.275.315-.393A.796.796 0 0 1 .638-.73Zm-.46.528v.004c0 .052.033.082.099.09h.037c.102 0 .196-.059.282-.175a.385.385 0 0 0 .028-.121C.621-.445.617-.471.61-.48l.005-.013C.606-.538.6-.561.596-.561c-.092.013-.198.073-.319.18-.066.063-.099.123-.099.179Z" style="fill:#38d9a9;fill-rule:nonzero" transform="matrix(62.99984 0 0 62.99984 86.626 557.807)"/>
  <path d="M.61-.751h.01c.013 0 .032.011.054.032l.005.004h.004l-.004.018.004.055c-.005.048-.021.073-.05.073H.606c-.119 0-.267.041-.445.122v.009h.005c.22.018.341.049.363.091.021.012.032.034.032.064-.009.099-.021.149-.037.149a.903.903 0 0 1-.227.123 6.642 6.642 0 0 1-.513.145L-.22.13V.125l.032-.013V.103l-.05.009V.107c0-.007.007-.011.022-.014V.084h-.013V.075h.009V.071L-.248.062l.005-.005V.043C-.255.043-.261.039-.261.03l-.005.004h-.009V.03l.004-.005V.021h-.008c0-.006-.005-.009-.014-.009V.007c0-.015.123-.057.368-.127.162-.056.256-.094.281-.113C.099-.25-.03-.278-.03-.315a.098.098 0 0 1-.045-.086c0-.035.018-.076.054-.123.222-.151.432-.227.631-.227Zm-.812.808v.005h.009V.057h-.009Z" style="fill:#38d9a9;fill-rule:nonzero" transform="matrix(62.99984 0 0 62.99984 135.646 557.807)"/>
  <path d="M.61-.751h.01c.013 0 .032.011.054.032l.005.004h.004l-.004.018.004.055c-.005.048-.021.073-.05.073H.606c-.119 0-.267.041-.445.122v.009h.005c.22.018.341.049.363.091.021.012.032.034.032.064-.009.099-.021.149-.037.149a.903.903 0 0 1-.227.123 6.642 6.642 0 0 1-.513.145L-.22.13V.125l.032-.013V.103l-.05.009V.107c0-.007.007-.011.022-.014V.084h-.013V.075h.009V.071L-.248.062l.005-.005V.043C-.255.043-.261.039-.261.03l-.005.004h-.009V.03l.004-.005V.021h-.008c0-.006-.005-.009-.014-.009V.007c0-.015.123-.057.368-.127.162-.056.256-.094.281-.113C.099-.25-.03-.278-.03-.315a.098.098 0 0 1-.045-.086c0-.035.018-.076.054-.123.222-.151.432-.227.631-.227Zm-.812.808v.005h.009V.057h-.009Z" style="fill:#38d9a9;fill-rule:nonzero" transform="matrix(62.99984 0 0 62.99984 168.392 557.807)"/>
  <path d="M.25-.704h.027c.054 0 .096.024.126.072v.018a1.1 1.1 0 0 1-.086.153L.12-.052a.288.288 0 0 1-.055.081L.061.024H.057l-.01.022H.039L.047.015l-.049.081h-.004L-.011.092V.087l.005-.004V.074h-.005l-.018.04h-.009V.109l.009-.022-.072.059-.013-.009.004-.005V.119l-.014.008-.008-.008c0-.04.108-.296.323-.769.013-.036.033-.054.059-.054Zm-.086.585v.007h.003v-.007H.164Z" style="fill:#38d9a9;fill-rule:nonzero" transform="matrix(62.99984 0 0 62.99984 201.139 557.807)"/>
  <path d="M.733-.732h.031c.039 0 .071.017.096.052v.013l-.167.431a1.737 1.737 0 0 0-.123.32L.557.098H.544L.526.084.522.089H.5L.478.076.434.08.399.041V.01A.34.34 0 0 1 .43-.083L.316-.354.281-.46H.276l-.175.369a.474.474 0 0 0-.044.145l.004.004v.005C.056.086.05.098.043.098H.03L-.014.071h-.008L-.04.076-.053.071-.062.08-.066.076h-.005L-.075.08l-.04-.053V.01c0-.053.069-.214.207-.483l.105-.224C.213-.71.263-.719.346-.724c.02 0 .041.015.062.044v.005c0 .083.038.206.114.368.041-.07.086-.19.136-.36.01-.038.028-.057.053-.057 0-.005.007-.008.022-.008Z" style="fill:#38d9a9;fill-rule:nonzero" transform="matrix(62.99984 0 0 62.99984 220.719 557.807)"/>
  <path d="M.612-.705h.014c.082 0 .139.035.171.106-.007.065-.018.098-.032.098H.76a.33.33 0 0 1-.097-.028l-.092-.01c-.168 0-.31.07-.425.208a.358.358 0 0 0-.075.218c0 .043.033.065.097.065.04 0 .095-.013.167-.037V-.09H.33l-.134.009C.196-.089.184-.1.159-.113l.005-.005v-.005H.136v-.009l.028-.004v-.005L.127-.146v-.009h.014v-.004H.118v-.005l.009-.014c-.022 0-.033-.003-.033-.009 0-.021.19-.064.569-.129.036 0 .062.021.079.064l.005.014c0 .032-.022.066-.065.102 0 .03-.077.092-.231.185a.442.442 0 0 1-.213.06H.196c-.138 0-.231-.071-.278-.213l-.004-.042v-.027c0-.112.086-.246.259-.403a.766.766 0 0 1 .439-.129Z" style="fill:#38d9a9;fill-rule:nonzero" transform="matrix(62.99984 0 0 62.99984 267.893 557.807)"/>
  <path d="M.247-.729h.021c.045 0 .082.024.111.072l.004.017a.804.804 0 0 1-.094.213.798.798 0 0 0-.098.354v.012A.62.62 0 0 0 .37-.235c.108-.138.172-.237.192-.299l.025-.055C.596-.589.6-.593.6-.602l.004-.004h.009v.017h.004c.008-.048.015-.072.022-.072h.004v.017h.004v-.034h.009v.012c.01-.005.023-.026.038-.063h.004c.029.026.043.067.043.123 0 .188-.121.401-.362.639a.29.29 0 0 1-.158.043C.112.076.04.036.003-.043l-.008-.052v-.021c0-.112.023-.211.068-.298l.111-.26c.024-.037.048-.055.073-.055Z" style="fill:#38d9a9;fill-rule:nonzero" transform="matrix(62.99984 0 0 62.99984 312.758 557.807)"/>
  <path d="M.439-.71c.078 0 .126.023.144.07.01.041.022.123.037.246l.004.004c.002.02.006.029.012.029l.132-.016v.008h.004l.065-.004v.008l-.028.008v.004h.028l.029-.004v.008a.2.2 0 0 1-.065.017v.008l.02-.004c.019.005.029.011.029.016l.021-.004c.054.002.082.007.082.017l-.005.004.029.008v.008a.807.807 0 0 1-.23.05l-.074.012c.036.139.054.234.054.283v.017L.714.095H.71A.043.043 0 0 1 .682.083v.012H.673V.087L.661.095.645.083.604.099.57.066a1.215 1.215 0 0 1-.061-.242H.505c-.173.047-.259.084-.259.111a.824.824 0 0 0-.099.127C.129.084.113.095.102.095L.094.075.09.079H.086C.069.069.061.058.061.046L.057.05H.049V.042C.037.042.027.033.016.017.005.017 0 .014 0 .009V-.02c0-.031.032-.081.098-.152.028-.046.073-.111.136-.193l.14-.246.028-.083C.417-.705.429-.71.439-.71Zm-.033.398v.004c.047-.012.07-.02.07-.024L.464-.398a.322.322 0 0 0-.058.086Zm.382-.069h.008v.008H.788v-.008Zm.004.028v.004h.009v-.004H.792Z" style="fill:#38d9a9;fill-rule:nonzero" transform="matrix(62.99984 0 0 62.99984 358.302 557.807)"/>
  <path d="M.398-.744h.038c.19 0 .302.063.336.187l.004.026v.013c0 .037-.085.1-.255.187.043.181.064.307.064.378l.004.005v.004L.585.069l.004.038-.004.004H.577C.577.1.574.094.568.094.568.103.565.107.56.107H.551L.547.103H.542C.538.114.534.12.53.12L.508.115.5.124C.498.11.491.103.479.103A2.315 2.315 0 0 1 .36-.263l-.192.064c-.017.04-.031.062-.042.068L.122-.11H.109l.017-.047v-.004H.122L.1-.114l.009.009c-.011 0-.032.029-.064.088C.041-.016.033.002.02.039c-.006 0-.02.028-.043.085h-.004C-.027.111-.042.1-.07.09l-.008.009C-.078.093-.083.09-.091.09l-.013.004C-.11.079-.119.07-.129.069V.056c0-.069.078-.259.233-.57C.045-.555.015-.587.015-.612v-.021c.002-.015.055-.04.157-.076.015-.023.09-.035.226-.035Zm-.136.336h.009c.17-.073.273-.131.31-.174v-.004L.496-.59H.487c-.107 0-.161.012-.161.038a.936.936 0 0 1-.064.144Z" style="fill:#38d9a9;fill-rule:nonzero" transform="matrix(62.99984 0 0 62.99984 405.045 557.807)"/>
  <path d="M.413-.706h.022c.111 0 .215.034.312.102.039.038.059.075.059.11 0 .079-.083.2-.249.363a1.312 1.312 0 0 1-.262.152.755.755 0 0 0-.186.072L.063.089a.373.373 0 0 1-.098.038L-.039.123l.013-.021H-.03L-.056.11-.06.084l.008-.016h-.004l-.021.008-.004-.004V.068l.004-.013h-.004L-.098.06C-.107.06-.111.054-.111.042-.125.041-.132.036-.132.03a.14.14 0 0 1 .055-.034c.049-.037.115-.152.199-.347.05-.116.076-.183.076-.198C.147-.549.107-.583.08-.65c0-.024.111-.043.333-.056Zm-.185.567c.239-.112.358-.217.358-.317 0-.065-.052-.106-.156-.123-.021 0-.036.026-.046.076l-.156.364Z" style="fill:#38d9a9;fill-rule:nonzero" transform="matrix(62.99984 0 0 62.99984 443.882 557.807)"/>
  <path d="M1000 500C1000 224.042 775.958 0 500 0 224.042 0 0 224.042 0 500c0 275.958 224.042 500 500 500 275.958 0 500-224.042 500-500Z" style="fill:#212529" transform="matrix(.5 0 0 .5 2.495 0)"/>
  <path d="M524.324 406.709c-50.698 6.901-93.334 49.392-93.334 101.976 0 11.75.556 23.063 4.234 34.347.967 2.971 1.779 8.511 4.464 10.432 2.983 2.135 10.168.768 13.702.768h131.414c14.959 0 32.239 2.432 46.961-.11 5.145-.889 6.943-12.771 8.012-17.063 4.72-18.969 3.708-39.73-2.458-58.24-15.523-46.606-63.539-78.842-112.995-72.11m-83.627 149.763c.915 3.176 2.478 7.871 5.472 9.686 2.65 1.607 7.23.767 10.208.767h138.88c13.296 0 32.825 5.198 37.333-10.453H440.697m8.213 14.933c7.023 12.326 23.318 8.214 35.84 8.214h101.547c12.864 0 30.876 4.429 38.08-8.214H448.91m12.694 14.934c6.571 9.296 21.145 5.973 31.36 5.973h85.866c10.454 0 26.14 3.525 32.854-5.973h-150.08m18.666 14.933v.747c7.842 4.728 17.996 2.986 26.88 2.986h58.24c8.884 0 19.925 2.025 27.627-2.986-8.731-3.664-24.096-.747-33.6-.747H480.27m36.587 14.187v.746a108.014 108.014 0 0 0 39.573 0l-12.693-.746h-26.88" style="fill:#f8f9fa;fill-rule:nonzero" transform="translate(-930.713 -878.248) scale(2.20393)"/>
  <path d="M1093.98 316.794c10.05-20.172 26.44-18.405 56.98-36.383 72.95-42.935 200.2-113.123 298.76-166.77 27.26-14.832 50.22-43.145 73.43-39.777 23.21 3.367 38.84 26.762 65.81 59.982 137.27 182.036 278.77 344.311 438.65 563.743 19.63 26.953 52.99 55.419 59.77 83.588 6.77 28.168-12.77 57.508-19.12 85.421-62.39 274.342-122.58 495.582-181.9 696.172 122-57.72 231.38-104.5 306.49-121.58 33.04-7.51 67.91-13.68 77.38-3.69 9.48 9.99-13.74 42.38-20.54 63.61-64.88 202.64-127.92 411.86-267.91 736.37-63.5 147.21-56.29 242.31-97.91 305.51-80.76 122.62-313.89 149.89-453.45 142.31-168.53-9.15-467.11-55.87-546.037-144.66-160.121-180.15-179.748-451.47-324.943-903.59 0 0-46.606-106.36-29.376-157.46 37.993-112.66 151.802-455.61 208.041-604.027 12.691-33.492 12.563-62.127 27.745-65.879 15.183-3.752 39.716 23.753 63.35 43.367 66.579 55.255 154.993 149.929 280.91 271.209-7.41-231.334-24.65-555.423-23.05-715.571.47-46.678-3.73-70.515 6.92-91.895Z" style="fill:#212529" transform="matrix(.18012 0 0 .18012 .356 10.874)"/>
  <path d="M1584.25 2629.7c40.73-6.53 50.47-42.65 67.2-76.05l101.43-202.8c102.39-204.76 206.91-408.64 309.35-613.47 43-86.06 93.57-169.63 130.59-258.57l-248.5 91.26-86.97 38.78-24.6 77.83-55.17 207.87-131.86 496.86-61.47 238.29Z" style="fill:#38d9a9" transform="matrix(.18012 0 0 .18012 4.499 10.874)"/>
  <path d="m2137.03 1615.7-361.33 719.94-135.66 278.85c37.53-5.54 116.69-22.84 141.64-53.23 43.46-53.1 62.78-156.15 86.83-220.55 58.77-157.56 120.03-314.18 179.37-471.51 21.7-57.53 43.15-115.23 65.82-172.38 9.29-23.4 28.5-56.04 23.33-81.12Z" style="fill:#38d9a9" transform="matrix(.18012 0 0 .18012 6.84 10.874)"/>
  <path d="M2015.32 921.117 1249.55 2624.63s171.35 24.15 223.14 25.34c29.81.69 87.58-18.19 87.58-18.19l34.13-108.55 77.94-294.07 247.39-937.94 71-258.57 24.59-111.533Z" style="fill:#38d9a9" transform="matrix(.18012 0 0 .18012 2.337 10.874)"/>
  <path d="M1132.9 353.285v5.068l355 166.199 542.63 254.611-147.07-192.66-226.18-288.988-91.28-116.61-42.8-41.432-106.3 52.332-284 161.48Z" style="fill:#38d9a9" transform="matrix(.18012 0 0 .18012 .356 6.01)"/>
  <path d="m1122.76 373.564 20.28 801.056 258.64-105 644.07-265.104-197.79-95.628-349.92-164.257-253.57-119.66-121.71-51.407Z" style="fill:#38d9a9" transform="matrix(.18012 0 0 .18012 .356 6.91)"/>
  <path d="m1239.4 2619.56 186.07-415.73 391.36-872.04 139.2-309.27 89.72-207.867-258.65 104.314-420.92 173.163-162.28 67.33-57.8 32.37 1.56 109.54 5.33 228.15 15.41 775.7 5.07 207.88 5.22 84.01 60.71 22.45Z" style="fill:#38d9a9" transform="matrix(.18012 0 0 .18012 .356 10.874)"/>
  <path d="M808.333 885.629c56.01 433.591 170.505 861.781 243.837 1292.841 17.86 104.98 38.55 209.92 59.43 314.34 7.77 38.87 5.19 89.67 46.66 106.47l-25.16-1024.13-5.27-268.71-5.21-121.66-86.08-86.21-228.207-212.941Z" style="fill:#38d9a9" transform="matrix(.18012 0 0 .18012 -.545 10.874)"/>
  <path d="M788.048 895.763C743.444 1032.8 698.4 1169.69 652.809 1306.43c-17.601 52.8-58.528 126.65-56.06 182.52 3.005 68.05 61.522 155.63 88.446 218.01 67.033 155.32 133.235 311 199.97 466.44 41.346 96.31 82.744 192.6 123.885 288.99 24.16 56.6 36.09 105 103.57 116.61l-74.1-385.32-155.115-816.27-62.899-334.61-32.458-147.037Z" style="fill:#38d9a9" transform="matrix(.18012 0 0 .18012 -3.427 10.874)"/>
  <path d="M640.983 1651.19c48.629 210.14 124.904 416.54 185.491 623.61 35.596 121.66 62.135 229.03 199.936 268.71-69.805-205-171.38-404.44-257.218-603.33-38.176-88.45-67.809-214.25-128.209-288.99Z" style="fill:#38d9a9" transform="matrix(.18012 0 0 .18012 -7.21 10.874)"/>
</svg>
