<?xml version="1.0" standalone="no"?>
<!DOCTYPE svg PUBLIC "-//W3C//DTD SVG 20010904//EN"
 "http://www.w3.org/TR/2001/REC-SVG-20010904/DTD/svg10.dtd">
<svg version="1.0" xmlns="http://www.w3.org/2000/svg"
 width="700.000000pt" height="700.000000pt" viewBox="0 0 700.000000 700.000000"
 preserveAspectRatio="xMidYMid meet">
<metadata>
Created by potrace 1.14, written by Peter Selinger 2001-2017
</metadata>
<g transform="translate(0.000000,700.000000) scale(0.100000,-0.100000)"
fill="#000000" stroke="none">
<path d="M3215 6989 c-1536 -126 -2805 -1236 -3135 -2741 -55 -251 -74 -432
-74 -728 -1 -282 9 -402 50 -630 146 -796 546 -1497 1153 -2023 1146 -990
2790 -1131 4086 -351 621 373 1125 952 1410 1620 354 827 372 1769 52 2614
-64 170 -203 450 -297 600 -649 1034 -1779 1658 -2985 1648 -88 0 -205 -4
-260 -9z m745 -248 c690 -107 1318 -429 1826 -936 526 -524 836 -1149 941
-1895 14 -97 17 -191 17 -425 0 -260 -3 -319 -22 -445 -31 -196 -112 -546
-151 -646 -38 -99 -95 -169 -149 -183 -129 -34 -543 -46 -914 -27 l-167 8 45
127 c25 69 90 266 145 436 54 171 113 342 131 382 39 90 35 103 -34 103 -136
0 -422 -98 -802 -275 -54 -25 -100 -44 -102 -42 -2 2 17 73 42 158 116 398
252 917 354 1349 32 135 70 284 85 331 34 110 27 139 -53 235 -32 38 -125 159
-208 269 -158 211 -305 399 -594 760 -97 121 -237 299 -311 395 -211 272 -221
277 -355 187 -44 -30 -180 -109 -304 -177 -124 -67 -286 -158 -360 -200 -74
-43 -168 -94 -207 -114 -108 -54 -104 -38 -103 -414 0 -174 2 -362 5 -417 13
-252 46 -1184 43 -1219 l-3 -39 -290 285 c-317 312 -508 485 -543 494 -32 9
-50 -11 -68 -75 -9 -31 -56 -166 -104 -301 -48 -135 -170 -488 -270 -785 -169
-496 -183 -545 -182 -605 1 -67 25 -160 87 -340 38 -111 145 -470 145 -487 0
-13 -909 -23 -964 -11 -95 21 -124 69 -200 335 -89 311 -109 442 -127 811 -25
532 40 950 216 1383 175 430 466 842 818 1157 492 441 1060 721 1702 837 215
39 288 44 580 40 213 -2 298 -7 405 -24z m-88 -248 c74 -76 1137 -1432 1192
-1521 4 -8 -14 -2 -40 11 -27 14 -517 244 -1089 512 -572 268 -1057 496 -1079
507 l-39 20 334 190 c275 157 626 345 649 347 3 1 35 -29 72 -66z m-842 -631
c28 -10 1517 -710 1795 -844 151 -72 275 -134 275 -138 0 -9 -2250 -935 -2250
-927 -2 29 -50 1927 -50 1959 l0 47 108 -46 c59 -25 114 -47 122 -51z m2077
-1084 c-27 -69 -246 -570 -322 -738 -152 -335 -1396 -3108 -1550 -3455 -76
-171 -141 -313 -145 -318 -3 -4 -38 5 -77 19 l-70 26 -7 51 c-10 87 -24 695
-73 3158 l-6 326 68 38 c80 45 135 69 1040 440 925 380 1128 463 1139 464 4 1
6 -5 3 -11z m-2799 -457 c163 -153 337 -319 385 -368 l88 -90 10 -319 c5 -175
23 -890 39 -1589 16 -698 33 -1355 36 -1459 l7 -188 -22 12 c-31 16 -59 66
-71 125 -36 182 -138 729 -185 990 -60 340 -125 667 -299 1505 -130 627 -208
1046 -260 1391 -37 244 -40 269 -30 269 3 0 139 -126 302 -279z m-364 69 c20
-91 81 -406 136 -700 97 -515 489 -2576 586 -3078 26 -133 44 -245 41 -248
-12 -13 -110 42 -142 78 -25 30 -143 296 -460 1037 -235 548 -476 1098 -536
1223 -134 276 -159 361 -141 470 7 39 31 118 54 177 23 58 125 357 227 663
102 306 189 554 192 550 4 -4 23 -81 43 -172z m3086 -30 c-16 -69 -67 -267
-115 -440 -47 -173 -246 -920 -441 -1659 -462 -1749 -466 -1765 -512 -1910
l-40 -125 -63 -19 c-91 -28 -230 -26 -489 8 -118 15 -217 29 -219 31 -2 1 426
957 950 2123 524 1166 954 2119 955 2118 1 -1 -10 -58 -26 -127z m499 -1268
c-12 -36 -121 -250 -281 -557 -69 -132 -351 -690 -627 -1240 -361 -718 -511
-1008 -533 -1027 -28 -24 -68 -43 -68 -31 0 23 575 2197 637 2404 l46 157 111
48 c91 40 694 269 718 273 4 1 3 -12 -3 -27z m-94 -358 c-3 -20 -26 -84 -50
-143 -37 -91 -408 -1060 -578 -1511 -30 -80 -80 -226 -112 -325 -86 -272 -135
-359 -226 -406 -41 -20 -182 -63 -241 -72 l-36 -5 154 316 c188 386 1088 2182
1093 2182 2 0 0 -16 -4 -36z m-3866 -194 c27 -52 79 -176 115 -275 91 -247
121 -319 264 -635 202 -448 281 -627 340 -770 60 -147 152 -391 152 -402 0 -4
-24 1 -52 13 -216 84 -313 221 -428 609 -34 113 -115 374 -180 580 -140 443
-205 659 -259 870 -46 176 -39 178 48 10z m23 -540 c20 -74 40 -147 43 -162
l7 -28 -435 0 c-442 0 -472 2 -525 39 -48 34 -142 212 -142 270 l0 21 507 -2
507 -3 38 -135z m4842 118 c-46 -152 -164 -256 -344 -305 -74 -21 -342 -23
-691 -7 l-197 9 57 150 c31 83 60 156 64 163 6 9 130 12 563 12 l555 0 -7 -22z
m-4758 -449 c3 -6 21 -63 39 -128 l32 -116 -41 -8 c-23 -5 -140 -9 -261 -9
-174 -2 -236 2 -295 15 -92 21 -201 72 -259 123 -43 38 -101 109 -101 126 0
13 877 10 886 -3z m4504 -3 c0 -7 -27 -43 -61 -79 -105 -115 -246 -170 -471
-184 -111 -6 -598 15 -598 27 0 5 45 121 85 218 l14 32 515 0 c428 0 516 -2
516 -14z m-4373 -458 c16 -20 66 -178 59 -185 -3 -4 -75 -6 -159 -6 -173 1
-266 16 -363 62 -59 28 -164 112 -164 132 0 5 139 9 309 9 235 0 311 -3 318
-12z m3983 3 c0 -4 -23 -29 -50 -55 -128 -120 -324 -160 -674 -137 -93 6 -171
12 -173 14 -4 4 43 139 59 170 8 16 39 17 423 17 228 0 415 -4 415 -9z m-766
-432 c50 -6 115 -19 145 -28 l56 -17 -53 -28 c-72 -36 -187 -65 -294 -73 -65
-4 -88 -3 -88 6 0 7 7 43 16 82 l16 69 56 0 c31 0 97 -5 146 -11z m-3005 -74
c17 -30 31 -57 31 -61 0 -17 -169 26 -247 63 -87 41 -72 53 66 53 l119 0 31
-55z"/>
</g>
</svg>
