<?xml version="1.0" standalone="no"?>
<!DOCTYPE svg PUBLIC "-//W3C//DTD SVG 20010904//EN"
 "http://www.w3.org/TR/2001/REC-SVG-20010904/DTD/svg10.dtd">
<svg version="1.0" xmlns="http://www.w3.org/2000/svg"
 width="700.000000pt" height="700.000000pt" viewBox="0 0 700.000000 700.000000"
 preserveAspectRatio="xMidYMid meet">
<metadata>
Created by potrace 1.14, written by Peter Selinger 2001-2017
</metadata>
<g transform="translate(0.000000,700.000000) scale(0.100000,-0.100000)"
fill="#000000" stroke="none">
<path d="M3295 6990 c-864 -54 -1656 -411 -2265 -1020 -568 -568 -916 -1293
-1006 -2095 -11 -96 -17 -230 -17 -375 0 -431 68 -815 214 -1212 318 -865 989
-1587 1831 -1969 662 -301 1408 -388 2123 -249 1194 234 2195 1090 2609 2234
143 392 208 771 208 1196 0 425 -65 804 -208 1196 -349 964 -1125 1739 -2089
2089 -443 160 -943 234 -1400 205z m540 -231 c1195 -128 2265 -950 2708 -2080
169 -429 248 -924 219 -1371 -15 -229 -31 -340 -89 -598 -68 -304 -120 -438
-193 -490 -52 -37 -212 -53 -540 -54 -162 -1 -361 3 -442 8 l-147 8 54 157
c30 86 95 284 145 441 51 157 105 316 122 353 16 38 27 75 24 83 -13 35 -213
1 -406 -69 -106 -39 -305 -122 -454 -192 -54 -25 -101 -44 -103 -41 -3 2 29
123 71 268 110 385 206 749 291 1112 42 177 90 364 106 417 47 155 40 194 -56
300 -18 20 -101 128 -185 240 -165 220 -266 348 -570 729 -107 135 -264 334
-349 442 -87 113 -168 207 -187 219 -46 28 -80 21 -158 -34 -33 -24 -158 -97
-276 -162 -118 -65 -298 -165 -400 -223 -102 -58 -204 -113 -227 -123 -78 -33
-78 -37 -76 -414 2 -181 9 -503 18 -715 8 -212 20 -510 26 -663 6 -153 8 -281
5 -284 -3 -4 -140 126 -304 288 -324 322 -511 489 -547 489 -31 0 -39 -13 -63
-95 -11 -38 -60 -182 -110 -320 -170 -474 -435 -1269 -440 -1322 -5 -63 18
-174 65 -303 26 -72 126 -399 169 -551 4 -15 -40 -17 -468 -21 -577 -6 -568
-8 -627 110 -25 49 -122 381 -145 497 -66 327 -84 856 -41 1179 66 501 250
965 549 1385 332 468 815 864 1346 1107 551 251 1133 353 1685 293z m21 -235
c49 -40 876 -1092 1208 -1537 l29 -37 -64 29 c-35 15 -399 186 -809 378 -410
193 -892 419 -1072 503 -180 84 -325 157 -322 161 16 27 940 535 977 538 5 1
29 -15 53 -35z m-883 -633 c163 -69 1317 -610 1865 -874 181 -87 288 -143 280
-148 -46 -26 -2259 -931 -2264 -926 -3 3 -54 1889 -54 1985 0 17 2 32 5 32 3
0 78 -31 168 -69z m2125 -1173 c-110 -261 -270 -622 -588 -1328 -287 -638
-1266 -2821 -1387 -3093 -14 -31 -27 -57 -28 -57 -9 0 -142 53 -148 59 -15 15
-28 424 -53 1671 -13 696 -27 1402 -31 1570 l-6 305 74 40 c85 46 194 92 1054
445 950 390 1119 458 1132 459 8 1 1 -26 -19 -71z m-2771 -410 c175 -163 350
-330 389 -370 l72 -73 6 -80 c3 -44 11 -289 16 -545 6 -256 24 -1022 41 -1704
16 -681 28 -1241 25 -1244 -3 -2 -21 11 -40 30 -32 32 -66 114 -66 160 0 10
-22 132 -50 271 -27 138 -81 428 -119 642 -67 372 -145 765 -335 1683 -105
502 -183 928 -230 1247 -20 132 -38 250 -40 263 -2 12 0 21 5 20 4 -2 151
-137 326 -300z m-381 106 c19 -87 82 -409 140 -714 159 -842 433 -2285 539
-2836 52 -270 95 -498 95 -507 0 -12 -6 -14 -28 -8 -73 21 -134 74 -170 146
-11 22 -214 494 -452 1050 -238 556 -467 1080 -510 1165 -169 338 -175 409
-56 699 24 58 121 340 215 626 94 286 174 526 177 534 2 8 7 12 9 9 3 -3 21
-76 41 -164z m3103 -42 c-16 -72 -63 -255 -105 -405 -41 -149 -257 -963 -480
-1807 -368 -1395 -436 -1649 -505 -1878 l-22 -72 -49 -15 c-85 -25 -168 -36
-221 -31 -204 21 -503 60 -510 66 -4 3 418 953 939 2111 520 1157 952 2119
960 2138 8 19 16 32 18 30 2 -2 -9 -64 -25 -137z m502 -1274 c-25 -63 -97
-211 -169 -344 -124 -233 -254 -488 -767 -1509 -263 -522 -484 -959 -491 -969
-17 -25 -65 -56 -86 -56 -19 0 -7 48 353 1410 235 886 303 1134 321 1156 15
20 197 96 518 215 173 65 318 118 322 118 4 1 4 -9 -1 -21z m-155 -526 c-52
-131 -484 -1262 -586 -1536 -27 -72 -72 -205 -100 -295 -83 -265 -135 -358
-229 -406 -79 -39 -281 -93 -281 -75 0 14 322 667 788 1597 361 721 458 906
460 883 2 -19 -17 -81 -52 -168z m-3811 -57 c29 -60 77 -173 105 -250 92 -254
131 -346 322 -770 105 -231 219 -490 255 -575 70 -165 183 -462 183 -479 0 -6
-14 -5 -38 3 -172 61 -305 198 -377 389 -13 37 -57 172 -96 300 -39 127 -124
401 -189 607 -144 455 -271 896 -270 935 1 24 54 -58 105 -160z m3 -497 c52
-188 56 -207 51 -213 -3 -2 -202 -5 -442 -5 -469 -1 -472 0 -528 52 -41 38
-79 104 -110 190 -16 43 -29 81 -29 83 0 3 231 5 514 5 l514 0 30 -112z m4862
96 c0 -34 -58 -132 -110 -185 -60 -61 -130 -99 -230 -126 -53 -14 -106 -18
-280 -18 -243 0 -622 15 -618 24 2 4 29 77 62 164 l58 157 559 0 c500 0 559
-2 559 -16z m-4733 -573 c18 -68 30 -128 26 -132 -15 -15 -422 -23 -513 -10
-155 22 -259 64 -343 140 -41 37 -97 107 -97 123 0 4 201 7 446 6 l447 -3 34
-124z m4483 122 c0 -22 -96 -125 -149 -161 -141 -94 -265 -117 -591 -108 -129
3 -274 9 -321 12 l-86 7 44 106 c24 58 47 116 53 129 l10 22 520 0 c286 0 520
-3 520 -7z m-4354 -555 l32 -97 -35 -7 c-56 -11 -311 3 -381 21 -35 8 -88 27
-118 41 -52 25 -164 117 -164 135 0 6 130 8 317 7 l316 -3 33 -97z m3954 88
c0 -23 -90 -96 -155 -127 -125 -59 -164 -64 -463 -63 -150 1 -276 5 -280 8 -6
7 14 72 48 152 l19 44 416 0 c351 0 415 -2 415 -14z m-661 -447 c41 -11 79
-23 84 -28 10 -10 -91 -56 -171 -76 -60 -16 -240 -36 -253 -29 -4 2 2 40 14
85 l20 82 115 -8 c63 -3 149 -15 191 -26z m-3111 -61 c28 -50 29 -53 10 -56
-55 -10 -288 70 -288 98 0 6 45 10 124 10 l124 0 30 -52z"/>
</g>
</svg>
