<?xml version="1.0" encoding="UTF-8" standalone="no"?>
<!DOCTYPE svg PUBLIC "-//W3C//DTD SVG 1.1//EN" "http://www.w3.org/Graphics/SVG/1.1/DTD/svg11.dtd">
<svg width="100%" height="100%" viewBox="0 0 2790 2790" version="1.1" xmlns="http://www.w3.org/2000/svg" xmlns:xlink="http://www.w3.org/1999/xlink" xml:space="preserve" xmlns:serif="http://www.serif.com/" style="fill-rule:evenodd;clip-rule:evenodd;stroke-linejoin:round;stroke-miterlimit:2;">
    <g id="crossinguard-logo" serif:id="crossinguard logo">
        <g id="background">
            <path id="background1" serif:id="background" d="M2789.46,1394.73C2789.46,624.958 2164.5,0 1394.73,0C624.958,0 0,624.957 0,1394.73C0,2164.5 624.957,2789.46 1394.73,2789.46C2164.5,2789.46 2789.46,2164.5 2789.46,1394.73Z" style="fill:rgb(34,39,46);"/>
            <path id="sun" d="M1240.56,101.029C617.212,185.876 92.98,708.328 92.98,1354.88C92.98,1499.35 99.82,1638.45 145.034,1777.19C156.933,1813.72 166.912,1881.84 199.926,1905.46C236.602,1931.71 324.948,1914.9 368.4,1914.9L1984.19,1914.9C2168.12,1914.9 2380.59,1944.8 2561.61,1913.54C2624.86,1902.62 2646.98,1756.53 2660.12,1703.75C2718.16,1470.52 2705.71,1215.25 2629.89,987.655C2439.03,414.617 1848.66,18.261 1240.55,101.033M212.322,1942.44C223.568,1981.5 242.792,2039.22 279.607,2061.53C312.189,2081.29 368.503,2070.97 405.115,2070.97L2112.72,2070.97C2276.2,2070.97 2516.32,2134.88 2571.75,1942.44L212.318,1942.44M313.305,2126.06C399.649,2277.61 600.008,2227.04 753.976,2227.04L2002.55,2227.04C2160.71,2227.04 2382.18,2281.5 2470.76,2126.06L313.309,2126.06M469.38,2309.67C550.179,2423.97 729.376,2383.11 854.967,2383.11L1910.75,2383.11C2039.29,2383.11 2232.14,2426.46 2314.7,2309.67L469.386,2309.67M698.902,2493.28L698.902,2502.46C795.318,2560.6 920.165,2539.18 1029.41,2539.18L1745.5,2539.18C1854.73,2539.18 1990.48,2564.07 2085.18,2502.46C1977.82,2457.41 1788.91,2493.28 1672.05,2493.28L698.902,2493.28M1148.75,2667.71L1148.75,2676.89C1309.51,2706.85 1474.56,2706.85 1635.33,2676.89L1479.26,2667.71L1148.75,2667.71" style="fill:url(#_Linear1);fill-rule:nonzero;"/>
            <path id="sun1" serif:id="sun" d="M1240.56,101.029C617.212,185.876 92.98,708.328 92.98,1354.88C92.98,1499.35 99.82,1638.45 145.034,1777.19C156.933,1813.72 166.912,1881.84 199.926,1905.46C236.602,1931.71 324.948,1914.9 368.4,1914.9L1984.19,1914.9C2168.12,1914.9 2380.59,1944.8 2561.61,1913.54C2624.86,1902.62 2646.98,1756.53 2660.12,1703.75C2718.16,1470.52 2705.71,1215.25 2629.89,987.655C2439.03,414.617 1848.66,18.261 1240.55,101.033M212.322,1942.44C223.568,1981.5 242.792,2039.22 279.607,2061.53C312.189,2081.29 368.503,2070.97 405.115,2070.97L2112.72,2070.97C2276.2,2070.97 2516.32,2134.88 2571.75,1942.44L212.318,1942.44M313.305,2126.06C399.649,2277.61 600.008,2227.04 753.976,2227.04L2002.55,2227.04C2160.71,2227.04 2382.18,2281.5 2470.76,2126.06L313.309,2126.06M469.38,2309.67C550.179,2423.97 729.376,2383.11 854.967,2383.11L1910.75,2383.11C2039.29,2383.11 2232.14,2426.46 2314.7,2309.67L469.386,2309.67M698.902,2493.28L698.902,2502.46C795.318,2560.6 920.165,2539.18 1029.41,2539.18L1745.5,2539.18C1854.73,2539.18 1990.48,2564.07 2085.18,2502.46C1977.82,2457.41 1788.91,2493.28 1672.05,2493.28L698.902,2493.28M1148.75,2667.71L1148.75,2676.89C1309.51,2706.85 1474.56,2706.85 1635.33,2676.89L1479.26,2667.71L1148.75,2667.71" style="fill:url(#_Linear2);fill-rule:nonzero;stroke:rgb(54,54,54);stroke-width:4.17px;"/>
        </g>
        <path id="crystal-blue" d="M1132.9,353.285L1132.9,358.353L1487.9,524.552L2030.53,779.163L1883.46,586.503L1657.28,297.515L1566,180.905L1523.2,139.473L1416.9,191.805L1132.9,353.285ZM1122.76,373.564L1143.04,1174.62L1401.68,1069.62L2045.75,804.516L1847.96,708.888L1498.04,544.631L1244.47,424.971L1122.76,373.564ZM1239.4,2619.56L1425.47,2203.83L1816.83,1331.79L1956.03,1022.52L2045.75,814.653L1787.1,918.967L1366.18,1092.13L1203.9,1159.46L1146.1,1191.83L1147.66,1301.37L1152.99,1529.52L1168.4,2305.22L1173.47,2513.1L1178.69,2597.11L1239.4,2619.56ZM808.333,885.624C864.342,1319.22 978.838,1747.4 1052.17,2178.47C1070.03,2283.45 1090.72,2388.39 1111.6,2492.81C1119.37,2531.68 1116.79,2582.48 1158.26,2599.28L1133.1,1575.15L1127.83,1306.44L1122.62,1184.78L1036.54,1098.57L808.333,885.629L808.333,885.624ZM788.048,895.763C743.444,1032.8 698.4,1169.69 652.809,1306.43C635.208,1359.23 594.281,1433.08 596.749,1488.95C599.754,1557 658.271,1644.58 685.195,1706.96C752.228,1862.28 818.43,2017.96 885.165,2173.4C926.511,2269.71 967.909,2366 1009.05,2462.39C1033.21,2518.99 1045.14,2567.39 1112.62,2579L1038.52,2193.68L883.405,1377.41L820.506,1042.8L788.048,895.763ZM2015.32,921.117L1249.55,2624.63L1472.69,2649.97L1560.27,2631.78L1594.4,2523.23L1672.34,2229.16L1919.73,1291.22L1990.73,1032.65L2015.32,921.113L2015.32,921.117ZM1584.25,2629.7C1624.98,2623.17 1634.72,2587.05 1651.45,2553.65L1752.88,2350.85C1855.27,2146.09 1959.79,1942.21 2062.23,1737.38C2105.23,1651.32 2155.8,1567.75 2192.82,1478.81L1944.32,1570.07L1857.35,1608.85L1832.75,1686.68L1777.58,1894.55L1645.72,2391.41L1584.25,2629.7ZM2137.03,1615.7L1775.7,2335.64L1640.04,2614.49C1677.57,2608.95 1756.73,2591.65 1781.68,2561.26C1825.14,2508.16 1844.46,2405.11 1868.51,2340.71C1927.28,2183.15 1988.54,2026.53 2047.88,1869.2C2069.58,1811.67 2091.03,1753.97 2113.7,1696.82C2122.99,1673.42 2142.2,1640.78 2137.03,1615.7ZM640.983,1651.19C689.612,1861.33 765.887,2067.73 826.474,2274.8C862.07,2396.46 888.609,2503.83 1026.41,2543.51C956.605,2338.51 855.03,2139.07 769.192,1940.18C731.016,1851.73 701.383,1725.93 640.983,1651.19Z" style="fill:rgb(17,157,164);fill-rule:nonzero;"/>
        <path d="M780.264,854.834C782.943,852.391 785.972,850.273 789.305,848.562C804.934,840.54 823.915,843.182 836.759,855.167L1064.97,1068.11C1065.33,1068.45 1065.68,1068.79 1066.03,1069.14L1099.54,1102.7L1081.1,374.619C1080.83,363.748 1084.81,353.34 1091.97,345.486C1094.23,333.618 1101.58,323.163 1112.31,317.064L1396.3,155.584C1397.02,155.175 1397.75,154.788 1398.49,154.423L1504.8,102.091C1520.58,94.321 1539.54,97.3 1552.18,109.536L1594.98,150.968C1596.35,152.296 1597.63,153.717 1598.81,155.221L1690.09,271.833L1916.27,560.822C1916.38,560.955 1916.48,561.088 1916.58,561.221L2063.65,753.881C2067.77,759.282 2070.4,765.433 2071.54,771.789C2081.77,779.852 2087.8,792.395 2087.4,805.764C2087.36,807.051 2087.26,808.327 2087.11,809.588C2087.99,816.779 2087,824.224 2084,831.167L2052.92,903.183C2056.8,911.302 2058.07,920.709 2056,930.095L2031.41,1041.63C2031.26,1042.33 2031.09,1043.01 2030.9,1043.7L1959.96,1302.06L1895.57,1546.2L1927.35,1532.03C1928.21,1531.64 1929.08,1531.29 1929.96,1530.97L2178.45,1439.71C2193.99,1434 2211.44,1438.04 2222.9,1449.99C2234.36,1461.94 2237.65,1479.55 2231.28,1494.83C2215.38,1533.05 2197.01,1570.29 2177.81,1607.17C2177.82,1607.21 2177.83,1607.25 2177.84,1607.3C2181.22,1623.69 2179.29,1642.15 2173.51,1660.74C2167.88,1678.83 2158.34,1697.31 2152.43,1712.2C2129.85,1769.13 2108.48,1826.61 2086.86,1883.91C2027.55,2041.19 1966.3,2197.77 1907.54,2355.28L1907.54,2355.29C1882.13,2423.36 1859.86,2531.54 1813.92,2587.66L1813.88,2587.7C1803.09,2600.85 1785.84,2613.12 1764.7,2622.92C1726.83,2640.49 1675.21,2651.42 1646.12,2655.72C1641.26,2656.43 1636.41,2656.28 1631.75,2655.33C1620.51,2662.84 1607.15,2668.24 1590.84,2670.85C1585.75,2671.66 1580.63,2671.52 1575.72,2670.49C1573.48,2671.39 1571.15,2672.09 1568.74,2672.59L1481.16,2690.78C1476.83,2691.68 1472.38,2691.89 1467.98,2691.39L1244.84,2666.04C1237.99,2665.26 1231.55,2662.81 1226.02,2659.03C1225.66,2658.91 1225.3,2658.78 1224.94,2658.64L1171.38,2638.83C1162.11,2641.91 1151.9,2641.67 1142.61,2637.9C1131.54,2633.42 1122.23,2627.58 1114.4,2620.64C1111.46,2620.76 1108.5,2620.58 1105.55,2620.07C1072.06,2614.31 1048.7,2602.05 1030.81,2584.95C1025.54,2585.51 1020.14,2585.07 1014.87,2583.55C860.709,2539.16 826.3,2422.62 786.477,2286.51C725.668,2078.68 649.189,1871.51 600.382,1660.6C598.324,1651.7 599.283,1642.69 602.691,1634.76C595.882,1621.24 589.237,1607.51 583.253,1593.83C567.632,1558.13 556.525,1522.55 555.123,1490.8C553.933,1463.86 560.461,1433.34 570.862,1402.48C583.791,1364.11 602.733,1324.9 613.281,1293.26C658.841,1156.61 703.854,1019.82 748.427,882.874C753.208,868.186 765.584,857.622 780.264,854.834ZM1584.25,2629.7C1624.97,2623.18 1634.71,2587.05 1651.45,2553.66L1752.88,2350.86C1855.27,2146.1 1959.79,1942.22 2062.22,1737.39C2105.23,1651.33 2155.8,1567.76 2192.82,1478.82L1944.32,1570.08L1857.35,1608.86L1832.75,1686.69L1777.57,1894.56L1645.71,2391.42L1584.25,2629.7ZM1239.4,2619.57L1425.47,2203.83L1816.83,1331.79L1956.03,1022.52L2045.75,814.654L1787.1,918.968L1366.18,1092.13L1203.9,1159.46L1146.1,1191.83L1147.66,1301.37L1152.99,1529.52L1168.4,2305.23L1173.47,2513.1L1178.69,2597.11L1239.4,2619.57ZM808.333,885.625C864.342,1319.22 978.838,1747.41 1052.17,2178.47C1070.03,2283.46 1090.72,2388.39 1111.6,2492.81C1119.37,2531.68 1116.79,2582.48 1158.26,2599.28L1133.1,1575.15L1127.83,1306.44L1122.62,1184.78L1036.54,1098.57L808.333,885.63L808.333,885.625ZM788.048,895.764C743.444,1032.8 698.4,1169.69 652.809,1306.43C635.208,1359.23 594.281,1433.08 596.749,1488.95C599.754,1557 658.271,1644.58 685.195,1706.96C752.228,1862.28 818.43,2017.96 885.165,2173.4C926.511,2269.71 967.909,2366 1009.05,2462.39C1033.21,2518.99 1045.14,2567.39 1112.62,2579.01L1038.52,2193.68L883.405,1377.41L820.506,1042.8L788.048,895.764ZM2137.03,1615.7L1775.69,2335.64L1640.03,2614.49C1677.56,2608.95 1756.72,2591.66 1781.68,2561.26C1825.14,2508.16 1844.46,2405.11 1868.5,2340.71C1927.27,2183.16 1988.54,2026.53 2047.87,1869.2C2069.58,1811.68 2091.03,1753.98 2113.7,1696.82C2122.98,1673.42 2142.2,1640.78 2137.03,1615.7ZM2015.31,921.118L1249.54,2624.63L1472.68,2649.98L1560.26,2631.79L1594.39,2523.23L1672.34,2229.17L1919.72,1291.22L1990.72,1032.65L2015.31,921.114L2015.31,921.118ZM640.973,1651.2C689.602,1861.34 765.877,2067.73 826.464,2274.8C862.06,2396.47 888.599,2503.83 1026.4,2543.51C956.595,2338.51 855.02,2139.07 769.182,1940.18C731.006,1851.73 701.373,1725.93 640.973,1651.2ZM1122.75,373.557L1143.04,1174.62L1401.67,1069.61L2045.75,804.509L1847.96,708.881L1498.04,544.624L1244.47,424.964L1122.75,373.557ZM1132.9,353.278L1132.9,358.346L1487.89,524.545L2030.53,779.156L1883.46,586.496L1657.28,297.508L1565.99,180.898L1523.19,139.466L1416.89,191.798L1132.9,353.278Z" style="fill:rgb(34,39,46);"/>
    </g>
    <defs>
        <linearGradient id="_Linear1" x1="0" y1="0" x2="1" y2="0" gradientUnits="userSpaceOnUse" gradientTransform="matrix(2603.49,0,0,2603.49,92.982,1394.73)"><stop offset="0" style="stop-color:rgb(242,242,242);stop-opacity:1"/><stop offset="1" style="stop-color:rgb(242,242,242);stop-opacity:1"/></linearGradient>
        <linearGradient id="_Linear2" x1="0" y1="0" x2="1" y2="0" gradientUnits="userSpaceOnUse" gradientTransform="matrix(1.65521e-13,2703.16,-2703.16,1.65521e-13,1396.6,-230.123)"><stop offset="0" style="stop-color:rgb(242,242,242);stop-opacity:0"/><stop offset="0.69" style="stop-color:rgb(242,242,242);stop-opacity:0"/><stop offset="1" style="stop-color:rgb(191,78,48);stop-opacity:1"/></linearGradient>
    </defs>
</svg>
