<?xml version="1.0" encoding="UTF-8" standalone="no"?><!DOCTYPE svg PUBLIC "-//W3C//DTD SVG 1.1//EN" "http://www.w3.org/Graphics/SVG/1.1/DTD/svg11.dtd"><svg width="100%" height="100%" viewBox="0 0 25959 25888" version="1.1" xmlns="http://www.w3.org/2000/svg" xmlns:xlink="http://www.w3.org/1999/xlink" xml:space="preserve" xmlns:serif="http://www.serif.com/" style="fill-rule:evenodd;clip-rule:evenodd;stroke-linejoin:round;stroke-miterlimit:2;"><g id="stop"><path id="hand-background" d="M8191.46,1291.1c-159.716,56.979 -461.683,335.229 -1541.73,1420.45c-18.179,18.225 -1197.5,1200.43 -2620.75,2627.08c-2514.74,2520.7 -2590.35,2599.44 -2681.52,2789.8l-93.771,195.9l6.4,4652.71c4.705,3396.88 14.509,4673.42 36.15,4729.38c97.425,251.45 487.875,679.604 1628.78,1785.93c21.625,20.983 649.742,647.533 713.838,712.083c67.908,68.363 1054.18,1057.45 1081.69,1084.77c14.445,14.383 728.162,730.246 1585.98,1590.8c1432.28,1436.85 1573.69,1571.34 1732.15,1646.75l172.516,82.083l4724.42,6.917l4724.46,6.996l183.62,-92.467c163.042,-82.133 2089.67,-1958.7 3873.13,-3772.62c18.883,-19.212 616.541,-621.12 1328.17,-1337.58c1620.95,-1632.05 1584.34,-1591.28 1619.3,-1806.47c17.909,-110.488 26.988,-1706.65 26.925,-4728.04l-0.204,-4561.25l-102.191,-184.279c-56.192,-101.346 -158.605,-236.613 -227.546,-300.583c-68.929,-63.988 -166.888,-162.009 -217.671,-217.813c-50.704,-55.737 -545.121,-552.629 -1098.61,-1104.17c-553.479,-551.47 -1014.9,-1011.63 -1025.3,-1022.49c-34.755,-36.258 -1063.72,-1064.5 -1118.41,-1117.62c-29.608,-28.762 -436.058,-434.567 -903.229,-901.787c-467.158,-467.238 -873.437,-873.042 -902.762,-901.792c-29.346,-28.763 -267.4,-269.892 -529.063,-535.85c-491.671,-499.842 -668.437,-660.721 -810.167,-737.317c-112.195,-60.633 -9395.46,-69.916 -9564.58,-9.537" style="fill:#fefefe;"/><path id="sign" d="M7680,45.263c-176.808,63.07 -511.079,371.091 -1706.67,1572.41c-20.12,20.171 -1325.61,1328.85 -2901.13,2908.12c-2783.77,2790.36 -2867.47,2877.53 -2968.39,3088.26l-103.8,216.858l7.083,5150.46c5.208,3760.28 16.058,5173.38 40.017,5235.33c107.846,278.354 540.071,752.312 1803.02,1977c23.941,23.225 719.254,716.804 790.208,788.262c75.175,75.675 1166.96,1170.57 1197.41,1200.82c15.992,15.916 806.059,808.366 1755.64,1760.99c1585.5,1590.58 1742.05,1739.45 1917.47,1822.92l190.975,90.867l5229.83,7.658l5229.88,7.742l203.263,-102.359c180.487,-90.921 2313.23,-2168.25 4287.5,-4176.21c20.899,-21.267 682.5,-687.571 1470.26,-1480.68c1794.36,-1806.65 1753.84,-1761.51 1792.54,-1999.72c19.825,-122.308 29.875,-1889.23 29.809,-5233.83l-0.225,-5049.21l-113.125,-203.996c-62.209,-112.187 -175.575,-261.925 -251.896,-332.741c-76.3,-70.834 -184.738,-179.342 -240.954,-241.113c-56.129,-61.7 -603.438,-611.75 -1216.15,-1222.29c-612.692,-610.467 -1123.47,-1119.86 -1134.98,-1131.88c-38.471,-40.138 -1177.52,-1178.38 -1238.06,-1237.18c-32.779,-31.841 -482.708,-481.062 -999.862,-998.266c-517.133,-517.221 -966.875,-966.442 -999.338,-998.263c-32.483,-31.842 -296.008,-298.767 -585.662,-593.179c-544.267,-553.313 -739.946,-731.404 -896.838,-816.196c-124.204,-67.117 -10400.6,-77.396 -10587.8,-10.554m5128.04,1775.1c237.621,131.075 425.054,318.438 560.104,559.963l106.267,189.966l0.295,4265.12l0.28,4265.21l83.766,146.112c120.659,210.363 137.654,219.338 396.338,209.633l225.691,-8.525l88.109,-125.433l88.037,-125.521l15.125,-3578.2c17.221,-4083.7 -16.129,-3672.38 327.55,-4035.36c599.325,-633.038 1614.36,-375.225 1752.1,445.017c22.204,132.379 31.963,1363.58 31.963,4039.36c-0,2830.22 8.837,3875 33.35,3947.26c148.579,437.934 700.312,494.859 885.054,91.3l73.142,-159.721l-5.642,-2639.41l-5.575,-2639.46l113.579,-245.795l113.558,-245.888l257.1,-146.837c599.896,-342.588 1310.24,-139.621 1584.11,452.758l61.858,133.75l9.758,4528.38c11.509,5335.29 -9.462,6078.33 -185.47,6573.38c-47.375,133.246 -216.579,820.521 -290.796,1181.27c-24.517,119.358 -89.046,318.437 -143.371,442.341c-54.321,123.996 -131.875,345.35 -172.375,491.913c-95.646,345.987 -147.433,477.566 -232.067,589.112c-38.058,50.054 -109.237,175.054 -158.35,277.709c-49.046,102.725 -174.916,289.637 -279.654,415.366c-104.825,125.729 -223.021,277.479 -262.742,337.171c-39.775,59.738 -138.891,156.092 -220.262,214.113c-81.388,58.091 -221.354,168.629 -310.904,245.729c-89.634,77.116 -265.417,193.3 -390.625,258.179c-125.292,64.808 -305.85,161.821 -401.334,215.571c-95.487,53.75 -258.25,120.158 -361.687,147.571c-103.454,27.341 -337.829,104.666 -520.833,171.804c-267.95,98.229 -397.567,128.246 -665.521,153.991c-183,17.659 -480.834,46.371 -661.734,63.959c-842.241,81.529 -1924.48,75.087 -2969.62,-17.863c-270.555,-24.029 -567.43,-43.404 -659.809,-43.125c-206.004,0.729 -524.583,-69.375 -731.683,-160.954c-85.296,-37.675 -288.854,-95.558 -452.342,-128.542c-304.1,-61.266 -585.208,-172.516 -752.954,-298.02c-51.804,-38.717 -153.142,-96.009 -225.121,-127.33c-317.133,-137.654 -1599.18,-1382.58 -1840.85,-1787.46c-57.012,-95.488 -145.921,-220.488 -197.571,-277.708c-51.716,-57.292 -135.258,-181.563 -185.675,-276.113c-50.35,-94.55 -149.462,-242.483 -220.208,-328.7c-70.746,-86.229 -170.071,-235.396 -220.85,-331.525c-50.696,-96.217 -129.412,-217.883 -174.917,-270.471c-45.483,-52.671 -139.166,-215.433 -208.245,-361.7c-69.009,-146.337 -164.93,-314.808 -213.109,-374.341c-48.175,-59.53 -129.2,-211.3 -179.979,-337.309c-50.783,-126.025 -137.379,-281.612 -192.346,-345.921c-55.05,-64.32 -145.554,-216.733 -201.179,-338.766c-55.625,-122.029 -146.704,-277.484 -202.329,-345.417c-55.692,-67.987 -148.208,-232.483 -205.5,-365.592c-57.292,-133.104 -148.525,-302.95 -202.692,-377.308c-54.116,-74.442 -145.329,-237.204 -202.691,-361.7c-57.292,-124.567 -142.221,-269.967 -188.663,-323.125c-46.442,-53.246 -135.487,-207.258 -197.85,-342.242c-62.358,-134.979 -158.192,-306.491 -213.037,-381.212c-497.171,-677.308 -166.509,-1708.04 666.025,-2076.25c311.408,-137.725 900.537,-73.925 1118.85,121.092c69.721,62.291 175.346,150.4 234.654,195.679c59.321,45.362 163.487,169.062 231.404,274.879c67.933,105.9 144.758,210 170.663,231.421c25.883,21.408 95.12,125.575 153.712,231.475c58.596,105.904 165.071,270.696 236.546,366.183c71.546,95.483 155.658,232.204 186.996,303.817c31.321,71.616 112.187,201.825 179.687,289.341c67.484,87.534 176.563,254.409 242.329,370.817c65.746,116.388 163.921,266.129 218.175,332.742c54.167,66.633 128.75,186.2 165.642,265.783c125.433,270.608 532.554,605.104 655.679,538.767c133.817,-72.188 188.942,-178.679 283.559,-547.971c211.875,-827.254 192.862,-279.288 215.433,-6211.88c11.283,-2944.15 30.887,-5392.08 43.612,-5439.79c38.921,-145.625 493.855,-581.596 650.538,-623.4c511.217,-136.287 942.342,29.792 1300.12,500.938c80.45,105.9 86.962,377.1 87.533,3635.05c0.729,4019.24 -29.875,3727.87 397.796,3794.2c301.787,46.808 421.146,-21.854 526.321,-302.95c58.316,-155.817 58.887,-200.675 55.712,-3956.89c-1.737,-2089.55 -0.729,-3903.42 2.309,-4030.75c20.537,-864.791 808.662,-1431.56 1477.73,-1062.64" style="fill:#c04f30;"/></g></svg>