<svg width="499" xmlns="http://www.w3.org/2000/svg" height="184" viewBox="136 12 499 184" fill="none">
  <path d="M596.281 79.432c-8.083-2.092-12.478-2.096-95.061-.061-285.782 7.042-372.016 11.135-353.479 16.777 3.201.974 3.125 1.055-1.529 1.619-11.137 1.35-7.612 3.192 13.794 7.21 21.174 3.974 22.326 4.268 16.664 4.246-5.152-.019-8.693.859-7.615 1.889.5.478 5.42.686 10.928.461 11.854-.485 14.89.001 7.754 1.239-9.408 1.631-5.049 2.361 17.455 2.918 22.752.565 26.289.801 18.125 1.211-10.728.539-11.775 2.52-1.241 2.353 4.745-.075 6.27.192 5.71 1-2.186 3.149 25.626 3.417 160.694 1.554 70.806-.977 126.923-1.324 144.642-.894 66.989 1.624 70.054 1.196 79.405-11.076 7.262-9.532-1.917-26.735-16.246-30.446Z" fill-rule="evenodd" style="fill:#38d9a9;fill-opacity:1" class="fills"/>
</svg>
