<svg width="378.7" xmlns="http://www.w3.org/2000/svg" height="204.184" viewBox="298.437 78 378.7 204.184" fill="none"><path d="M457.817 81.201c-5.288 10.301-23.486 15.568-54.375 15.739l-14.271.078-5.071 1.78c-5.957 2.09-9.874 2.313-18.801 1.07-6.314-.878-15.928-.861-19.791.037-1.523.353-2.002.55-1.065.437 4.912-.593 10.249-.672 14.271-.211 10.181 1.168 17.22 2.051 16.73 2.099-.287.028-2.396 1.326-4.686 2.885-4.543 3.093-7.724 4.303-12.683 4.829-2.693.285-2.775.319-.852.357 1.171.024 3.464-.215 5.094-.531l2.965-.573-8.719 8.576c-11.706 11.515-17.443 15.47-27.268 18.8-2.446.829-3.776 1.385-2.956 1.235 10.628-1.937 19.676-7.48 32.162-19.705 14.879-14.569 22.131-18.22 37.273-18.765l7.029-.254 7.029 1.773c12.159 3.068 21.75 4.041 27.251 2.766 2.702-.627 2.589-.432-1.141 1.955-9.476 6.063-11.139 6.427-31.648 6.938-15.834.394-17.946.647-25.019 3.004-3.772 1.256-11.769 5.036-12.677 5.992-.236.248 1.296-.407 3.404-1.457 8.679-4.321 15.935-5.825 29.393-6.093 5.155-.103 12.426-.257 16.16-.343 6.217-.142 6.686-.102 5.576.479-2.402 1.259-4 1.464-14.068 1.802-18.072.607-24.771 3.468-35.632 15.217-4.422 4.784-9.84 6.829-21.825 8.238-11.662 1.372-20.436 4.253-24.119 7.922-.352.35.479-.034 1.847-.853 5.336-3.198 11.396-4.787 22.952-6.017 7.393-.786 11.593-1.784 15.304-3.636l2.708-1.351-1.917 2.041c-3.169 3.374-3.812 3.749-8.083 4.716-6.792 1.538-11.165 3.997-15.605 8.777-2.889 3.109-7.566 4.334-19.915 5.217-11.474.82-14.395 2.009-21.049 8.569l-3.292 3.246 3.038-2.714c6.795-6.069 9.528-7.043 22.06-7.856 5.174-.336 10.651-.884 12.171-1.218 1.521-.333 2.816-.555 2.878-.493.574.574-8.336 9.517-11.565 11.609-3.343 2.166-3.477 2.294-1.319 1.257 3.302-1.586 7.017-4.52 10.094-7.973 1.545-1.734 3.357-3.768 4.025-4.521 1.23-1.385 4.06-2.555 3.333-1.378-.195.315.208.182.895-.294.686-.476 3.538-1.958 6.338-3.294 2.799-1.336 6.025-3.004 7.168-3.707 2.34-1.44 17.317-6.583 20.462-7.026l2.049-.289-2.12 3.354c-3.789 5.995-6.926 8.932-12.956 12.133-1.694.899-2.929 1.64-2.746 1.646.622.021 4.764-2.219 7.76-4.197 1.64-1.083 3.201-2.11 3.468-2.283.267-.173-.191 1.307-1.017 3.288l-1.503 3.603-2.243.652c-1.234.359-3.211.652-4.394.652-5.371 0-9.137 1.612-16.067 6.879-2.554 1.941-5.892 4.173-7.418 4.96-1.526.787-2.296 1.295-1.71 1.13 2.292-.647 6.001-2.824 10.282-6.037 5.801-4.354 9.513-6.064 13.147-6.057.811.001.403.355-1.704 1.48-4.209 2.248-7.39 4.962-10.649 9.088-4.264 5.398-7.106 6.819-15.89 7.943-6.682.855-13.929 3.078-13.929 4.272 0 .118.724-.155 1.61-.607 2.622-1.337 5.89-2.118 12.613-3.013 4.976-.662 6.93-1.118 9.068-2.119 1.499-.702 2.59-1.043 2.425-.758-5.9 10.138-13.6 18.33-21.136 22.485-2.592 1.429-2.421 1.683.229.341 8.609-4.359 13.504-9.12 21.186-20.605 6.647-9.936 11.853-14.435 19.789-17.104 4.042-1.358 3.995-1.421 2.34 3.122-4.944 13.571-11.371 22.935-22.139 32.254-1.898 1.643-1.684 1.533 1.128-.581 10.506-7.893 17.964-18.137 23.143-31.787l1.793-4.725 4.114-.733 5.392-.961c1.183-.213 1.081-.051-1.365 2.172-3.429 3.117-6.333 7.509-10.006 15.136-3.918 8.137-6.941 12.699-11.15 16.832l-3.464 3.4 2.701-2.109c5.119-3.998 8.965-9.287 13.276-18.26 5.979-12.445 10.005-16.378 20.527-20.051 2.883-1.007 5.988-2.159 6.9-2.56l1.658-.73-1.289 1.628c-1.71 2.161-4.125 6.654-4.998 9.296-.386 1.171-.998 2.585-1.359 3.141-.362.556-.445.88-.187.72 1.537-.949-1.342 4.696-3.939 7.723-3.596 4.194-7.628 7.254-15.612 11.848-11.375 6.547-19.392 13.444-22.186 19.088-.253.512.065.26.708-.56 4.669-5.96 10.547-10.671 20.859-16.714 9.585-5.617 11.886-7.246 15.635-11.063 1.816-1.848 3.301-3.266 3.301-3.15 0 .116-.582 1.821-1.294 3.789l-1.295 3.577-3.551 2.413c-6.469 4.394-13.455 13.229-13.455 17.017 0 .835-1.75 1.776-7.242 3.895-4.05 1.564-7.532 3.51-8.593 4.806-.311.38.214.129 1.166-.556s2.677-1.667 3.834-2.181c4.128-1.838 9.748-3.914 9.97-3.684.746.774-9.821 8.106-17.174 11.917-10.591 5.489-13.873 8.043-17.047 13.267-1.565 2.578-4.304 8.984-3.979 9.309.102.102.628-.996 1.169-2.442 2.867-7.665 7.546-12.249 17.697-17.334 6.419-3.215 12.889-6.937 15.804-9.09 2.73-2.017 2.723-2.017 2.189-.049-.958 3.531-3.474 7.536-6.847 10.899-2.683 2.675-2.982 3.086-1.504 2.07 1.839-1.266 4.569-4.029 5.973-6.047.628-.902.61-.716-.115 1.21-1.64 4.356-4.268 8.524-7.834 12.422-1.594 1.743-1.722 1.961-.501.852 4.954-4.499 8.553-10.254 10.92-17.461 2.274-6.925 2.344-7.041 7.38-12.077 4.696-4.695 9.61-10.77 11.777-14.559 1.424-2.487 3.195-3.928 7.451-6.057 4.458-2.231 4.874-2.239 3.102-.057-2.528 3.113-4.106 6.866-5.882 13.997-2.317 9.294-4.338 13.978-7.615 17.643-.609.68-.867 1.1-.574.933 1.893-1.081-3.617 6.845-6.824 9.816-2.701 2.503-2.409 2.413.881-.27 2.609-2.128 5.065-5.422 8.418-11.291 3.218-5.633 6.033-8.948 9.488-11.174 2.944-1.897 3.006-1.705.444 1.38-2.839 3.42-5.31 8.533-6.38 13.202-1.61 7.032-4.619 10.596-13.375 15.844-5.856 3.509-9.478 6.328-11.663 9.076-1.402 1.763-1.301 1.707 1.258-.7 2.665-2.507 5.485-4.467 13.743-9.549 2.159-1.329 4.826-3.446 6.254-4.964l2.49-2.646-.222 1.581c-2.434 17.396-4.577 23.1-12.039 32.04l-2.667 3.195 2.633-2.769c8.39-8.822 11.111-15.021 13.606-30.995 2.017-12.911 3.873-17.389 9.823-23.692 2.874-3.044 9.035-8.089 10.631-8.704.341-.132.916-.487 1.278-.79 1.21-1.014 7.454-5.203 7.574-5.083.066.066-.548 1.564-1.364 3.329-1.416 3.065-2.784 8.971-2.784 12.02 0 .768-.547 2.216-1.268 3.352-1.472 2.321-1.377 2.714.123.507l1.015-1.494.253 5.038c.464 9.221-.584 15.759-3.562 22.231-.917 1.991-1.357 3.237-.979 2.769 3.809-4.721 5.69-12.363 6.083-24.708.243-7.636.465-10.135 1.007-11.33.382-.843 1.095-3.502 1.585-5.908 1.103-5.412 2.671-7.917 7.512-12.006 6.652-5.619 12.073-11.827 14.828-16.985l1.394-2.609.241 2.654c.171 1.89.005 3.573-.577 5.85-.45 1.758-.817 3.762-.817 4.453 0 .795-.767 2.402-2.091 4.382-2.009 3.003-3.592 6.5-4.079 9.011-.127.654.147.172.608-1.07.875-2.355 2.843-5.947 4.229-7.718l.807-1.031.312 1.42c1.441 6.56-.871 11.053-10.931 21.243-6.014 6.093-7.248 7.576-8.789 10.561-2.134 4.137-2.397 5.355-.327 1.513 1.999-3.709 4.661-6.84 9.909-11.654 6.362-5.836 10.778-11.869 10.778-14.725 0-1.684.827-.087 1.451 2.802 1.429 6.614 1.176 10.044-.995 13.482-3.535 5.597-6.504 13.367-7.879 20.619-.805 4.249-.738 4.154-4.632 6.5-1.684 1.015-4.31 3.062-5.834 4.55l-2.772 2.704 2.638-2.245c2.715-2.31 9.099-6.479 9.424-6.153.54.54-2.834 4.921-7.559 9.813-3.023 3.131-5.876 6.516-6.553 7.774-1.496 2.784-1.212 2.941.372.206.645-1.113 3.633-4.475 6.641-7.471 3.008-2.996 5.771-6.033 6.142-6.749 1.291-2.498 1.156-.784-.164 2.081-.732 1.588-1.525 4.227-1.761 5.863-.659 4.559-.452 5.097.396 1.029.418-2.007 1.15-4.499 1.627-5.538l.866-1.888.127 4.685c.271 10.052-.338 13.665-3.089 18.318-.9 1.522-.994 1.826-.329 1.065 3.396-3.889 4.64-9.056 4.596-19.09l-.032-7.534 2.172-3.883c4.094-7.317 6.914-15.256 8.158-22.97.501-3.104.611-3.311 3.213-6.072l2.693-2.858-.658 2.294c-1.341 4.67-.895 9.043 1.852 18.153 1.454 4.819 1.544 5.465 1.572 11.27.028 5.627.074 5.976.523 4.047 1.14-4.897.701-9.244-1.846-18.299-2.651-9.425-1.995-16.03 2.091-21.059l1.819-2.238 1.017 3.981c.817 3.2 1.026 5.164 1.065 10.016.026 3.319.084 5.998.129 5.953 1.205-1.204.795-12.03-.688-18.165-.76-3.143-.758-3.222.083-4.891 2.631-5.219 4.145-12.401 4.145-19.664v-4.847l3.166-5.255c1.742-2.89 3.797-6.531 4.567-8.093 2.465-4.999 2.702-3.996 1.044 4.411-1.37 6.949-1.385 12.165-.051 18.408l.701 3.286-1.506 3.765c-5.142 12.85-5.319 21.539-.631 30.871 2.012 4.006 2.073 5.487.366 8.87-2.01 3.98-3.719 9.562-4.631 15.123-.459 2.798-1.042 6.005-1.296 7.127-.713 3.149.095 16.143 1.487 23.907 1.786 9.959 1.975 11.659 1.783 16.013-.144 3.25-.085 4.124.215 3.195.845-2.611.521-10.338-.713-17.04-.954-5.181-1.212-8-1.362-14.909l-.185-8.52 1.279 2.691c.703 1.48 2.258 4.389 3.456 6.465 1.198 2.075 2.654 4.89 3.236 6.255.597 1.4.951 1.924.813 1.203-.135-.703-1.137-3.003-2.228-5.112-6.444-12.455-5.894-11.036-5.845-15.082.042-3.502.147-3.884 2.407-8.773 2.417-5.229 3.458-8.325 3.941-11.715.605-4.249.565-4.245 4.008-.4 2.407 2.689 2.78 3.355 3.518 6.283.455 1.802 1.772 6.176 2.927 9.722 3.258 10.001 3.545 15.025 1.239 21.726-.459 1.334-.752 2.508-.651 2.608.374.375 2.359-6.773 2.745-9.886.531-4.277.009-8.101-1.876-13.749-1.55-4.641-3.245-10.843-3.024-11.064.293-.293 7.863 7.535 9.102 9.412 2.9 4.392 3.202 5.835 3.535 16.871.305 10.135 1.124 14.893 3.007 17.465.378.516.408.476.157-.213-1.78-4.872-1.996-6.469-2.299-17.039-.407-14.21-.934-15.584-9.226-24.068l-4.788-4.899-.461-4.137c-.514-4.617-.562-13.586-.088-16.523l.309-1.917.783 2.556c.441 1.439.903 4.696 1.057 7.454l.273 4.899.348-3.48c.191-1.914.218-4.071.06-4.792-.159-.722-.198-1.312-.087-1.312.316 0 4.813 8.081 5.813 10.445.587 1.389.812 1.68.651.843-.135-.703-1.1-2.907-2.145-4.899-7.506-14.305-7.576-15.613-1.494-27.689 1.357-2.694 2.907-6.113 3.445-7.597l.979-2.699 1.452 2.273c1.686 2.639 1.763 6.084.334 14.839-.495 3.031-.653 5.64-.491 8.094.389 5.871.993 6.848.79 1.278-.133-3.656.048-6.28.715-10.34.491-2.992.893-6.203.893-7.135 0-2.253.556-2.139 1.614.329 2.898 6.758 3.004 13.976.335 22.897-1.508 5.039-1.711 7.438-1.115 13.147.828 7.937 1.121 8.122 1.101.697-.025-9.485 3.039-22.297 6.143-25.685 1.423-1.554 2.073 15.306.924 23.983-1.001 7.568-.793 10.578 1.049 15.183l1.096 2.74-2.637 4.455c-5.56 9.395-6.671 15.387-4.656 25.118.533 2.577 1.032 5.165 1.107 5.75.076.586.324 1.928.551 2.982.228 1.055.448 3.834.489 6.177.073 4.191.08 4.218.438 1.704.488-3.425.133-7.226-1.41-15.093-2.212-11.286-1.439-16.375 3.815-25.096 2.704-4.489 2.731-4.517 2.465-2.574-.387 2.829.371 6.836 2.595 13.722 1.512 4.682 2.021 6.994 2.266 10.298l.317 4.259.057-3.62c.063-4.015-.51-6.892-2.755-13.845-2.495-7.724-2.503-14.226-.013-10.464.63.952 1.248 1.731 1.373 1.731.255 0 .083-.295-1.678-2.879l-1.225-1.798 3.248-6.74c1.787-3.707 3.249-7.006 3.249-7.331 0-.956.698.057 1.269 1.843.494 1.546.446 1.735-.992 3.9-1.703 2.565-3.702 7.055-3.651 8.2.025.578.083.606.242.12.849-2.606 4.51-9.372 5.071-9.372.474 0 1.2 4.231 1.463 8.52l.299 4.898.05-4.046c.027-2.226-.201-5.472-.506-7.214l-.555-3.167 1.712-2.686c2.156-3.382 2.157-3.381 2.419 3.664.237 6.387 1.96 11.34 4.903 14.092.988.925.942.774-.363-1.169-2.524-3.76-3.339-6.518-3.557-12.04l-.193-4.899 6.418 6.49 6.418 6.489.056 2.243c.051 2.003.086 2.084.33.752l.274-1.491 1.072 1.704c.59.938 1.43 2.521 1.867 3.519.437.998.884 1.726.993 1.617.108-.109-.71-2.063-1.818-4.342-2.41-4.954-2.41-4.955.455-13.573 1.146-3.445 2.104-7.223 2.268-8.946l.285-2.982 1.428 2.769c1.944 3.768 4.758 7.87 9.362 13.649 4.298 5.396 6.538 9.293 7.493 13.037l.636 2.494-.249-2.113c-.535-4.532-2.187-7.507-9.391-16.915-5.501-7.183-10.141-16.53-12.247-24.672-1.162-4.489-1.802-8.835-1.093-7.418.372.742.393.715.169-.213-.372-1.531-.763-8.094-.483-8.094.13 0 .909 1.109 1.733 2.465 2.013 3.315 5.865 6.897 11.77 10.949 8.339 5.721 8.52 5.902 8.52 8.538 0 5.754 2.717 13.6 5.97 17.239l1.333 1.491-1.074-1.502c-2.891-4.046-4.942-10.506-4.932-15.538l.005-2.555 1.159 1.279a77.554 77.554 0 0 1 2.365 2.769c1.968 2.43.457-.152-1.849-3.161-1.862-2.43-2.126-3.026-2.133-4.812-.016-4.487-2.078-10.719-4.374-13.221-1.12-1.221-.734-1.204 3.135.14 1.74.604 6.405 1.913 10.367 2.909l7.203 1.812 1.627 2.734c2.467 4.148 2.716 4.359.821.694l-1.716-3.32 1.589.291c10.39 1.903 15.326 5.852 22.493 18 3.149 5.336 8.48 10.686 12.537 12.583.351.164.166-.046-.411-.467-4.79-3.493-7.671-6.909-12.29-14.568-6.094-10.106-10.503-13.594-20.481-16.204l-4.166-1.09-4.116-4.352c-4.352-4.601-5.659-6.88-1.893-3.3l2.223 2.114-2.341-2.556c-3.225-3.52-8.07-11.98-8.07-14.091 0-1.011 8.633.299 11.502 1.745 4.56 2.297 5.932 3.887 7.505 8.694 1.252 3.825 3.689 8.977 4.247 8.977.103 0-.368-1.102-1.047-2.449-1.146-2.272-3.037-7.712-3.037-8.736 0-.246 1.102.599 2.449 1.878 3.55 3.367 7.825 6.124 10.756 6.937.586.163-.049-.284-1.41-.993-3.412-1.776-5.964-3.734-9.381-7.197l-2.91-2.95-1.01-6.863c-1.412-9.59-2.327-12.505-5.34-16.995-1.351-2.014-1.333-2.004 1.713.946 6.416 6.213 10.564 12.293 14.384 21.087 4.106 9.451 6.566 12.386 13.388 15.976 3.952 2.079 4.119 1.857.344-.458-6.033-3.699-8.505-6.793-11.715-14.666-1.098-2.695-2.361-5.618-2.807-6.497-.971-1.914-.918-1.929 1.422-.4 1.007.659 3.52 2.241 5.584 3.515 2.063 1.274 4.843 3.248 6.176 4.386 2.372 2.025 2.364 2.011-.361-.639-1.621-1.576-5.094-4.133-8.303-6.116l-5.517-3.408-2.826-4.236c-1.554-2.33-4.118-5.645-5.697-7.369-3.185-3.475-3.381-3.295 2.126-1.954 9.874 2.405 21.264 11.865 30.495 25.329 4.181 6.096 6.674 8.688 10.134 10.532 3.391 1.807 3.797 1.7.666-.177-3.709-2.223-5.761-4.421-10.071-10.786-2.123-3.135-5.081-7.2-6.573-9.033l-2.713-3.333 1.689.596c.929.327 3.914.994 6.633 1.481 2.72.487 6.082 1.347 7.47 1.911 1.389.564 2.525.933 2.525.82 0-.646-5.492-2.449-10.354-3.401-7.884-1.543-11.185-3.416-17.941-10.178-.936-.937-1.422-1.332-1.08-.878.485.644.202.566-1.296-.355-3.332-2.052-7.29-3.72-10.837-4.57-5.997-1.437-6.35-1.594-9.823-4.399-1.874-1.514-4.654-3.48-6.177-4.369-3.295-1.923-4.794-3.458-7.824-8.006-3.544-5.32-3.746-5.845-1.509-3.923a557.84 557.84 0 0 0 4.792 4.047 145.483 145.483 0 0 1 5.266 4.641c2.673 2.51 5.891 4.295 12.853 7.132 4.661 1.899 8.587 4.19 12.194 7.115l1.704 1.381-1.704-1.815c-2.273-2.423-7-5.551-10.657-7.054-4.484-1.842-10.855-4.836-10.855-5.102 0-.129 1.102.262 2.45.868 4.35 1.959 13.135 4.744 13.575 4.303.093-.093-1.394-.597-3.304-1.121-6.644-1.82-16.46-7.211-18.791-10.318-2.329-3.104-3.503-6.247-2.13-5.698.41.163 4.893 1.138 9.963 2.166 13.059 2.647 19.157 5.104 24.861 10.017 1.57 1.352 1.794 1.469.852.444-4.117-4.48-11.76-8.547-20.072-10.682-2.252-.578-2.886-2.591-3.792-12.048-.347-3.622-.916-7.525-1.265-8.675-.348-1.149-.631-2.185-.629-2.302.007-.3.786.68 6.711 8.439 11.23 14.707 18.759 20.35 28.527 21.382 6.597.697 9.591 2.839 19.902 14.233 4.228 4.672 7.482 7.27 11.516 9.196 3.543 1.69 4.064 1.613.849-.126-5.407-2.924-8.357-5.591-15.452-13.97-3.414-4.032-6.562-6.794-9.468-8.307l-1.491-.776 1.917-.384c4.655-.932 10.155-2.545 15.619-4.578 14.415-5.367 16.221-5.325 28.683.668 8.047 3.87 11.765 4.945 16.702 4.833l2.68-.062-3.408-.301c-5.011-.443-7.692-1.367-16.065-5.535-11.549-5.749-14.306-5.903-26.44-1.473-25.398 9.271-35.646 6.017-52.475-16.662-2.772-3.735-6.154-8.06-7.517-9.612l-2.478-2.823 2.221-.278c1.222-.152 4.618-.677 7.547-1.166 15.759-2.631 26.433 1.317 33.157 12.264 2.892 4.708 5.332 7.708 7.447 9.153.932.637.6.141-1.065-1.589-1.332-1.384-3.801-4.72-5.488-7.414-1.687-2.695-3.427-5.36-3.868-5.923-2.845-3.63 7.541 2.744 14.684 9.012 7.054 6.192 9.579 7.228 17.966 7.372l5.963.103-5.324-.324c-8.096-.492-10.462-1.605-18.531-8.72-15.079-13.296-31.264-18.786-47.659-16.167-5.847.934-10.833.647-13.686-.787-7.228-3.635-12.452-4.585-27.473-4.995-19.417-.53-28.009-3.36-34.857-11.482L497.96 78l-19.251.002-19.25.002-1.642 3.197Zm23.305 9.295c-.17.507-.618 2.338-.996 4.068-.681 3.124-.691 3.138-1.377 2.091-.709-1.082-.135-3.915 1.359-6.706.606-1.133 1.429-.689 1.014.547Zm25.473.906c5.247 2.932 12.301 4.482 20.421 4.487 12.67.007 21.449 7.95 29.126 26.353 1.35 3.235 1.277 3.376-1.115 2.162-3.699-1.878-5.35-3.226-10.371-8.471-4.117-4.299-11.144-8.07-23.429-12.573-7.32-2.682-11.837-5.043-13.366-6.985-1.161-1.475-3.659-6.021-3.308-6.021.091 0 1.01.471 2.042 1.048Zm-56.934 3.029c-8.754 8.201-19.92 9.951-37.06 5.81l-4.686-1.132 6.603-.32c15.798-.764 30.231-3.512 36.634-6.974 2.222-1.201 1.807-.472-1.491 2.616Zm33.608 3.985c.892 5.232.92 5.121-.818 3.191-1.427-1.585-1.49-1.786-1.264-3.994.566-5.514 1.036-5.332 2.082.803ZM457.285 96.8c-.641 4.881-10.047 12.411-20.736 16.599-2.554 1-2.493.925 1.871-2.311 3.895-2.887 8.886-7.227 14.649-12.738 4.863-4.65 4.61-4.557 4.216-1.55Zm13.942.039c-.388 1.345-.403 1.318-.428-.735-.019-1.622.077-1.954.403-1.395.277.476.286 1.226.025 2.13Zm-4.135 6.996c.38.992-1.523 5.228-3.187 7.093-3.198 3.584-3.402-3.396-.311-10.651l2.242-5.265.518 4.125c.285 2.269.617 4.383.738 4.698Zm35.831-4.194c-.203.203-3.777-2.067-4.16-2.642-1.025-1.534-.001-1.3 1.989.455 1.274 1.123 2.251 2.107 2.171 2.187Zm47.91-3.262c1.523.26 3.535.911 4.473 1.447.937.535 3.08 1.377 4.762 1.871 8.003 2.351 10.523 6.381 11.602 18.559.249 2.811.825 6.451 1.28 8.087.455 1.637.788 3.016.739 3.064-.076.076-10.672-2.076-13.365-2.715-1.285-.304-1.496-.625-3.308-5.029-5.299-12.878-10.625-20.747-16.496-24.37-1.357-.838-2.467-1.621-2.467-1.74 0-.333 9.652.291 12.78.826Zm-57.97 6.435c1.158 3.482 1.773 8.832 1.383 12.034l-.312 2.556-.747-1.396c-.411-.767-1.207-3.207-1.768-5.42-.562-2.214-1.202-4.347-1.422-4.741-.404-.721 1.077-5.695 1.696-5.695.156-.001.683 1.197 1.17 2.662Zm-15.156.532c1.504 1.799 1.615 2.131 1.817 5.431l.215 3.515-1.595 2.129-1.595 2.13-1.379-2.982c-2.069-4.47-2.237-6.58-.772-9.646 1.429-2.989 1.31-2.968 3.309-.577Zm26.231 2.944c1.418 1.464 1.449 1.578 2.006 7.365.594 6.181 1.714 15.215 2.155 17.38.702 3.45-6.054-6.685-7.797-11.697-1-2.876-1.034-3.308-.755-9.557l.292-6.546 1.329.784c.731.431 1.977 1.453 2.77 2.271Zm12.39-.175c.568.367.568.413 0 .413-.351 0-.927-.186-1.278-.413-.568-.367-.568-.413 0-.413.351 0 .927.186 1.278.413Zm-26.031 4.686c.014.476-.14.429-.607-.188-.344-.455-.61-1.413-.593-2.13l.033-1.303.574 1.491c.316.82.583 1.778.593 2.13Zm-8.815-1.619c-.397.398-.511.284-.511-.511 0-.795.114-.909.511-.511.398.397.398.625 0 1.022Zm-29.506.66c-4.231 7.117-9.769 14.446-9.769 12.927 0-1.571 4.153-8.391 6.904-11.336 3.248-3.478 4.351-4.09 2.865-1.591Zm72.659-.663c2.591.654 9.838 4.19 13.812 6.739 4.18 2.681 4.335 2.964 5.529 10.073.471 2.808 1.062 5.645 1.313 6.305.652 1.717.4 1.74-2.737.243-6.408-3.059-12.038-8.304-15.148-14.111-1.315-2.455-2.941-4.624-5.174-6.901l-3.258-3.321 1.98.271c1.088.15 2.746.465 3.683.702Zm-80.137 4.384c-.853 1.284-2.186 3.912-2.963 5.839l-1.413 3.503-5.06.729c-2.783.4-6.484 1.206-8.223 1.79-3.821 1.283-3.598 1.697-1.681-3.122l1.609-4.046 7.613-2.57c4.188-1.413 8.38-2.986 9.318-3.495 2.456-1.335 2.522-1.222.8 1.372Zm74.237 3.109c1.127 2.53 2.897 8.988 2.558 9.327-.86.86-6.644-9.429-7.385-13.136l-.273-1.361 2.05 1.46c1.482 1.056 2.326 2.082 3.05 3.71Zm-60.347-1.738c.005 1.131-.302 1.573-1.804 2.59-3.003 2.033-3.13 2.062-2.109.496a91.039 91.039 0 0 0 2.107-3.469c1.233-2.146 1.794-2.027 1.806.383Zm10.036 1.169c-.88 3.954-1.67 4.301-1.264.555.253-2.339 1.235-4.518 1.787-3.966.106.106-.13 1.641-.523 3.411Zm2.707 7.682c-2.47 3.453-2.728 3.69-2.992 2.745-.545-1.951-.371-3.185.87-6.153.684-1.635 1.384-3.733 1.556-4.662l.312-1.688 1.478 2.99 1.479 2.99-2.703 3.778Zm11.824-5.103-.572 2.13-.312-1.777c-.242-1.381-.138-2.043.466-2.969 1.038-1.591 1.228-.401.418 2.616Zm28.218-.639c.858 2.561 1.746 9.018 1.698 12.353l-.045 3.195-.581-2.343c-.584-2.353-1.666-9.503-2.021-13.349-.207-2.248.167-2.192.949.144Zm13.764 4.024c2.763 3.452 6.591 12.445 4.876 11.453-3.305-1.912-7.945-6.458-7.955-7.794-.006-.944-.332-2.695-1.47-7.896l-.28-1.278 1.571 1.704a86.883 86.883 0 0 1 3.258 3.811Zm-60.15-2.32c.01.82.18 2.19.379 3.046.305 1.313.181 1.863-.802 3.545l-1.163 1.991-.237-5.037c-.203-4.307-.139-5.114.446-5.569.895-.696 1.355-.02 1.377 2.024Zm25.094 1.252c2.009 5.208 2.082 7.087.491 12.703-.741 2.615-1.503 6.535-1.693 8.711-.741 8.449-2.266 8.767-3.253.678-.352-2.882-1.024-6.744-1.495-8.581l-.856-3.341 1.25-3.475a187.485 187.485 0 0 0 2.176-6.457c.51-1.64 1.006-3.233 1.103-3.541.324-1.026.968-.093 2.277 3.303Zm-8.977 2.155.018 2.343-1.03-2.267c-.986-2.171-.999-2.314-.306-3.373l.725-1.105.287 1.03c.159.566.296 2.084.306 3.372Zm-59.343-1.171c-2.244 5.905-3.104 7.426-4.778 8.458-.895.551-5.468 4.753-10.163 9.338-9.716 9.485-14.431 13.003-19.427 14.491-3.455 1.029-13.239 3.011-13.512 2.737-.592-.592 4.06-10.196 6.034-12.456.762-.874 2.079-2.457 2.925-3.519 1.245-1.563 2.013-2.076 4.035-2.693 7.18-2.19 14.131-7.007 18.29-12.673 2.006-2.732 4.25-3.83 10.192-4.984 2.577-.501 5.069-.99 5.537-1.087 1.867-.385 1.894-.312.867 2.388Zm-16.533-1.146c-.406.775-1.566 1.492-4.002 2.474-4.646 1.873-7.285 3.637-12.066 8.067-5.905 5.47-10.786 7.865-18.319 8.987-4.963.739-4.882.828-2.035-2.247 1.287-1.39 3.234-3.666 4.327-5.058 6.01-7.648 17.91-13.194 28.499-13.28l4.167-.033-.571 1.09Zm97.731 6.936c.995 1.326 2.807 3.464 4.026 4.753 1.525 1.612 2.374 2.941 2.72 4.26.277 1.054.987 3.005 1.578 4.336 1.769 3.984 1.036 12.44-1.492 17.204-3.398 6.404-4.751 9.348-4.977 10.835-.191 1.254-.1 1.151.574-.652.44-1.178 2.111-4.507 3.713-7.398l2.913-5.255.545 2.4c.65 2.861 2.612 6.949 4.448 9.268 1.555 1.963 1.44 3.304-.964 11.221-1.637 5.395-1.603 5.37-3.687 2.682-.961-1.241-3.165-3.534-4.896-5.096-2.856-2.577-3.136-2.972-3.014-4.26.12-1.274.095-1.31-.24-.354-.257.733-.386.833-.415.318-.023-.41-1.11-2.806-2.414-5.324-1.304-2.519-2.643-5.729-2.975-7.135-.7-2.959-.846-9.32-.191-8.307.562.87.533.275-.049-1.002-.36-.789-.295-2.84.268-8.433.811-8.05.679-13.463-.401-16.485-.535-1.498-.571-2.211-.187-3.735l.474-1.883 1.417 2.816c.779 1.549 2.231 3.9 3.226 5.226Zm12.499-6.08c.627 1.07 2.37 3.25 3.874 4.844 2.547 2.7 2.738 3.04 2.798 4.976l.064 2.078.255-1.816.256-1.816 3.016 2.242a738.598 738.598 0 0 0 4.187 3.094l1.172.852.368 10.224c.202 5.623.663 11.853 1.023 13.844 1.104 6.105.248 5.827-1.014-.329-1.452-7.089-4.45-11.422-12.535-18.122l-4.208-3.487-.08-8.52c-.043-4.686-.231-8.855-.416-9.265-.664-1.469.121-.709 1.24 1.201Zm30.255.077c.828.879 2.265 2.748 3.192 4.153 3.899 5.913 7.186 11.058 7.109 11.126-.045.041-2.183-.625-4.751-1.479l-4.669-1.553-.522-1.808c-.287-.994-.816-3.792-1.177-6.218-.36-2.426-.776-4.727-.925-5.115-.426-1.109.113-.833 1.743.894Zm-86.519 1.09c.897 5.701-1.361 13.205-5.373 17.855-1.673 1.939-3.411 4.149-3.862 4.91-1.132 1.91-1.187 1.806-.894-1.704.224-2.683-.267-10.652-.938-15.229l-.219-1.491 5.448-3.054c2.997-1.68 5.478-3.022 5.515-2.982.038.04.183.803.323 1.695Zm-19.343 2.638c0 .959-4.805 4.309-9.153 6.382-8.267 3.941-12.999 6.126-12.999 6.001 0-2.024 5.677-9.491 7.9-10.392 5.277-2.138 14.252-3.392 14.252-1.991Zm119.598 4.145c1.316 2.963 1.174 2.912-2.688-.976l-3.385-3.408 2.556 1.109c2.304 1 2.65 1.322 3.517 3.275Zm-159.02-2.122c-2.945 3.518-13.12 10.114-14.096 9.138-.45-.45 6.255-5.558 11.026-8.4 4.154-2.475 4.617-2.586 3.07-.738Zm75.098 2.556c-.122 2.167-.566 5.276-.985 6.909l-.763 2.97-1.616-3.35c-.889-1.842-1.489-3.562-1.334-3.821 2.455-4.094 4.267-6.649 4.716-6.649.112 0 .104 1.773-.018 3.941Zm-8.613-1.675c.215 1.144-.182 2.229-2.294 6.268-3.128 5.984-3.767 8.169-4.269 14.585-.592 7.56-3.669 12.986-10.877 19.185-5.106 4.391-2.031-4.443 6.125-17.597 5.28-8.514 6.519-11.409 7.202-16.826.627-4.968 3.499-8.889 4.113-5.615Zm-22.522 5.722c1.218 12.693.237 18.758-3.541 21.89-3.572 2.961-3.509 2.965-2.862-.153.305-1.471.766-6.604 1.025-11.407.608-11.268.684-11.659 2.541-12.966 2.293-1.615 2.442-1.477 2.837 2.636Zm32.698 3.036c-1.799 5.467-1.776 5.413-2.14 5.049-.141-.142.238-1.755.843-3.586.604-1.83 1.318-4.366 1.585-5.635.398-1.888.563-2.168.913-1.543.32.571.018 2.009-1.201 5.715Zm58.318-5.118c2.533 1.735 5.134 3.002 8.809 4.292 1.757.616 3.482 1.301 3.834 1.521.351.22.971.346 1.377.279 3.382-.556 9.119 6.909 13.051 16.983 2.085 5.341 5.187 10.235 8.212 12.954 4.055 3.646 4.648 3.731 1.09.157-3.976-3.994-5.659-6.883-9.146-15.704-2.378-6.013-3.606-8.152-6.39-11.128l-1.926-2.059 1.717.605c2.894 1.022 4.484 1.99 6.924 4.216 1.289 1.175 3.633 2.965 5.21 3.977 5.723 3.673 8.402 9.114 10.124 20.562 1.014 6.744 1.111 6.508-1.764 4.321-3.306-2.513-6.211-3.498-11.071-3.752l-4.105-.214-1.361-4.738c-3.964-13.803-6.734-17.179-20.36-24.814-2.873-1.61-5.327-3.254-5.454-3.653-.365-1.149-.929-5.025-.731-5.025.098 0 .98.549 1.96 1.22Zm-119.028 1.443c-3.003 5.783-10.848 13.148-17.783 16.693-2.149 1.099-2.022.563.253-1.066 1.113-.797 5.517-4.855 9.788-9.017 7.876-7.678 8.631-8.322 7.742-6.61Zm21.991 1.703c-.132.762-.421 5.411-.641 10.331-.572 12.755-.579 12.776-6.55 18.663-3.912 3.856-5.107 5.335-6.265 7.748-.812 1.691-2.545 4.202-4.004 5.801-1.415 1.551-3.495 4.377-4.623 6.28-1.802 3.042-2.445 3.722-5.324 5.639-1.802 1.2-4.138 2.894-5.192 3.767-1.054.872-3.506 2.41-5.447 3.417-1.942 1.007-4.482 2.687-5.645 3.732-2.147 1.93-2.481 2.027-1.651.474.255-.476 1.202-3.817 2.103-7.426 2.576-10.303 5.425-14.898 11.352-18.307 3.717-2.138 9.12-7.51 11.966-11.897 1.216-1.874 2.835-4.27 3.598-5.325 2.001-2.765 4.444-7.795 5.031-10.357.81-3.542 4.107-7.977 8.912-11.989 2.764-2.307 2.682-2.288 2.38-.551Zm56.913 3.966c-.488 1.79-1.106-2.242-.644-4.199.313-1.33.33-1.31.653.791.182 1.186.178 2.719-.009 3.408Zm-23.911-.666 1.712 3.407-1.875 4.013c-1.032 2.208-2.998 5.898-4.37 8.202l-2.495 4.188-.122-4.425c-.149-5.378.729-9.289 3.352-14.934 2.149-4.625 1.724-4.575 3.798-.451Zm69.263 2.99c11.63 6.435 14.446 9.859 18.077 21.973.902 3.012 1.604 5.51 1.56 5.55-.045.041-1.519.206-3.276.368l-3.195.293-3.408-2.227c-8.228-5.376-11.357-10.428-14.071-22.712-.614-2.781-1.219-5.321-1.343-5.644-.343-.895-.14-.809 5.656 2.399ZM425.01 140.3c-.142.527-.26 1.667-.263 2.532-.013 3.6-5.329 7.62-15.396 11.644-2.664 1.065-5.767 2.504-6.896 3.198-2.687 1.654-2.73 1.619-.926-.76 6.573-8.671 24.81-21.575 23.481-16.614Zm69.427 1.811c.727 3.271.263 15.024-.547 13.868-.852-1.217-1.233-7.271-.791-12.577.321-3.856.69-4.212 1.338-1.291Zm-37.958.888c-.581 1.542-2.3 4.869-3.82 7.393-1.521 2.523-3.584 6.293-4.585 8.377l-1.821 3.789-.13-1.808c-.318-4.393 1.462-8.952 4.949-12.673 1.756-1.874 3.861-4.414 4.678-5.645 1.919-2.889 2.004-2.822.729.567Zm63.068.865c6.254 5.106 9.08 9.109 10.617 15.04 1.057 4.081.654 4.2-1.975.581-1.325-1.824-4.058-5.234-6.073-7.577-3.131-3.64-8.161-11.714-7.298-11.714.128 0 2.257 1.652 4.729 3.67Zm-37.159-.049c.16 1.655.119 2.181-.117 1.491-.358-1.051-.598-4.569-.288-4.225.088.098.27 1.328.405 2.734Zm-115.794-1.096a103.02 103.02 0 0 1-3.195 1.086l-1.065.328 1.079-.863c1.089-.87 2.291-1.234 4.246-1.283.696-.018.327.236-1.065.732Zm171.589 12.905c2.087 4.665 5.087 8.175 10.007 11.712 3.235 2.325 3.237 2.323-1.002 1.853l-3.384-.375-2.398-2.597c-4.933-5.345-7.201-11.35-7.157-18.958l.029-5.148 1.407 5.538c.774 3.045 1.898 6.634 2.498 7.975Zm-178.172-12.259c-1.57 1.892-15.856 9.251-16.57 8.535-.443-.446 4.181-4.306 6.966-5.815 3.906-2.116 10.7-4.04 9.604-2.72Zm119.075 1.195c-.235 1.305-.221 1.324.233.32l.481-1.065.392 1.491c.215.82.765 2.678 1.222 4.13.615 1.951.741 3.062.483 4.26l-.348 1.62-1.616-3.408c-.888-1.874-1.584-3.695-1.547-4.046.131-1.219.327-3.199.391-3.941.035-.41.175-.745.311-.745s.135.623-.002 1.384Zm35.568 2.569c2.737 3.869 5.619 21.513 3.184 19.492-3.103-2.575-5.33-10.749-4.715-17.308.318-3.39.497-3.645 1.531-2.184Zm-93.292 5.24c-3.735 8.939-9.812 14.978-24.002 23.854-4.475 2.799-4.952 2.972-4.175 1.519.255-.475 1.14-3.415 1.967-6.533 2.886-10.875 3.449-11.475 15.106-16.105 5.821-2.312 9.813-4.424 11.305-5.982 1.756-1.833 1.727-1.367-.201 3.247Zm68.826 1.279c.342 2.297.558 4.954.48 5.904l-.142 1.728-1.543-3.195c-1.869-3.873-2.056-5.287-1.007-7.615 1.08-2.394 1.466-1.841 2.212 3.178Zm-10.917.04c1.652 3.968 1.597 4.484-1.108 10.312-1.821 3.922-2.082 4.287-2.428 3.393-.514-1.324-.065-9.512.753-13.712.357-1.836.649-3.429.649-3.539 0-.841.998.816 2.134 3.546Zm20.231.563c.363.703.756 1.278.873 1.278.118 0-.084-.575-.447-1.278-.364-.703-.757-1.278-.874-1.278-.117 0 .084.575.448 1.278Zm22.488 1.598c5.362 6.519 6.843 8.553 8.247 11.326l1.475 2.913-.527 4.801-.526 4.8-5.335-5.239-5.336-5.24-.04-6.734c-.022-3.703-.199-7.357-.393-8.118-.489-1.923-.256-1.781 2.435 1.491Zm-80.801 3.712c-2.913 6.305-8.264 12.989-15.233 19.026-2.943 2.549-3.096 2.519-2.452-.485.435-2.03.829-2.585 3.897-5.493 3.822-3.623 6.623-7.073 8.018-9.876.802-1.613 6.633-6.958 7.138-6.544.076.062-.54 1.579-1.368 3.372Zm19.733.003c.36 3.212.333 3.373-1.068 6.34-2.359 4.995-2.89 7.798-2.595 13.701l.255 5.12-1.292 2.263c-.71 1.244-2.765 3.805-4.565 5.691l-3.274 3.428-.297-3.782c-.164-2.08-.76-5.699-1.325-8.042-.996-4.133-1.007-4.373-.392-8.093l.635-3.834 5.171-5.325c3.738-3.848 5.581-6.115 6.645-8.174.81-1.567 1.531-2.79 1.603-2.719.071.071.296 1.613.499 3.426Zm25.219 2.781c-.157 2.66-1.656 8.178-3.837 14.132-1.174 3.204-2.368 6.655-2.652 7.668l-.518 1.842-.609-3.289-.609-3.289 1.737-4.237c2.081-5.073 3.007-8.779 3.016-12.057.004-1.714.277-2.884.93-3.991l.923-1.565.854 1.648c.471.908.814 2.316.765 3.138Zm9.87.187c.387 1.391.631 2.602.541 2.691-.191.192-1.804-4.022-2.196-5.736-.526-2.307.895.307 1.655 3.045Zm40.37-.293c.523.878 1.701 2.508 2.616 3.62.914 1.113 1.488 2.024 1.275 2.024-.391 0-3.165-.883-3.423-1.09-.202-.162-1.718-6.152-1.557-6.152.075 0 .565.719 1.089 1.598Zm-103.157 2.318c-1.779 2.554-4.673 5.799-6.233 6.989l-1.536 1.171 1.028-1.88c1.077-1.972 7.084-8.328 7.489-7.923.128.129-.208.868-.748 1.643Zm56.521 4.699c-.219 2.084-.928 3.96-4.233 11.193-1.071 2.343-2.409 5.877-2.976 7.854l-1.029 3.594-.874-1.976c-1.021-2.309-1.07-2.088 2.999-13.518 1.293-3.632 2.696-8.09 3.118-9.906l.768-3.303 1.219 2.025c1.018 1.692 1.184 2.355 1.008 4.037Zm-8.737-2.468c-.529 3.036-2.821 9.442-3.537 9.885-.731.451.051-4.361 1.251-7.71 2.138-5.963 3.106-6.884 2.286-2.175Zm-20.483 8.55c-.494 2.108-1.15 4.409-1.457 5.111l-.559 1.278-.333-2.115c-.433-2.759.293-7.338 1.799-11.341l1.188-3.157.131 3.195c.088 2.163-.16 4.433-.769 7.029Zm74.35-5.432c2.129 6.262 7.514 12.04 14.519 15.578 4.923 2.485 8.118 8.193 8.817 15.748l.188 2.039-1.333-1.063c-.734-.585-3.731-2.735-6.659-4.779-9.287-6.48-13.211-11.54-13.826-17.832-.16-1.64-.949-4.928-1.752-7.308-1.592-4.712-1.62-4.832-1.124-4.832.186 0 .713 1.102 1.17 2.449Zm-40.713 1.36c.01.432-.17.369-.611-.213-.344-.455-.624-1.211-.624-1.679.002-1.033 1.208.815 1.235 1.892Zm51.985 1.107c1.757 1.217 5.974 3.797 9.372 5.734 8.95 5.101 18.317 12.074 18.317 13.635 0 .943-16.194-4.044-21.086-6.493-7.053-3.53-13.231-9.971-14.88-15.512l-.272-.914 2.677.668c1.813.453 3.708 1.383 5.872 2.882Zm-137.392-1.316c-1.852 1.659-7.217 4.92-8.093 4.92-.172 0 1.581-1.261 3.896-2.802 2.315-1.541 4.489-3.074 4.833-3.408.343-.333.817-.606 1.053-.606s-.524.853-1.689 1.896Zm152.506.979c.411 1.113 1.319 3.078 2.018 4.367l1.272 2.342-2.919-2.825c-1.605-1.554-3.747-3.413-4.761-4.13l-1.842-1.305 2.268-.157c1.248-.087 2.482-.193 2.743-.236.261-.044.811.831 1.221 1.944Zm-31.572 8.444c.817.954 1.673 2.392 1.904 3.195.254.882.436 1.123.46.608.128-2.721 2.474 2.897 2.733 6.547.359 5.063 1.173 8.69 3.308 14.753 2.467 7.004 2.443 9.287-.179 17.465-1.052 3.28-2.051 6.897-2.221 8.037l-.308 2.073-1.734-2.073c-.953-1.14-3.78-4.182-6.282-6.759l-4.55-4.686-.225-6.39c-.325-9.233-1.939-16.054-5.707-24.119l-1.915-4.098 1.683-5.061c.926-2.783 1.92-6.065 2.21-7.293l.527-2.233 4.406 4.15c2.423 2.282 5.074 4.93 5.89 5.884Zm26.381-7.962c3.822 2.589 6.782 5.19 8.775 7.712.845 1.069 1.68 1.987 1.856 2.04.175.053.319.192.319.309v.625c0 .226-1.198-.416-2.662-1.428s-5.25-3.334-8.413-5.161c-3.163-1.826-6.707-3.963-7.875-4.749l-2.125-1.427h3.528c3.519 0 3.536.005 6.597 2.079Zm-58.622 1.435c5.616 8.431 6.906 13.96 4.482 19.215l-1.15 2.494-.035-4.198c-.039-4.891-.81-8.202-2.989-12.845-1.594-3.395-2.863-7.328-2.366-7.328.157 0 1.083 1.198 2.058 2.662Zm37.611 9.514c.018 2.565-.368 2.545-1.962-.101-1.497-2.486-1.784-4.571-1.154-8.383.338-2.048 3.093 5.455 3.116 8.484Zm-112.75-4.615c-.431 2.768-.836 3.344-3.925 5.591-1.658 1.206-3.014 2.079-3.014 1.941 0-.794 6.423-9.129 7.035-9.129.084 0 .041.718-.096 1.597Zm52.397 5.576c-1.424 4.495-1.933 8.655-1.545 12.635l.332 3.408.266-5.112c.324-6.192 1.876-12.277 2.663-10.437 1.173 2.743.444 19.109-1.061 23.816l-.464 1.452-1.016-1.665c-4.453-7.296-4.253-22.137.411-30.631 1.164-2.119 1.495 3.121.414 6.534Zm33.172-4.73c4.554 4.344 5.632 6.138 4.834 8.046l-.667 1.598-1.603-2.742a113.96 113.96 0 0 0-3.407-5.397c-3.185-4.688-2.945-5.117.843-1.505Zm-3.513 3.094c-.018.82-.138 1.204-.268.852-.13-.351-.586-1.597-1.014-2.769l-.779-2.13 1.046 1.278c.692.846 1.036 1.783 1.015 2.769Zm-120.146 4.694c-1.937 2.112-4.559 5.227-5.825 6.922-4.269 5.711-5.24 6.329-3.068 1.949 2.232-4.499 10.145-12.713 12.247-12.713.093 0-1.416 1.729-3.354 3.842Zm124.426.631c1.934 3.368 2.172 4.041 1.959 5.538-1.094 7.692-.633 12.008 2.084 19.513 1.401 3.871 1.509 7.687.194 6.874-.182-.112-.316.333-.297.991.018.657-1.121 3.583-2.532 6.503l-2.566 5.31-.707-1.621c-1.762-4.04-1.888-7.47-.611-16.578l.939-6.698 1.765 3.716c.971 2.043 2.113 4.626 2.538 5.739.425 1.113.863 2.023.974 2.023.432 0-.424-2.318-2.668-7.221-2.336-5.107-2.341-5.124-2.555-10.208-.118-2.801-.499-6.686-.847-8.635a733.205 733.205 0 0 1-.899-5.119c-.311-1.844.161-4.881.675-4.336.194.207 1.343 2.101 2.554 4.209Zm8.262 4.899c3.453 8.596 5.803 23.429 3.712 23.429-.922 0-3.094-6.253-3.469-9.984-.509-5.076-1.055-7.35-2.853-11.88-1.408-3.548-1.46-3.855-.929-5.465l.563-1.705.761.992c.418.546 1.415 2.621 2.215 4.613Zm-36.386 6.495c-.508 5.729-.329 15.897.309 17.645.441 1.204-1.271-.412-3.159-2.984l-1.523-2.076.981-2.618c1.293-3.446 2.071-8.765 2.129-14.545l.047-4.686.872 1.653c.838 1.589.851 1.886.344 7.611Zm-60.661-5.415c-.319 1.163-.596 1.827-.616 1.476-.046-.819.822-3.966 1.035-3.753.088.089-.1 1.113-.419 2.277Zm188.055-1.719c.586.335 1.256.609 1.491.609.234 0-.053-.274-.639-.609-.586-.335-1.257-.609-1.491-.609-.234 0 .053.274.639.609Zm-93.895 8.615c1.757 6.926 1.269 16.856-.581 11.825-1.79-4.867-2.401-7.985-2.419-12.346-.03-7.518 1.006-7.338 3 .521Zm-69.055 6.822c-2.005 8.043-5.809 16.799-6.847 15.761-.77-.771 3.61-13.907 6.278-18.823 1.809-3.336 1.961-2.521.569 3.062Zm74.438 11.4a23.107 23.107 0 0 1-1.507 2.519l-.873 1.241-.778-2.289c-.745-2.191-.746-2.427-.039-5.573l.738-3.284 1.547 3.054c1.473 2.91 1.517 3.115.912 4.332Zm45.999-5.547c.51 1.049 1 1.834 1.089 1.745.193-.193-1.528-3.653-1.817-3.653-.109 0 .218.859.728 1.908Zm-92.278 5.867c-.276 1.734-2.979 8.638-3.693 9.435-.585.652.778-4.037 2.247-7.732 1.58-3.971 1.86-4.301 1.446-1.703Zm-34.788 5.926c-.337.629-.599.793-.714.448-.187-.561.725-1.963 1.059-1.629.103.103-.053.634-.345 1.181Zm89.068 14.974c0 .073.623.696 1.384 1.384l1.385 1.251-1.252-1.384c-1.166-1.291-1.517-1.58-1.517-1.251Zm32.482 6.469c.005.937.092 1.27.194.741.102-.53.098-1.297-.009-1.704-.106-.408-.19.026-.185.963Z" style="fill: rgb(73, 80, 87); fill-opacity: 1;" class="fills"/></svg>