<svg width="340.618" xmlns="http://www.w3.org/2000/svg" height="190.575" viewBox="364.683 -162.613 340.618 190.575" fill="none"><path d="M545.113-162.568c0 .495 2.294 2.913 4.574 4.821.931.779 2.144 1.824 2.696 2.322 2.146 1.939 8.658 4.493 12.819 5.029 4.652.598 15.052.149 17.193-.742.75-.313 1.764-.397 4.796-.397 5.345 0 8.289.744 14.996 3.788.33.149 1.402.815 2.382 1.479l1.782 1.208 4.213-.008c3.412-.006 4.509-.094 5.772-.463 1.309-.382 2.346-.454 6.475-.451 5.196.004 6.209.133 10.071 1.278 1.253.371 3.294.963 4.535 1.314 1.241.351 2.788.908 3.439 1.238.65.33 2.25 1.015 3.554 1.523 1.304.509 2.724 1.171 3.155 1.474 1.87 1.308 6.289 5.143 8.714 7.561 6.117 6.101 9.844 7.639 18.493 7.634 2.661-.001 4.808.028 4.77.066-.322.322-4.907.852-7.451.861-6.499.023-11.311-2.185-17.945-8.232-1.006-.917-2.128-1.825-2.494-2.017-.365-.192-1.958-1.324-3.539-2.516-3.97-2.993-7.084-4.48-11.873-5.669a69.735 69.735 0 0 1-3.358-.954c-4.996-1.573-5.376-1.636-8.98-1.49-1.853.075-4.233.298-5.288.497-1.055.198-3.483.484-5.396.635-4.481.355-4.319.279-3.201 1.499 1.403 1.53 2.898 3.542 5.342 7.184 1.214 1.81 2.821 3.975 3.57 4.811.75.836 2.227 2.531 3.282 3.767 4.13 4.839 5.32 6.101 6.475 6.865a38.18 38.18 0 0 1 2.158 1.551c.528.417 1.576 1.058 2.331 1.424.754.366 1.742.895 2.195 1.175 2.703 1.67 9.003 3.02 13.1 2.807 4.752-.248 8.506-.623 9.731-.973 3.966-1.134 5.324-1.636 8.015-2.962 4.704-2.319 6.532-2.782 11.031-2.798 4.336-.014 3.944-.145 10.469 3.493 2.131 1.188 4.551 2.365 5.377 2.615.826.251 2.158.719 2.96 1.041 1.747.702 5.324 1.582 6.563 1.616.489.013 1.16.105 1.49.205l.599.182-.632.173c-.347.095-1.048.057-1.558-.084-.51-.142-1.553-.258-2.318-.259-.773-.001-1.704-.163-2.096-.366-.387-.2-1.526-.534-2.531-.742-1.004-.208-2.165-.578-2.58-.823-.415-.245-1.51-.729-2.434-1.076-2.591-.973-4.482-1.898-5.314-2.598-2.004-1.687-8.061-2.592-11.592-1.732-3.621.882-6.227 1.74-8.687 2.862-3.843 1.751-10.98 3.566-14.575 3.706-6.647.258-15.525-1.248-17.881-3.034a85.223 85.223 0 0 0-3.044-2.155c-1.006-.679-2.24-1.745-2.742-2.369-.502-.623-2.046-2.334-3.431-3.801-3.025-3.205-5.955-6.716-9.436-11.309-7.122-9.397-16.506-14.39-27.928-14.859-5.045-.207-7.503.172-5.544.855 1.71.596 7.154 4.993 9.569 7.73 1.839 2.083 3.254 4.665 5.504 10.045.69 1.649 1.736 4.062 2.326 5.362 1.228 2.709 1.234 2.868.09 2.404-.792-.321-.907-.522-2.017-3.513-1.754-4.73-2.53-6.309-4.335-8.815-3.908-5.425-6.743-8.037-11.899-10.961-3.363-1.908-3.417-1.922-9.003-2.209-2.657-.137-4.977-.302-5.156-.368-.178-.065-1.437-.282-2.796-.484-3.96-.585-8.822-2.418-10.775-4.062-1.095-.921-1.262-.804-1.259.884.002 1.755.826 3.805 1.716 4.272.308.162 1.045.69 1.639 1.174 2.034 1.66 7.245 4.084 11.99 5.579 2.335.736 2.946.965 6.475 2.424 1.121.464 2.679 1.027 3.462 1.251 2.381.682 6.549 3.331 9.325 5.926 1.351 1.264 3.136 2.798 3.966 3.409.981.722 1.815 1.602 2.383 2.514.833 1.337.959 1.432 2.68 2.032 2.265.79 2.236.77 2.857 1.994.589 1.163.514 1.198-1.328.617-1.652-.521-1.7-.435-.914 1.648 1.469 3.895 3.144 6.209 6.577 9.084l.831.696-1.857-.573c-2.384-.735-3.187-1.597-6.16-6.612-4.944-8.343-11.072-14.004-18.273-16.885a88.939 88.939 0 0 1-3.549-1.505c-1.841-.856-4.873-1.905-6.717-2.324-5.431-1.233-10.047-3.514-15.106-7.462-6.027-4.704-7.372-5.363-6.52-3.194.583 1.483 2.24 2.51 12.875 7.984 5.392 2.775 7.243 3.918 8.409 5.193 1.258 1.375 3.339 4.311 4.564 6.439 2.435 4.232 8.21 9.313 13.526 11.9 8.911 4.337 9.194 4.462 12.338 5.46 2.245.713 2.435.825 3.191 1.878l.804 1.119-1.992-.691c-1.095-.38-3.61-1.024-5.588-1.432-5.032-1.035-7.227-1.821-9.941-3.558-2.685-1.718-3.054-1.985-4.408-3.192-1.413-1.26-1.884-1.408-1.318-.414.25.438.324 2.578.34 9.793.048 21.306 2.668 29.465 11.49 35.78 2.712 1.941 13.166 6.501 16.399 7.152.609.123 1.97.394 3.026.604 1.055.209 2.889.683 4.076 1.055 1.187.371 3.238.97 4.557 1.33 7.945 2.172 12.369 5.125 15.683 10.469.87 1.404 2.492 3.67 3.602 5.036 1.111 1.366 2.491 3.21 3.067 4.098 1.275 1.966 5.771 6.937 7.025 7.766.5.332 1.375 1.154 1.943 1.828l1.033 1.225-2.148-1.474c-4.065-2.79-9.841-9.078-13.702-14.917-5.114-7.733-9.481-10.815-17.499-12.349-2.635-.505-5.98-1.512-7.398-2.228-.659-.333-1.9-.739-2.757-.902-.858-.163-2.746-.516-4.197-.784-8.877-1.641-17.845-7.291-20.863-13.145-.396-.767-1.244-2.34-1.884-3.496-2.486-4.488-3.51-9.91-3.516-18.616-.005-8.289-.294-11.773-1.31-15.777-.846-3.338-.979-3.642-4.89-11.24-.678-1.318-.989-1.643-4.585-4.796-4.38-3.84-8.612-6.714-9.128-6.199-.133.134-.258 2.443-.29 5.375-.056 5.055.028 6.027.903 10.416.184.923.502 2.542.707 3.597 1.479 7.628 5.535 15.413 11.127 21.361 7.46 7.934 11.71 16.869 11.514 24.203-.333 12.469 2.878 24.232 9.263 33.933.825 1.253 1.68 2.633 1.901 3.067.813 1.597 2.676 4.308 4.56 6.638 3.077 3.804 4.675 6.124 4.947 7.18.138.539.362 1.33.496 1.758.32 1.019.343 8.017.028 8.58-.176.315-.273-.479-.353-2.903-.164-4.972-.927-6.858-4.654-11.52-4.205-5.259-11.895-17.777-13.57-22.09-2.469-6.36-3.549-11.845-3.67-18.648-.118-6.692-.889-11.171-2.724-15.827-1.21-3.071-5.628-9.732-8.199-12.36-.866-.887-2.422-2.677-3.458-3.978-1.036-1.302-2.183-2.671-2.549-3.043-2.944-2.989-7.029-13.372-7.518-19.109-.084-.989-.253-2.338-.374-2.997-.122-.66-.33-3.465-.464-6.235-.253-5.272-.564-7.709-1.123-8.811-.184-.361-.323-.729-.309-.817.013-.088-.929-.664-2.094-1.279-6.072-3.209-9.682-5.665-13.399-9.117-6.148-5.71-5.943-5.641-8.456-2.836-2.201 2.459-.934 5.365 5.811 13.328 1.592 1.881 3.4 4.093 4.018 4.917a474.97 474.97 0 0 0 2.039 2.696 41.933 41.933 0 0 1 1.713 2.458c.439.693.877 1.259.975 1.259.334 0 1.184 1.8 1.585 3.358.221.857.491 1.666.599 1.798 1.907 2.316 2.244 10.211.806 18.825-.526 3.145-.279 11.355.386 12.865.24.547.517 1.356.614 1.798.097.443 1.142 2.783 2.322 5.201 1.181 2.418 2.11 4.434 2.064 4.479-.045.046-.945-.638-2-1.519a214.733 214.733 0 0 0-2.521-2.08c-2.18-1.737-3.247-9.465-2.779-20.144.36-8.239-.952-14.972-4.339-22.275-1.244-2.68-4.056-7.256-4.402-7.162-.122.033-.774.457-1.451.943-1.142.82-1.633 1.374-3.639 4.105-.851 1.158-.807 1.176-1.991-.82l-.586-.988.862-1.29a21.24 21.24 0 0 1 1.886-2.369c2.282-2.402 2.519-3.498 1.162-5.364-3.325-4.573-9.653-11.53-9.99-10.984-.068.11.079 1.216.326 2.458.247 1.242.571 3.068.719 4.057.665 4.414 1.396 6.895 3.049 10.343l1.336 2.789-1.055 1.51c-1.361 1.946-1.376 1.947-2.339.084-.45-.869-1.063-1.942-1.364-2.385-2.906-4.282-4.222-9.104-4.726-17.316-.086-1.387-.484-.691-1.382 2.414-.766 2.649-1.522 4.691-2.426 6.551-.291.6-.115 5.284.301 8.001.152.989.31 4.496.352 7.794.043 3.297.109 6.157.148 6.355.118.594-.29 4.082-.687 5.875-.389 1.758-1.552 4.284-3.229 7.015-.547.89-1.693 2.913-2.548 4.496-.855 1.582-1.987 3.515-2.515 4.294-3.106 4.578-4.685 9.837-4.859 16.178-.056 2.062-.226 4.827-.378 6.146-.348 3.023-.124 6.908.539 9.384.959 3.578.961 4.04.025 4.94-.449.431-1.087 1.243-1.418 1.803-.769 1.303-.734 1.353-.68-.959.105-4.609-.366-12.543-.961-16.174-.659-4.024-.24-9.726.947-12.877.811-2.153 3.18-6.8 4.169-8.179.473-.659 1.255-1.9 1.739-2.758a146.75 146.75 0 0 1 2.114-3.581c.68-1.112 1.502-2.839 1.827-3.837.326-.998.918-2.751 1.315-3.897 1.06-3.049 1.428-4.873 1.573-7.787.072-1.43.184-2.855.251-3.165.153-.715.134-6.314-.026-7.589a38.257 38.257 0 0 0-.357-2.158c-.13-.66-.264-1.461-.297-1.78-.033-.319-.21-.63-.393-.691-.183-.06-.27-.007-.193.117.448.726-2.406 4.694-6.333 8.803l-2.726 2.853.07 2.303c.039 1.267.162 2.681.273 3.143.111.462.394 2.711.628 4.998.442 4.322.435 4.51-.364 11.077-.376 3.088-3.037 9.147-5.251 11.954-.351.446-1.287 1.705-2.078 2.798-3.533 4.881-7.812 9.701-10.791 12.159-.396.327-3.31 2.276-6.475 4.331-13.601 8.832-19.076 13.539-21.706 18.659-2.403 4.678-4.103 10.384-4.423 14.839-.199 2.784-.8 6.432-1.212 7.365-.187.424-.681 2.259-1.097 4.077-1.403 6.138-6.319 14.859-9.442 16.752-.444.269-.592.469-.395.535 1.127.375 5.767-5.727 8.063-10.604 1.3-2.761 1.706-3.984 2.396-7.213.225-1.056.568-2.297.762-2.758.444-1.057 1.186-5.294 1.392-7.939.312-4.024.746-5.811 2.704-11.126 2.466-6.692 7.363-11.852 17.562-18.506l6.695-4.367c7.491-4.886 9.817-7.206 17.414-17.372 3.616-4.84 5.861-9.69 6.346-13.712.111-.923.329-2.596.484-3.717.356-2.569.132-6.329-.728-12.23a36.03 36.03 0 0 1-.281-3.396l-.054-1.837 2.268-2.367c3.085-3.219 4.3-4.698 5.442-6.629 1.171-1.98 1.181-1.969 1.635 1.759.179 1.475.189 6.063.016 7.674-.077.725-.203 2.344-.279 3.597-.15 2.482-.363 3.559-1.211 6.115-1.813 5.463-2.548 7.257-3.765 9.19-.72 1.145-1.5 2.459-1.733 2.92-.232.462-.89 1.496-1.46 2.299-4.835 6.798-6.595 14.136-5.381 22.438.977 6.683 1.122 17.885.247 19.148-2.251 3.253-4.594 8.349-5.277 11.481a284.135 284.135 0 0 1-1.305 5.547c-.62 2.525-.847 3.977-.847 5.415 0 2.403-.777 3.644-4.093 6.544a561.14 561.14 0 0 0-2.622 2.304c-.636.568-2.832 3.045-4.469 5.04-1.939 2.364-4.063 8.034-3.009 8.034.191 0 .376-.305 1.962-3.238 1.088-2.011 2.938-4.426 5.328-6.954 1.122-1.187 2.35-2.536 2.73-2.998.699-.848 3.671-4.335 3.884-4.556.064-.066.046.635-.039 1.559-.085.923-.267 3.621-.405 5.995-.306 5.278-.886 7.799-2.774 12.07-1.827 4.131-2.044 4.525-3.317 6.006-.61.709-1.061 1.338-1.002 1.396.197.197 2.032-1.105 2.473-1.755.24-.353.714-.923 1.054-1.266 2.687-2.712 4.878-8.755 5.243-14.454.536-8.389.983-11.761 1.679-12.669 4.149-5.412 9.127-17.929 9.127-22.95 0-.441.986-1.634 3.793-4.59 5.586-5.883 8.019-9.72 8.821-13.911.19-.995.552-2.477.804-3.293 1.112-3.598 1.909-13.51 1.311-16.297-1.02-4.754-1.018-4.675-.202-9.924.648-4.171 2.002-8.959 3.179-11.244.692-1.342 1.625-2.597 4.237-5.694.923-1.095 1.845-2.229 2.049-2.52l.371-.529.364.572c.201.315.817 1.611 1.369 2.88l1.003 2.307-.577 1.05c-.317.577-.815 2.021-1.106 3.208-.679 2.771-1.941 7.163-2.734 9.517-2.659 7.892-2.235 18.485 1.093 27.294 3.707 9.812 2.69 20.698-3.078 32.934-.611 1.298-1.408 3.402-1.77 4.677-.361 1.274-.84 2.802-1.063 3.396-.861 2.287-1.364 5.601-1.566 10.312-.111 2.572-.318 6.066-.461 7.764-.517 6.156-.435 17.314.159 21.492.946 6.654 1.161 10.416.712 12.482-1.044 4.8-1.522 8.382-1.12 8.382.132 0 .24-.222.24-.492s.153-.788.341-1.151c.665-1.287 1.33-3.789 1.697-6.391.205-1.451.532-3.361.726-4.244.585-2.662.417-5.027-.612-8.586-.846-2.928-1.073-10.716-.474-16.307.275-2.572.599-6.187.72-8.033.12-1.847.378-4.167.572-5.156.194-.989.474-2.932.622-4.317.294-2.75 1.593-9.445 1.97-10.156.13-.244.754-1.161 1.388-2.038 2.223-3.078 4.523-7.523 5.664-10.947.247-.743.296-.797.216-.24-.582 4.032-.649 5.103-.533 8.594.133 4.052.62 6.672 1.965 10.591.317.923.898 2.811 1.292 4.196.393 1.385.989 3.441 1.323 4.568 2.107 7.093 1.865 14.157-.717 20.921-.903 2.367-1.018 3.112-.445 2.892.388-.149 2.747-4.739 2.753-5.357.002-.199.274-1.225.603-2.28 1.742-5.574 1.326-13.155-1.076-19.637-2.993-8.078-4.043-15.805-3.261-24.015 1.293-13.573 1.933-15.794 8.227-28.569l1.2-2.437.513.693c.282.382 1.293 1.231 2.248 1.887.954.656 2.004 1.411 2.334 1.678.33.267.708.491.839.497.221.012 2.005 3.006 5.056 8.483.67 1.203 1.683 2.88 2.252 3.726 4.543 6.758 6.233 13.077 5.522 20.643-.308 3.274-.727 4.709-2.872 9.833-.69 1.648-1.606 3.86-2.035 4.916-.429 1.055-1.515 3.159-2.413 4.676-1.656 2.797-2.006 3.456-4.182 7.87-2.327 4.722-2.969 9.757-2.062 16.186.189 1.343.46 3.468.602 4.721.141 1.253.363 2.818.492 3.477.846 4.309.846 11.018 0 14.988-.485 2.273-.473 2.342.322 1.98.577-.264 1.115-1.644 1.95-5.012.584-2.351.478-6.95-.262-11.356-.343-2.045-.708-4.542-.811-5.551a59.76 59.76 0 0 0-.501-3.597c-.682-3.833-.29-9.591.817-11.995.324-.704 1.077-2.359 1.673-3.678.597-1.318 1.472-3.072 1.946-3.896l1.72-2.998c.472-.824.997-1.661 1.166-1.859.657-.77 2.328-3.89 3.04-5.677.411-1.032.915-2.2 1.12-2.596.346-.669.904-2.095 1.971-5.036.974-2.684 1.533-11.121.966-14.583-.466-2.846-3.459-9.814-5.17-12.036-.508-.659-1.397-2.11-1.975-3.224l-1.051-2.025 1.049.946c1.344 1.212 3.049 3.46 3.9 5.144.366.725 1.248 2.202 1.959 3.283.711 1.082 1.451 2.43 1.644 2.998.617 1.812 1.793 7.062 1.797 8.02.002.509.227 2.113.501 3.563.378 2.008.544 4.242.697 9.353.256 8.584.897 11.719 3.198 15.645 1.819 3.102 5.872 5.6 6.487 3.998.225-.588-.046-.818-.961-.818-2.015 0-2.963-1.344-5.042-7.151-2.162-6.039-2.083-5.599-1.984-10.955.215-11.579.123-14.166-.599-16.786-1.869-6.792-4.582-13.575-6.291-15.734-2.087-2.635-4.658-5.389-6.897-7.388-2.192-1.956-2.583-2.421-2.925-3.477-.218-.67-.605-1.567-.862-1.993-.856-1.421-2.872-5.677-3.609-7.619-1.018-2.682-1.445-10.156-.812-14.219.57-3.658.866-7.56.868-11.471.002-3.594-.086-4.025-1.432-7.044-.383-.857-.861-2.159-1.063-2.893-.203-.734-.64-1.705-.971-2.158-.332-.453-1.01-1.418-1.507-2.143a70.367 70.367 0 0 0-1.861-2.564 120.374 120.374 0 0 1-1.79-2.398c-.458-.634-1.541-1.963-2.408-2.952-5.178-5.912-8.026-10.099-8.393-12.338l-.198-1.211 1.472-1.499c1.923-1.958 1.816-1.987 5.644 1.559 4.493 4.163 7.575 6.536 10.83 8.343 7.761 4.306 7.208 3.374 7.679 12.94.137 2.77.347 5.575.468 6.235.121.659.29 2.008.376 2.997.278 3.204 1.854 8.656 3.612 12.496.58 1.267 1.055 2.383 1.055 2.481 0 .342 2.64 4.102 3.965 5.647.736.857 1.952 2.298 2.703 3.202.751.904 1.723 1.983 2.161 2.398 2.163 2.051 7.156 9.523 8.278 12.386 1.811 4.624 2.531 8.896 2.788 16.546.205 6.077.637 8.813 2.197 13.891 1.513 4.929 1.996 5.923 7.003 14.407 2.037 3.451 6.525 10.102 8.011 11.87 3.628 4.318 4.641 6.985 4.713 12.405.028 2.035.139 3.15.334 3.345.231.231.293.214.293-.077 0-.204.175-.723.39-1.153.542-1.086.523-7.114-.029-9.464-.586-2.493-1.086-3.283-5.877-9.29-1.121-1.406-2.578-3.492-3.237-4.636a88.989 88.989 0 0 0-2.477-3.999c-2.193-3.296-5.797-10.708-6.521-13.415a60.094 60.094 0 0 0-.842-2.733c-1.385-4.149-1.962-9.312-2.13-19.064-.029-1.649-.133-3.484-.232-4.077l-.179-1.079.915 1.674c2.36 4.32 8.606 9.228 14.343 11.271.66.235 1.89.693 2.733 1.017.844.324 2.678.792 4.077 1.039 1.399.248 2.92.562 3.381.698.461.136 1.132.248 1.491.248.36 0 1.278.316 2.04.701 1.51.765 4.903 1.783 7.741 2.323 3.25.619 7.241 2.049 8.927 3.199 2.096 1.43 5.889 5.656 8.216 9.156.91 1.368 2.435 3.426 3.391 4.574.955 1.148 2.191 2.69 2.747 3.426 1.149 1.522 5.26 5.305 7.055 6.492.66.436 1.671 1.122 2.248 1.524 2.909 2.027.597-1.538-2.464-3.8-1.475-1.089-5.249-5.458-7.059-8.171-.66-.989-1.398-2.016-1.639-2.283-1.475-1.633-3.622-4.477-4.367-5.786-3.046-5.354-8.206-8.875-16.095-10.982-1.385-.369-3.49-.972-4.677-1.339-2.555-.791-3.745-1.076-5.968-1.429-3.564-.567-13.762-4.856-17.053-7.172-6.109-4.299-9.569-10.248-10.335-17.771-.074-.726-.354-2.776-.622-4.556-.549-3.647-.817-22.458-.314-22.083.132.099.671.517 1.199.93 3.855 3.017 8.685 5.134 12.949 5.677 1.281.163 1.916.332 5.915 1.573 2.537.788 2.576.811 4.917 2.972 2.84 2.62 4.067 3.529 6.959 5.151 3.821 2.145 8.966 7.324 11.04 11.116.293.536.788 1.362 1.099 1.836 2.315 3.524 3.486 5.762 4.73 9.036 1.256 3.306 4.317 8.498 5.621 9.534a78.999 78.999 0 0 1 2.249 1.89c.714.624 1.851 1.448 2.526 1.831.675.383 2.064 1.193 3.086 1.8 1.022.606 1.858 1.023 1.858.927-.001-.097-1.428-1.039-3.173-2.095-3.418-2.067-7.089-5.128-7.876-6.568a88.604 88.604 0 0 0-1.651-2.784c-.647-1.055-1.58-2.998-2.073-4.317-1.233-3.305-3.321-7.308-5.061-9.705-.236-.325-.647-1.027-.913-1.558-1.804-3.608-7.278-9.082-11.507-11.509-2.7-1.549-4.144-2.608-6.235-4.573l-1.439-1.352 1.404.618c1.471.646 3.055 1.706 5.077 3.396 1.477 1.235 4.458 3.048 5.739 3.492 2.915 1.009 7.365 6.708 10.953 14.028 1.221 2.489 2.512 4.988 2.869 5.554.357.566.888 1.915 1.18 2.998 1.097 4.067 1.88 5.145 7.311 10.063 1.801 1.631 4.579 3.464 5.963 3.935 1.199.407 1.212.422.512.562l-.72.143.955.189c.525.104 1.874.55 2.997.992 2.502.983 2.676 1.024 2.807.671.165-.449-1.735-1.415-4.8-2.443-6.567-2.2-13.332-8.796-14.546-14.182-.164-.725-.623-1.912-1.02-2.638-.398-.725-1.794-3.459-3.103-6.075-2.869-5.736-4.502-8.28-6.975-10.863l-1.868-1.951 2.084.587c1.146.322 2.471.781 2.944 1.018.474.238 1.583.669 2.467.96.883.29 1.875.739 2.204.998.329.259.974.628 1.434.82 1.44.602 5.508 3.859 8.469 6.782 2.786 2.75 4.309 4.505 7.099 8.176a247.13 247.13 0 0 0 2.233 2.898c.466.589 1.396 1.98 2.067 3.092 3.087 5.111 7.501 8.183 13.075 9.1 1.877.309 2.318.315 2.878.041.643-.315.617-.329-.917-.496-1.535-.166-4.485-1.228-5.773-2.077-1.43-.943-4.238-3.204-4.354-3.507-.069-.178-.977-1.391-2.018-2.695-2.232-2.795-3.461-4.586-4.839-7.056-2.471-4.427-10.865-12.862-15.295-15.368-4.117-2.329-8.871-4.356-13.145-5.604l-3.086-.904c-.962-.284-2.066-1.079-6.149-4.432-1.324-1.087-2.837-2.196-3.363-2.464-3.013-1.538-7.316-6.505-8.872-10.242-.919-2.209-.911-2.225.853-1.692 1.352.408 1.499.527 2.259 1.811 3.251 5.497 7.512 9.429 12.195 11.252 1.147.446 2.788 1.124 3.645 1.506 2.608 1.162 7.331 2.406 9.105 2.397 2.009-.01 1.621-.378-1.384-1.312-13.885-4.316-16.44-5.896-20.027-12.388-.486-.879-.883-1.647-.883-1.707 0-.06.717.09 1.594.334.878.243 2.254.54 3.058.659 7.906 1.176 14.215 2.899 17.17 4.692.726.44 2 1.141 2.832 1.558 1.876.941 4.506 2.627 5.381 3.451.363.341 1.147.956 1.743 1.366.595.409 1.255 1.008 1.466 1.33.356.544 1.288.828 1.288.394 0-1.238-4.276-5.683-6.852-7.123a78.056 78.056 0 0 1-3.673-2.239c-2.359-1.538-6.355-3.281-8.06-3.517-.66-.092-2.062-.418-3.118-.726-1.055-.308-2.713-.678-3.685-.822-1.75-.26-7.056-1.507-9.648-2.267l-1.342-.393-1.107-2.452a160.913 160.913 0 0 1-1.983-4.61c-4.098-10.083-5.682-12.203-13.434-17.983l-2.094-1.561h2.618c5.713.001 9.201.591 13.6 2.302 3.149 1.225 3.686 1.489 5.565 2.741.923.616 2.279 1.501 3.012 1.968 2.231 1.418 5.346 4.592 8.263 8.419 4.603 6.037 6.231 7.931 12.957 15.071.583.619 1.792 1.599 2.687 2.178a54.14 54.14 0 0 1 2.772 1.926c3.802 2.902 16.721 3.845 24.648 1.798 5.242-1.354 5.621-1.477 8.131-2.642 7.296-3.387 17.134-4.027 19.427-1.263.405.487 2.705 1.662 4.79 2.446.859.323 2.209.888 3.001 1.256 1.834.851 4.947 1.654 7.554 1.947 1.121.127 2.35.336 2.732.465.67.228 2.549-.113 2.54-.461-.013-.496-.571-.736-2.041-.878-1.996-.192-6.005-1.115-6.975-1.606-.381-.192-1.61-.651-2.731-1.019-1.9-.624-4.132-1.743-7.914-3.969-4.975-2.928-9.176-3.186-16.187-.994-.395.124-1.909.822-3.363 1.552-9.879 4.958-23.721 5.318-31.169.81-.792-.479-1.559-.871-1.706-.871-.147-.001-.968-.514-1.824-1.14a167.31 167.31 0 0 0-2.618-1.877c-1.021-.709-2.843-2.668-6.682-7.186a294.248 294.248 0 0 0-3.005-3.482c-.663-.752-2.064-2.647-3.113-4.213a100.52 100.52 0 0 0-5.305-7.223l-.629-.779.571-.005c1.127-.01 7.547-.723 8.603-.956.594-.131 2.646-.308 4.561-.392 3.778-.168 3.539-.209 9.948 1.716 1.055.316 2.61.749 3.456.962 3.896.979 6.705 2.357 10.346 5.074 1.509 1.127 3.3 2.406 3.98 2.843.679.436 1.974 1.482 2.878 2.324 7.374 6.872 14.27 9.116 23.101 7.516 3.724-.674 3.892-1.586.244-1.32-2.844.207-7.046.016-8.615-.392-.725-.189-1.517-.344-1.761-.344-.243 0-.895-.206-1.448-.457-.553-.252-1.654-.743-2.445-1.092-1.843-.813-3.823-2.331-6.235-4.783-5.193-5.278-9.183-8.309-12.981-9.859a471.18 471.18 0 0 1-4.566-1.889c-.814-.346-2.487-.892-3.717-1.214a85.331 85.331 0 0 1-3.732-1.066c-3.731-1.201-13.036-1.555-16.011-.609-1.18.375-2.176.458-5.533.461l-4.094.004-1.706-1.144c-2.279-1.528-6.607-3.435-9.411-4.147-1.253-.318-2.763-.703-3.357-.856-2.534-.65-8.013-.524-10.192.236-2.135.744-12.597 1.106-16.698.578-4.711-.607-10.406-2.93-12.98-5.294a79.693 79.693 0 0 0-3.235-2.775c-.957-.77-1.743-1.469-1.749-1.553-.024-.397-2.148-2.446-2.148-2.073Zm-35.464 1.381a36.255 36.255 0 0 0-.868 2.338c-3.331 10.123-11.626 16.693-21.822 17.285-10.849.63-15.067.087-25.3-3.255-5.363-1.752-11.643-2.179-14.849-1.01-.98.357-1.975.649-2.213.649-.461 0-2.693.967-5.24 2.269a46.719 46.719 0 0 1-3.062 1.408c-3.758 1.525-9.029 5.604-15.403 11.919-11.528 11.422-20.71 17.327-31.954 20.551-1.212.347-.24.58 1.759.422 6.377-.504 13.431-4.026 21.129-10.55.779-.659 1.869-1.553 2.423-1.986 1.397-1.091 3.789-3.049 4.365-3.574a369.66 369.66 0 0 1 2.638-2.329 269.531 269.531 0 0 0 5.157-4.7c4.868-4.558 8.574-6.776 14.747-8.823a566.96 566.96 0 0 0 6.475-2.196c3.883-1.354 8.582-1.544 11.031-.448 1.391.623 2.612.947 11.631 3.083 7.144 1.692 17.745 2.178 20.848.955.667-.263 1.214-.432 1.214-.376 0 .142-3.936 2.422-6.835 3.96-1.319.7-3.747 2.052-5.395 3.005-7.068 4.087-8.211 4.399-14.629 3.993-4.38-.278-5.865-.203-8.607.433-12.71 2.948-16.956 4.885-23.336 10.645-1.4 1.265-3.162 3.031-3.915 3.926-7.272 8.634-15.747 15.323-21.47 16.944-1.677.475-9.773 1.968-12.576 2.319-16.488 2.066-25.526 5.941-30.008 12.868-1.63 2.519-.999 2.263 1.495-.607 1.82-2.095 4.201-4.29 5.195-4.789 6.657-3.34 12.207-4.62 21.999-5.073 16.096-.744 24.119-4.243 33.378-14.554 12.042-13.41 21.82-19.2 31.61-18.716 4.059.2 4.328.388 1.747 1.22-2.18.703-8.319 4.004-11.459 6.162-4.561 3.134-10.362 10.322-14.606 18.098-.96 1.759-2.273 4.331-2.917 5.716-1.16 2.493-1.181 2.52-2.136 2.679-.53.088-1.612.352-2.403.586a47.23 47.23 0 0 1-2.047.563c-.334.075-2.113 1.124-3.952 2.331-5.663 3.717-11.406 10.097-15.456 17.174-2.165 3.783-5.18 7.501-7.723 9.522a178.256 178.256 0 0 0-3.678 3.021c-1.01.857-2.071 1.653-2.357 1.768-.285.115-1.166.514-1.957.887-.792.373-1.844.84-2.339 1.037-.494.198-.899.473-.899.612 0 .327.055.32.872-.106.378-.197.863-.359 1.077-.36.215-.001.521-.159.682-.352.16-.193.901-.579 1.648-.858 1.392-.519 3.291-1.813 4.354-2.965.33-.357 1.571-1.378 2.758-2.27 2.862-2.148 5.804-5.828 8.655-10.823 1.183-2.074 2.823-4.523 3.616-5.402 1.684-1.867 2.448-2.755 3.077-3.58 2.176-2.854 6.62-6.432 10.725-8.637 1.084-.582 5.864-1.963 6.072-1.754.339.338-.536 1.625-1.199 1.765-3.258.685-10.624 5.052-12.87 7.629-1.336 1.531-4.216 5.295-5.68 7.422-.833 1.209-1.96 2.655-2.505 3.213-.545.559-1.483 1.764-2.084 2.679-4.328 6.588-13.946 14.598-17.579 14.64-.495.006-.899.119-.899.251 0 .307 1.309.306 2.419-.002 2.406-.669 7.782-4.629 10.682-7.868a214.85 214.85 0 0 1 3.446-3.761c.753-.791 1.778-2.086 2.278-2.878.501-.791 1.417-1.981 2.036-2.644.62-.663 1.803-2.228 2.63-3.477.826-1.25 1.897-2.704 2.38-3.231.483-.528 1.508-1.8 2.279-2.827 2.5-3.331 12.902-9.798 13.997-8.703.218.218-6.025 13.331-7.321 15.379-3.668 5.797-10.777 14.234-14.443 17.14-3.167 2.511-2.454 2.53 1.373.037 1.583-1.031 3.25-2.095 3.704-2.363.835-.492 3.224-3.272 4.246-4.939.305-.497 1.74-2.385 3.189-4.196s2.915-3.779 3.258-4.372c.343-.594 1.429-2.159 2.414-3.478.985-1.319 2.197-3.261 2.693-4.316 1.478-3.142 3.276-7.364 3.594-8.441.339-1.144.325-1.139 5.041-1.88 2.929-.461 4.277-.771 7.539-1.734a257.7 257.7 0 0 1 4.436-1.264c1.121-.305 3.279-1.119 4.796-1.809 1.517-.69 2.79-1.224 2.829-1.186.038.037-.601 1.133-1.422 2.436-2.966 4.707-4.954 9.797-7.023 17.99-.593 2.348-2.604 7.691-3.732 9.917-1.604 3.165-6.024 8.455-9.202 11.014a617.587 617.587 0 0 0-8.815 7.268c-1.37 1.153-3.138 2.437-3.93 2.853a81.14 81.14 0 0 0-3.477 1.995c-1.121.68-3.288 1.911-4.815 2.734-1.527.824-3.308 1.937-3.957 2.475-.649.537-2.044 1.552-3.099 2.256-4.652 3.099-8.605 8.263-10.542 13.769-.785 2.233-1.357 5.082-1.079 5.372.221.23.225.221 1.408-2.907.41-1.084 1.531-3.189 2.492-4.676.961-1.488 2.048-3.225 2.416-3.86.827-1.429 3.388-4.173 4.761-5.1a79.263 79.263 0 0 0 2.226-1.581c.661-.488 2.226-1.416 3.477-2.061 4.248-2.19 10.423-5.626 11.988-6.672 6.642-4.436 8.197-5.575 10.472-7.673 6.147-5.665 10.228-10.07 11.694-12.619 1.934-3.363 4.845-11.682 5.994-17.129.747-3.544 2.772-8.152 4.509-10.266 7.636-9.288 13.679-13.866 22.016-16.682 1.233-.417 2.68-1.052 3.215-1.412.953-.642 2.412-1.437 4.81-2.622.659-.326 1.954-1.053 2.877-1.615 2.33-1.418 5.346-2.872 5.545-2.672.706.705 1.072 14.795.457 17.564-1.378 6.198-4.402 11.838-9.898 18.458-3.094 3.726-10.713 10.158-16.128 13.613-1.78 1.137-3.886 2.585-4.679 3.219-.793.634-2.076 1.637-2.851 2.227-8.014 6.108-13.975 16.322-14.906 25.545-1.276 12.63-3.188 19.71-6.54 24.212-.495.664-1.516 2.125-2.269 3.246-.754 1.121-1.667 2.415-2.029 2.876l-.658.837.599-.379c.558-.354 1.114-1.084 4.323-5.669 3.909-5.587 5.909-12.642 6.96-24.549 1.034-11.715 8.941-22.78 22.258-31.15 5.24-3.292 7.458-5.08 13.167-10.617 7.733-7.499 12.597-16.209 13.302-23.821.247-2.664-.076-14.184-.431-15.374-.35-1.174-1.348-.917-5.262 1.358-1.187.689-3.4 1.903-4.916 2.696-1.517.793-3.356 1.81-4.087 2.261-.731.45-2.134 1.077-3.117 1.393-2.332.75-4.672 1.738-5.797 2.448-.494.312-.99.568-1.101.568-.111 0-.996.547-1.966 1.215l-1.765 1.216 1.088-1.276c.598-.701 1.634-2.183 2.302-3.292l1.214-2.018 7.634-4.115c8.528-4.598 9.983-5.473 11.71-7.038 5.797-5.253 7.63-7.403 9.952-11.671.574-1.055 1.402-2.456 1.841-3.114 1.221-1.832 1.005-1.873-1.821-.342-1.44.78-2.72 1.418-2.845 1.418-.126 0-.486.202-.8.45-1.177.925-9.728 5.027-11.259 5.401-2.448.597-2.432.481.137-.966 1.317-.742 3.33-2.064 4.473-2.938 2.124-1.624 2.66-1.95 7.324-4.459 2.451-1.318 7.506-5.277 7.506-5.878 0-.101.367-.583.815-1.073.92-1.004 1.235-2.329.971-4.086-.218-1.454-.612-1.379-1.748.332-5.168 7.78-13.318 14.223-20.497 16.203-1.607.443-3.732 1.072-4.721 1.398-.989.325-2.284.664-2.878.754-.593.09-1.834.316-2.757.504-.924.187-2.596.504-3.717.704a57.176 57.176 0 0 0-6.774 1.643c-1.492.453-1.808.469-4.076.206-6.636-.767-14.263 1.28-19.921 5.347-5.529 3.975-8.846 6.874-12.346 10.794-7.755 8.684-8.424 9.267-13.718 11.946-6.557 3.32-11.782 4.525-21.583 4.977-8.575.396-13.849 1.412-18.725 3.607-1.196.539-2.238.917-2.314.841-.159-.158 3.792-2.06 4.288-2.065.179-.002 1.188-.279 2.243-.616 2.252-.72 12.713-2.847 15.827-3.218 2.652-.316 9.43-1.554 11.886-2.17 6.372-1.599 14.541-7.811 22.085-16.793 6.411-7.633 14.101-12.031 25.142-14.378 5.6-1.19 5.945-1.219 10.911-.924 6.118.364 8.281-.197 14.045-3.645.717-.429 2.922-1.67 4.9-2.758 7.533-4.145 8.802-4.949 8.414-5.338-.309-.309-.526-.288-1.789.173-3.422 1.247-13.578.799-20.893-.923-8.723-2.053-10.186-2.445-11.49-3.075-2.904-1.405-9.145-.721-14.432 1.58-.605.264-2.44.885-4.076 1.38-5.707 1.728-10.459 4.811-16.051 10.413-1.431 1.433-9.557 8.401-9.798 8.401-.082 0-.634.447-1.228.993-3.587 3.304-10.503 8.112-13.116 9.119-4.036 1.555-7.179 2.595-7.847 2.596-1.051.002-.641-.212 1.575-.822 4.008-1.103 11.067-5.274 16.87-9.969.924-.747 2.704-2.174 3.957-3.171 1.253-.997 4.275-3.794 6.715-6.216 5.515-5.473 9.913-9.024 13.549-10.938 2.048-1.078 9.285-4.374 9.605-4.374.185 0 1.175-.294 2.2-.652 3.365-1.177 9.702-.722 15.053 1.081 8.355 2.814 11.29 3.292 19.904 3.247 12.979-.068 16.197-1.456 23.629-10.19 1.385-1.627 2.81-4.476 4.387-8.774.813-2.213.774-3.132-.05-1.199Zm44.696 11.398c3.511 1.778 10.968 3.41 15.585 3.41 5.196 0 7.543.698 11.753 3.496 6.064 4.028 10.361 9.46 13.076 16.528.76 1.979 1.459 3.786 1.553 4.017.094.231.117.42.05.42-.168 0-3.562-1.388-3.625-1.483l-.83-1.275c-.428-.66-1.316-1.631-1.973-2.159-.657-.527-2.513-2.153-4.123-3.613-3.406-3.087-6.926-5.255-10.351-6.374-1.185-.387-2.752-.958-3.481-1.269-2.596-1.104-3.748-1.533-5.523-2.053-3.979-1.167-10.127-4.012-12.135-5.617a86 86 0 0 0-1.871-1.457c-.765-.567-1.317-1.989-1.332-3.434l-.01-1.035.659.463c.363.255 1.523.901 2.578 1.435Zm-45.744 4.024c-.102 1.268-.24 1.635-.868 2.306-.411.438-.748.872-.749.962-.006.874-6.289 5.498-8.994 6.619l-.719.298.719-.532c2.204-1.631 8.598-8.573 9.83-10.674.641-1.09.921-.724.781 1.021Zm39.569.867c4.347 3.215 4.277 3.328-.377.601-2.414-1.415-3.4-2.275-3.4-2.968 0-.432-.054-.466 3.777 2.367Zm-23.799.917c.96 1.04 3.703 4.413 5.218 6.418 1.604 2.121 1.441 3.008-1.026 5.576-.56.582-1.288 1.467-1.618 1.967-.806 1.216-.778 1.236-2.047-1.431-1.61-3.381-2.543-6.649-3.304-11.571-.153-.989-.373-2.176-.489-2.637-.521-2.078.084-1.767 3.266 1.678Zm-8.021 1.799c.612 6.048 1.696 9.332 4.318 13.081.235.336.856 1.4 1.379 2.365l.952 1.755-1.446 2.071a123.524 123.524 0 0 1-2.842 3.877c-.767.993-1.816 2.558-2.331 3.477-.514.919-1.24 2.202-1.613 2.851a29.207 29.207 0 0 0-1.247 2.518c-.536 1.257-.561 1.281-.418.399.446-2.742.706-5.915.572-6.975-.083-.659-.122-3.195-.086-5.635.061-4.157-.023-5.381-.618-8.993-.509-3.089-.348-5.579.489-7.554.696-1.641 1.462-3.844 2.21-6.355.28-.94.287-.945.35-.24.035.396.184 1.907.331 3.358Zm49.689 6.595c1.339.267 4.863 1.485 5.989 2.068.43.224 1.967.877 3.415 1.453 5.992 2.381 13.652 8.641 15.951 13.036.17.324.779 1.22 1.354 1.991.575.772 1.046 1.546 1.046 1.721 0 .174.356.784.791 1.355 1.368 1.795 2.831 4.035 2.635 4.033-.813-.008-6.102-2.054-7.743-2.996-.74-.425-1.27-.678-5.036-2.405-5.637-2.586-11.401-7.576-14.195-12.288-2.522-4.254-4.549-6.762-6.447-7.98-1.466-.941-1.472-1.016-.041-.57a27.05 27.05 0 0 0 2.281.582Zm-7.125 2.313c.843.589 2.481 1.902 3.638 2.916a199.69 199.69 0 0 0 3.369 2.89c2.108 1.744 5.824 8.759 7.006 13.223 1.102 4.165 1.217 5.373 1.448 15.108.209 8.774.408 10.966 1.31 14.389.087.33-.256-.156-.761-1.079-1.171-2.139-2.254-3.734-3.664-5.396-.616-.725-1.382-1.697-1.703-2.158-.321-.462-1.542-1.857-2.713-3.1-4.771-5.063-8.891-13.298-10.207-20.401-.158-.858-.44-2.315-.626-3.238-.832-4.132-1.092-7.356-.924-11.454l.164-4.02 1.065.624a48.832 48.832 0 0 1 2.598 1.696Zm-54.993-1.414c-.251.362-.925 1.523-1.497 2.578-2.42 4.463-4.82 7.303-9.854 11.663-1.929 1.672-3.311 2.561-7.357 4.737l-6.347 3.412c-1.748.938-3.647 1.98-4.22 2.314l-1.043.609.497-.975c.583-1.142 1.444-3.353 2.544-6.532 1.527-4.411 1.949-5.473 2.54-6.389.328-.509.728-1.228.889-1.598.304-.697 1.525-1.366 2.494-1.366.645 0 3.99-.782 6.263-1.464 1.514-.455 3.914-1.62 10.599-5.143 5.668-2.987 5.129-2.765 4.492-1.846Zm-11.806 2.562c0 .543-7.019 4.493-8.961 5.043-2.021.572-10.865 2.135-12.142 2.145-4.693.039-6.254-.247-3.717-.68.528-.09 1.93-.42 3.117-.734 1.188-.314 3.616-.812 5.396-1.107 1.781-.295 4.101-.777 5.156-1.072L486-129.94c1.715-.481 3.765-1.183 4.556-1.562 1.68-.805 1.559-.756 1.559-.624Zm43.196 2.939c4.907 7.271 7.473 17.21 7.018 27.173-.404 8.826.035 14.002 1.481 17.462.556 1.33.428 1.279-1.307-.522-4.583-4.757-4.797-5.064-5.88-8.449-1.508-4.714-2.23-7.916-2.445-10.837-.229-3.114-1.787-12.064-2.369-13.61-.302-.802-1.161-2.73-1.908-4.286-1.556-3.235-1.617-2.711.661-5.612.956-1.219 3.063-3.163 3.427-3.163.043 0 .638.83 1.322 1.844Zm-7.61 4.456c-.369.651-2.382 3.271-2.52 3.281-.081.006-.485-.743-.897-1.665l-.75-1.676 1.225-1.68 1.225-1.679.942 1.562c.521.864.868 1.694.775 1.857Zm-47.987-.605c-.086.231-.41.852-.72 1.379-.859 1.458-1.254 2.394-2.25 5.333-2.772 8.175-3.321 9.28-5.048 10.152-.745.377-2.04 1.201-2.878 1.832-.838.632-2.117 1.568-2.842 2.08-2.661 1.881-4.6 3.609-6.147 5.479-1.278 1.545-1.846 2.03-2.935 2.506-.742.324-1.781.808-2.309 1.075-1.415.715-3.835 1.601-5.875 2.15a412.987 412.987 0 0 0-6.235 1.723c-1.121.318-3.226.76-4.676.984-1.451.223-3.043.496-3.538.607-1.017.227-1.062.13-.495-1.059.333-.697.535-.848 1.139-.849 1.039-.002 4.23-.809 6.491-1.639 1.055-.388 2.674-.823 3.597-.967 3.872-.605 14.044-5.161 16.906-7.573.858-.723 2.503-2.086 3.656-3.029 1.17-.956 2.557-2.365 3.137-3.186 1.046-1.48 5.917-11.135 5.917-11.728a.95.95 0 0 1 .203-.546c.112-.125.547-1.097.968-2.16.985-2.489 1.404-2.849 3.438-2.951.526-.026.622.048.496.387Zm-4.047 1.679a93.412 93.412 0 0 1-.82 1.858 40.99 40.99 0 0 0-.73 1.797c-2.686 6.995-6.103 12.262-10.059 15.505-.99.811-2.069 1.713-2.399 2.004-2.551 2.258-13.351 7.046-16.971 7.524-.695.092-2.422.576-3.837 1.077-2.556.905-5.927 1.673-6.19 1.41-.18-.18 2.309-5.409 3.198-6.716l3.055-4.495c6.86-10.095 11.337-13.877 20.266-17.121 8.261-3.001 9.284-3.32 11.748-3.665 1.383-.193 2.561-.398 2.618-.454.574-.575.637.08.121 1.276Zm-6.214-.828c.264.027-.707.466-2.158.976-5.491 1.93-9.819 3.578-10.768 4.1l-2.421 1.332c-5.853 3.216-13.842 12.796-18.395 22.058-1.856 3.777-1.82 3.729-3.017 3.954-1.263.237-1.243.156 1.1-4.499 6.742-13.392 12.479-19.473 24.268-25.726 3.59-1.903 7.271-2.613 11.391-2.195Zm60.616 3.646c1.34 2.858 1.804 4.325 2.312 7.314.863 5.077 1.047 6.35 1.236 8.547.386 4.477 2.015 10.92 3.653 14.441.267.575 1.834 2.492 3.481 4.259 3.221 3.456 4.122 4.561 4.122 5.055 0 .173.428 1.343.951 2.601.524 1.257.821 2.211.66 2.119-.161-.091-.724-.506-1.251-.922a22.586 22.586 0 0 0-1.856-1.3c-.492-.298-1.383-1.1-1.978-1.78-.816-.933-1.082-1.121-1.082-.766 0 .259-.64 1.772-1.422 3.361-.782 1.59-1.653 3.48-1.935 4.201-.283.721-.76 1.743-1.062 2.27-1.551 2.712-3.309 7.821-3.837 11.151-2.338 14.736-1.768 24.254 2.087 34.895 2.887 7.968 2.719 16.806-.452 23.873-.699 1.557-1.087 1.823-.454.311 2.395-5.717 2.716-13.512.836-20.303-1.408-5.088-2.202-7.785-2.871-9.759-1.98-5.843-2.392-10.971-1.444-17.986.294-2.176.62-6.169.724-8.872.239-6.219.281-6.367 3.608-12.958 1.819-3.603 2.868-6.252 3.729-9.422.765-2.82.746-2.987-.515-4.465-3.885-4.551-6.351-11.696-6.343-18.379.002-1.841-.68-4.896-1.093-4.896-.146 0-.516.534-.822 1.187-.306.652-.703 1.243-.884 1.312-.422.163-.765 1.024-1.296 3.256-.235.989-.59 2.392-.788 3.118-.848 3.105-.995 4.649-.921 9.712.049 3.358.193 5.555.431 6.594.197.858.415 2.423.486 3.478.136 2.046.811 5.717 1.406 7.652.199.647.362 1.571.362 2.053s.206 1.679.459 2.66c1.165 4.522 1.522 13.906.634 16.651-1.234 3.816-3.85 8.868-6.228 12.032-1.222 1.626-2.181 5.117-2.795 10.179-.15 1.237-.428 3.167-.617 4.288-.408 2.412-.665 4.91-1.173 11.391-.207 2.638-.488 5.531-.625 6.429-.136.898-.188 2.301-.115 3.117.073.817.232 3.266.353 5.442.158 2.845.373 4.496.763 5.875.735 2.594.746 5.543.038 9.713-.767 4.516-1.078 5.943-1.188 5.452-.052-.233.092-1.362.319-2.509.536-2.698.341-8.87-.431-13.664-.603-3.748-.701-15.579-.18-21.773.144-1.715.356-5.168.47-7.674.246-5.388.475-6.875 1.556-10.072.446-1.319.988-3.091 1.205-3.937.217-.847.883-2.573 1.48-3.837 5.903-12.495 6.95-23.198 3.25-33.239-3.466-9.409-3.824-19.266-1.006-27.692.658-1.97 1.546-5.103 2.65-9.353.546-2.1 1.063-3.358 1.494-3.636.307-.198-.221-1.671-1.689-4.709l-1.077-2.231.945-1.126c.521-.62 1.141-1.427 1.379-1.794.537-.828.508-.865 2.351 3.065Zm-5.723.703c-.238.404-1.585 2.113-2.992 3.797-5.415 6.481-8.151 17.244-6.465 25.436.688 3.345.088 12.28-1.101 16.378-.338 1.168-.76 2.882-.938 3.809-.637 3.331-3.213 7.743-6.578 11.268a128.36 128.36 0 0 0-2.957 3.201c-.619.706-1.377 1.482-1.685 1.724l-.56.44-.014-1.94-.014-1.94 1.095-1.342c.602-.738 1.623-2.152 2.269-3.141.646-.989 1.598-2.348 2.116-3.02.517-.671 1.152-1.836 1.411-2.588.259-.752.743-1.875 1.077-2.496 2.28-4.245 3.382-12.936 3.074-24.244-.291-10.684 1.501-16.688 7.237-24.247.951-1.253 2.2-2.978 2.776-3.834l1.049-1.555.817 1.779c.815 1.772.816 1.782.383 2.515Zm74.17-.573c.594.207 1.753 1.671 1.753 2.215 0 .511-2.041-.572-2.421-1.284-.683-1.283-.614-1.378.668-.931Zm6.208 1.797c1.726.455 4.1.99 5.276 1.19 1.177.199 3.11.625 4.297.946 1.187.321 2.627.656 3.199.743 1.678.256 5.455 1.915 7.808 3.429 1.201.772 2.958 1.853 3.907 2.402 1.555.9 4.597 3.681 5.196 4.751.329.588-1.393-.479-2.604-1.613-1.234-1.156-4.804-3.292-9.472-5.667-2.03-1.033-7.312-2.67-10.192-3.158l-5.156-.875c-4.545-.771-5.807-1.218-6.415-2.275-.69-1.198-.686-1.211.24-.934.429.128 2.191.605 3.916 1.061Zm-4.542.98c.428.108.815.596 1.414 1.785 2.057 4.085 4.745 7.113 7.576 8.535 1.725.867 9.183 3.582 11.828 4.307 1.181.323 2.197.638 2.258.699.665.665-6.156-1.184-8.841-2.397a64.673 64.673 0 0 0-3.563-1.461c-3.672-1.349-7.978-5.183-10.842-9.653-1.264-1.972-1.404-2.341-.8-2.109.21.081.647.213.97.294Zm-87.664 11.5c-.872 4.071-1.056 6.374-.919 11.49.298 11.137-.824 20.454-2.884 23.947-.245.415-.746 1.543-1.114 2.506-.368.963-.913 2.042-1.211 2.398-.299.356-.962 1.295-1.475 2.086-2.671 4.123-4.167 5.817-4.167 4.721 0-.387-.169-1.176-.376-1.753-.932-2.594-1.243-8.266-.703-12.8.063-.528.161-2.47.219-4.316.191-6.136 1.555-10.513 4.929-15.815.759-1.194 1.78-2.965 2.269-3.935.488-.97 1.621-2.966 2.517-4.436 1.757-2.882 3.136-5.575 3.136-6.127 0-.188.053-.29.118-.225.065.065-.088 1.082-.339 2.259Zm89.189-1.462c1.975.796 11.296 7.919 12.132 9.271.309.5-3.243-1.555-4.527-2.62-2.368-1.962-4.279-3.215-6.537-4.284-1.881-.892-2.388-1.254-3.002-2.146l-.739-1.074.677.161c.373.089 1.271.4 1.996.692Zm-129.525.184c-2.382 4.505-7.36 8.486-12.675 10.135-1.349.418 2.675-3.634 5.956-5.998a115.891 115.891 0 0 0 3.233-2.415c2.374-1.874 3.988-2.671 3.486-1.722Zm58.546 5.935c.499 7.273 2.519 12.912 6.051 16.898 1.3 1.465 1.311 1.538.655 4.107-.739 2.893-1.814 5.58-3.999 9.997-2.789 5.639-3.405 7.376-3.445 9.721-.028 1.59-.449-.005-.612-2.315-.08-1.142-.35-2.879-.599-3.86-.249-.981-.453-2.178-.453-2.66 0-.482-.162-1.406-.361-2.053-.584-1.907-1.259-5.588-1.402-7.652-.073-1.055-.307-2.598-.52-3.428-.961-3.74-.547-13.536.728-17.258.328-.957.596-1.942.596-2.188 0-.838.661-2.323 1.59-3.574l.928-1.248.31 1.138c.171.626.41 2.595.533 4.375Zm-67.605 4.263c-2.678 2.721-6.892 7.798-7.548 9.091-.844 1.666-2.591 6.512-3.006 8.337-.613 2.696-2.293 8.363-2.991 10.084-1.35 3.333-2.313 5.484-2.927 6.544-2.37 4.093-11.59 13.226-16.886 16.729a177.333 177.333 0 0 0-4.251 2.903c-.953.681-3.597 2.232-5.875 3.447-2.278 1.215-4.304 2.348-4.502 2.518-.198.17-1.277.734-2.398 1.255-1.121.52-2.686 1.421-3.478 2.001-.791.58-1.908 1.373-2.481 1.763-1.309.888-3.723 3.504-4.547 4.926-1.354 2.336-4.165 6.513-4.295 6.383-.229-.229 2.005-4.621 3.349-6.58 1.685-2.459 4.455-5.223 6.655-6.642.99-.638 2.5-1.718 3.358-2.4.857-.682 2.853-1.924 4.436-2.761 1.583-.836 3.579-1.972 4.437-2.523a40.047 40.047 0 0 1 2.997-1.728c1.358-.684 3.516-2.272 5.396-3.973a89.539 89.539 0 0 1 2.601-2.198 189.76 189.76 0 0 0 2.892-2.41 39.35 39.35 0 0 1 2.22-1.754c1.239-.89 5.371-5.25 6.849-7.227 2.326-3.111 4.969-9.26 6.507-15.138 2.161-8.257 3.796-12.266 7.068-17.325l1.531-2.367 2.747-1.138c1.51-.626 3.171-1.415 3.691-1.755.519-.34.955-.624.969-.632.014-.008-1.119 1.149-2.518 2.57Zm155.371-.865c11.157 3.663 22.407 12.189 26.637 20.186 1.16 2.193 4.228 6.667 5.04 7.352.079.066.641.8 1.25 1.632 1.14 1.557 4.133 4.018 6.325 5.2 1.934 1.043.042.515-2.258-.63-2.936-1.462-4.837-3.265-7.378-6.994-4.901-7.195-7.377-10.258-11.786-14.58-2.984-2.926-7.415-6.473-8.525-6.826-.298-.094-.815-.373-1.147-.618-.779-.575-4.937-2.201-8.159-3.189-2.977-.914-3.233-1.042-4.27-2.12l-.795-.826 1.394.332c.767.183 2.419.669 3.672 1.081Zm-185.356 7.603c-.446.873-1 1.218-1.972 1.226-.761.007-.015-1.643.859-1.897 1.528-.444 1.645-.373 1.113.671Zm-.985 2.592c-1.139 3.497-4.307 9.914-6.017 12.187-.992 1.319-2.161 2.991-2.599 3.717-.437.725-1.872 2.66-3.189 4.3-1.317 1.639-2.765 3.559-3.217 4.266-1.877 2.934-4.581 5.477-6.671 6.273-.131.05.793-.975 2.054-2.278 7.275-7.516 13.029-16.647 17.474-27.732.438-1.09.687-1.41 1.185-1.52.347-.076.738-.167.87-.204.403-.111.419.04.11.991Zm114.84 7.93a60.21 60.21 0 0 1 1.477 1.265c.066.07.579.483 1.139.92.561.436 1.019.99 1.019 1.23s.259 1.201.575 2.135l.575 1.699-1.234-1.046c-.679-.576-1.676-1.27-2.215-1.542-.909-.458-1.052-.675-1.978-3-1.344-3.373-1.357-3.338.642-1.661Zm10.435 9.614c4.12 4.725 6.266 9.337 8.785 18.883l.753 2.858-.118 6.235c-.065 3.429-.194 6.721-.286 7.314-.299 1.918.312 5.602 1.454 8.763.574 1.589 1.121 3.208 1.215 3.598.095.39.695 1.757 1.334 3.039 1.415 2.837.997 2.859-.893.047-2.7-4.016-3.411-7.133-3.69-16.166-.16-5.162-.332-7.48-.705-9.473-.271-1.45-.494-3.04-.496-3.532-.004-.979-1.264-6.664-1.828-8.25-.194-.545-.92-1.84-1.614-2.878-.694-1.037-1.621-2.588-2.06-3.445-1.001-1.956-2.065-3.413-3.5-4.796-2.448-2.361-4.102-5.104-4.538-7.527l-.167-.932 2.2 2.011a63.819 63.819 0 0 1 4.154 4.251Zm-6.496-2.376c1.285 1.202 1.754 1.895 3.123 4.612.886 1.759 2.14 3.954 2.787 4.877 1.191 1.698 3.329 6.275 4.37 9.352 1.265 3.742.662 13.608-1.111 18.168-1.692 4.35-3.894 9.122-4.861 10.532-3.257 4.748-7.506 13.405-8.021 16.341-.343 1.953-.329 7.334.023 9.186.153.807.378 2.426.5 3.597.121 1.17.496 3.743.834 5.717.995 5.824.821 10.083-.586 14.277-.155.462-.329.99-.386 1.173-.327 1.045-.29-.193.053-1.801.639-2.997.586-10.95-.096-14.177-.285-1.349-.586-3.346-.668-4.436a65.046 65.046 0 0 0-.485-4.14c-.862-5.566-.174-11.744 1.684-15.108.437-.791 1.1-2.14 1.472-2.998.373-.857 1.014-2.098 1.425-2.758 1.613-2.587 3.349-5.844 4.089-7.673.426-1.056 1.34-3.268 2.03-4.916 2.232-5.333 2.537-6.398 2.864-10.001.676-7.453-.553-12.299-4.998-19.704a432.17 432.17 0 0 1-2.686-4.556 1001.97 1001.97 0 0 0-2.818-4.827c-2.03-3.453-1.647-3.646 1.462-.737Zm95.799 13.128c1.121.466.96.565-.301.185-1.37-.412-2.26-.911-1.197-.671.395.09 1.07.308 1.498.486ZM500.58-54.902c-.105 1.504-.132 1.547-3.013 4.781l-.663.745.113-.84c.062-.461.181-1.379.265-2.038.16-1.257 1.245-3.305 2.423-4.569l.658-.707.158.6c.087.329.114 1.242.059 2.028Zm-3.958 4.289c-.192 1.608-.419 2.236-1.559 4.317-2.552 4.656-2.892 5.811-4.263 14.462-.087.548-.42 1.351-.74 1.785l-.583.79.001-1.546c0-.947.32-2.844.825-4.902a189.515 189.515 0 0 0 1.217-5.261c.582-2.816 4.829-12.143 5.277-11.588.028.034-.051.909-.175 1.943Zm2.963 2.08c-1.685 7.181-5.047 14.855-8.138 18.577l-.593.715.176-.805c.097-.443.384-1.156.637-1.585 1.491-2.526 4.288-10.805 4.781-14.148.401-2.725.418-2.763 2.142-4.787 1.888-2.216 1.958-2.073.995 2.033Zm-3.761 3.885c-.613 3.025-4.399 13.375-4.421 12.085-.016-.95 1.474-8.225 1.871-9.14.948-2.178 2.758-5.495 2.852-5.223.055.16-.081 1.185-.302 2.278Zm-5.886 16.395c-.762.811-.859.533-.192-.547.442-.716.582-.817.649-.471.047.242-.159.701-.457 1.018Zm.136 4.207a217.75 217.75 0 0 0-.61 7.252c-.343 5.419-2.72 12.249-4.891 14.05-.401.333.238-1.367 1.618-4.306 1.856-3.954 2.146-5.588 2.81-15.823.226-3.5.314-4.013.767-4.495.728-.775.73-.747.306 3.322Zm-3.989.218c-.706.796-2.348 2.603-3.648 4.017-3.434 3.731-4.717 5.405-6.105 7.964-1.395 2.572-1.51 2.599-.629.149.986-2.743 1.583-3.628 5.271-7.822 1.002-1.14 1.543-1.653 4.411-4.183 2.206-1.947 2.335-1.97.7-.125Z" style="fill: rgb(73, 80, 87);" class="fills"/></svg>