<svg width="399.892" xmlns="http://www.w3.org/2000/svg" height="253.069" fill="none"><g style="fill: rgb(0, 0, 0);"><path d="M284.25 29.181C234.487 37.963 25.885 74.724 23 75.22c-.166.029-.238.209-.215.537.058.822 27.757 157.818 27.865 157.938.082.092 76.353-13.297 223.683-39.266 21.632-3.813 61.597-10.853 92.222-16.245 9.334-1.643 17.017-3.034 17.073-3.09.086-.085-1.279-3.094-1.403-3.094-.041 0-319.42 56.331-325.552 57.419-1.785.317-3.292.521-3.35.454-.197-.23-26.846-151.75-26.709-151.863.075-.063 17.048-3.091 37.719-6.731a621041.5 621041.5 0 0 0 108.834-19.181c39.187-6.91 96.262-16.97 126.833-22.356 30.571-5.385 55.646-9.847 55.722-9.914.324-.286-1.608-2.821-2.139-2.808-.275.007-31.475 5.479-69.333 12.161Z" style="fill: rgb(248, 249, 250); fill-opacity: 0;" fill="none" class="fills"/><path d="M338.18 3.124c-18.438 3.278-29.882 5.297-221.037 38.985C52.773 53.453.059 62.782.001 62.841c-.058.058 2.272 13.554 5.178 29.991 2.906 16.437 5.322 30.121 5.369 30.409.086.522.092.524 1.359.636 12.313 1.088 23.512 9.427 28.264 21.046 7.105 17.374-.166 36.861-16.783 44.979-.527.257-.958.544-.958.638 0 .094 2.475 14.168 5.5 31.275 3.025 17.108 5.5 31.154 5.5 31.212 0 .22 1.859-.1 52.719-9.068 130.1-22.94 307.106-54.163 307.83-54.301 1.007-.19 1.025-.211.788-.931-.172-.52-.153-.665.15-1.155.388-.628.445-1.564.164-2.681-.318-1.263.999-3.428 2.66-4.371 1.04-.591 1.189-.812 1.189-1.764 0-.683.081-.896.5-1.315.691-.691.632-1.048-.353-2.125-.469-.513-.993-1.092-1.165-1.288-.372-.423-1.038-.579-1.634-.383-.237.079-9.619 1.756-20.848 3.728-20.096 3.529-44.807 7.88-87.667 15.434-149.758 26.397-224.101 39.448-224.183 39.355-.109-.121-27.807-157.122-27.865-157.945-.029-.418.033-.509.382-.557.229-.032 43.954-7.731 97.166-17.109 53.213-9.377 127.556-22.476 165.208-29.109 44.73-7.879 68.458-12.125 68.458-12.251.001-.106-.37-.504-.824-.884-1.325-1.109-1.508-1.525-1.508-3.415 0-1.811-.51-3.516-1.255-4.199-.263-.241-.36-.472-.298-.709.069-.264.015-.35-.22-.351-1.274-.003-2.727-1.99-2.727-3.731V.617l-.625-.27c-1.606-.694-2.225-.613-21.292 2.777Zm-25.5 25.103c-30.8 5.441-87.537 15.453-126.083 22.25C49.283 74.689 39.607 76.401 39.509 76.499c-.112.112 26.579 151.649 26.744 151.84.058.068 56.652-9.853 125.766-22.046a4315089.11 4315089.11 0 0 1 164.297-28.981c21.25-3.747 38.688-6.863 38.75-6.926.063-.062.114-.951.114-1.975v-1.861l-.96-2.083c-.527-1.146-2.071-4.224-3.43-6.84l-2.471-4.758-.111-4.684-.111-4.685.415-.892c.703-1.51.578-2.541-.466-3.844-.615-.767-.587-1.158.33-4.63.767-2.907.81-4.794.305-13.294-.239-4.037-.261-5.276-.107-6.206.227-1.376.05-2.43-.564-3.365-.243-.369-.665-1.65-1.057-3.21l-.653-2.597 1.241-3.956c1.288-4.104 1.313-4.236 1.13-6.064-.087-.872-.018-1.552.324-3.184.577-2.755.57-3.172-.061-3.622-.992-.706-1.338-4.209-.75-7.584l.255-1.459-1.563-2.355c-3.167-4.773-3.129-4.679-3.706-9.08-.464-3.534-.464-4.241 0-6.332.32-1.446.185-2.528-.483-3.845-.555-1.095-.544-1.263.262-3.875.954-3.093.971-4.408.087-6.618-.646-1.615-1.174-3.455-1.776-6.188-.255-1.158-.545-1.919-1.08-2.833-1.175-2.008-2.511-4.927-3.258-7.118-.678-1.99-.713-2.05-1.596-2.731-2.231-1.721-4.563-5.278-6.082-9.276-.218-.573-.434-1.034-.48-1.024l-56.084 9.909Z" style="fill: rgb(195, 250, 232); fill-opacity: 1;" class="fills"/></g></svg>