<svg width="314.46" xmlns="http://www.w3.org/2000/svg" height="313.934" viewBox="338.35 34.451 314.46 313.934" fill="none"><path d="M486.209 34.771C369.968 42.14 301.436 168.936 359.252 269.662c65.658 114.389 234.802 101.484 282.882-21.583 41.269-105.631-42.69-220.487-155.925-213.308Zm26.853 18.675c103.858 14.016 156.296 130.08 97.93 216.755-43.336 64.357-132.708 80.455-195.912 35.289-72.088-51.516-78.901-155.4-14.153-215.819 29.84-27.846 72.385-41.589 112.135-36.225Zm-18.836 6.422c-.62.408-1.09 1.628-5.542 14.393-2.189 6.274-4.673 13.385-5.52 15.8-2.008 5.728-1.908 6.528 1.186 9.406 6.108 5.683 5.815 12.616-.813 19.259-4.826 4.837-7.228 8.957-9.037 15.504-.444 1.604-.644 4.308-.781 10.533l-.184 8.374-1.307-.772c-1.932-1.141-20.797-11.977-37.818-21.724-8.21-4.701-15.868-9.112-17.017-9.802-1.15-.69-2.142-1.197-2.207-1.126-.457.504-7.067 12.267-6.956 12.378.077.077 3.612 2.14 7.855 4.582 4.242 2.443 12.003 6.917 17.246 9.943 5.243 3.025 13.822 7.973 19.065 10.995a7752.759 7752.759 0 0 1 15.108 8.731l5.575 3.237.095 4.628.095 4.628-3.925 2.26-3.925 2.26-18.112-10.48c-9.962-5.763-22.24-12.873-27.285-15.798-22.123-12.83-19.677-11.671-20.707-9.804-.953 1.726-4.697 8.2-5.585 9.657l-.681 1.117 4.223 2.453a7294.86 7294.86 0 0 0 8.721 5.055c2.473 1.43 10.162 5.879 17.086 9.887 15.564 9.008 23.174 13.401 25.63 14.798 2.496 1.419 2.742 1.122-4.281 5.177-11.048 6.378-15.576 11.909-18.099 22.107-2.163 8.74-9.567 13.336-16.559 10.278-3.881-1.697-3.514-1.976-14.928 11.36-15.881 18.555-14.98 17.251-13.128 18.991l.902.847 8.181-1.506c33.034-6.081 29.543-5.001 30.661-9.487 2.045-8.206 8.269-11.56 16.909-9.11 9.819 2.784 17.233 1.533 28.231-4.765 3.361-1.925 6.234-3.553 6.385-3.619.152-.066.276 14.867.276 33.184V297h14.385l.092-37.661.091-37.661 3.597-2.087c4.376-2.539 3.727-2.548 8.284.11l3.767 2.198V297h14.029v-33.213c0-18.268.09-33.304.201-33.415.11-.111 2.579 1.173 5.485 2.853 7.099 4.104 8.202 4.641 11.278 5.494 6.344 1.76 12.1 1.698 18.312-.197 7.997-2.441 15.59 1.742 16.737 9.219.596 3.888.89 4.029 13.095 6.273a7032.39 7032.39 0 0 1 16.501 3.059c9.928 1.857 10.485 1.838 11.016-.374.261-1.084-23.214-28.873-24.948-29.532-.718-.273-1.489-.176-3.283.413-8.605 2.826-14.809-.813-17.066-10.009-2.56-10.432-7.178-15.789-19.743-22.903-3.965-2.244-4.874-2.9-4.497-3.243.26-.236 3.144-1.966 6.408-3.844 37.13-21.358 50.719-29.278 50.719-29.561 0-.261-6.192-11.369-6.734-12.08-.067-.089-.562.09-1.1.398a87151.561 87151.561 0 0 0-57.77 33.275l-6.431 3.715-3.92-2.236-3.92-2.236.099-4.666.1-4.666 8.993-5.183c4.946-2.85 12.716-7.334 17.266-9.965 4.551-2.63 15.072-8.703 23.381-13.496 8.31-4.792 15.155-8.754 15.211-8.803.079-.069-6.53-11.793-6.963-12.354-.051-.066-4.76 2.58-10.465 5.88a85184.586 85184.586 0 0 1-37.171 21.489l-10.252 5.923-.231-8.313c-.371-13.364-2.146-18.068-9.869-26.159-6.382-6.686-6.64-13.605-.705-18.92 3.655-3.273 3.723-2.737-2.514-19.801-7.518-20.571-7.282-20.032-8.809-20.146-.689-.052-1.449.035-1.689.192Zm4.393 72.34c1.633.75 3.205 2.218 4.08 3.813.522.952.596 2.605.596 13.283V161.5l-3.867 2.296-3.867 2.295-3.867-2.279-3.867-2.279v-12.212c0-10.694.074-12.348.596-13.3 1.469-2.677 4.335-4.473 7.138-4.473.89 0 2.266.297 3.058.66Zm1.451 51.863 4.484 2.539v10.303l-4.496 2.563-4.497 2.562-4.506-2.568-4.505-2.567.099-5.197.099-5.197 4.317-2.482c2.374-1.365 4.362-2.485 4.418-2.488.057-.004 2.12 1.136 4.587 2.532Zm-28.699 19.224 1.887 1.079-.013 4.676-.012 4.677-9.683 5.524c-5.325 3.038-10.395 5.78-11.266 6.094-4.443 1.597-9.956-2.546-9.956-7.482 0-4.035 1.448-5.367 13.269-12.212l9.855-5.707 2.016 1.136c1.108.625 2.864 1.621 3.903 2.215Zm64.356 2.419c11.656 6.785 12.427 7.452 12.941 11.201.717 5.233-4.655 9.939-9.649 8.454-.907-.27-6.033-3-11.39-6.067l-9.742-5.575-.012-4.705-.012-4.705 3.867-2.21c2.127-1.216 3.96-2.175 4.073-2.13.113.044 4.579 2.626 9.924 5.737Z" style="fill: rgb(56, 217, 169); fill-opacity: 1;" class="fills"/></svg>